G04*
G04 #@! TF.GenerationSoftware,Altium Limited,Altium Designer,22.4.2 (48)*
G04*
G04 Layer_Physical_Order=2*
G04 Layer_Color=16711680*
%FSLAX25Y25*%
%MOIN*%
G70*
G04*
G04 #@! TF.SameCoordinates,783B880F-F190-4A79-90E1-06678E82802B*
G04*
G04*
G04 #@! TF.FilePolarity,Positive*
G04*
G01*
G75*
%ADD80C,0.02500*%
%ADD81C,0.03500*%
%ADD83C,0.18898*%
%ADD84C,0.07087*%
%ADD85C,0.04331*%
%ADD86R,0.04331X0.04331*%
%ADD87R,0.05610X0.05610*%
%ADD88C,0.05610*%
%ADD89C,0.06496*%
%ADD90R,0.06496X0.06496*%
%ADD91R,0.04331X0.04331*%
%ADD92C,0.04661*%
%ADD93C,0.05669*%
%ADD94C,0.04559*%
%ADD95R,0.04559X0.04559*%
%ADD96C,0.05315*%
%ADD97C,0.07559*%
%ADD98R,0.07559X0.07559*%
%ADD99C,0.10630*%
%ADD100R,0.10630X0.10630*%
%ADD101C,0.07500*%
%ADD102C,0.05906*%
%ADD103R,0.05906X0.05906*%
%ADD104C,0.08268*%
%ADD105C,0.08799*%
%ADD106R,0.08799X0.08799*%
%ADD107R,0.04661X0.04661*%
%ADD108R,0.04724X0.04724*%
%ADD109C,0.04724*%
%ADD110R,0.05315X0.05315*%
%ADD111C,0.06791*%
%ADD112R,0.06791X0.06791*%
%ADD113C,0.15748*%
%ADD114C,0.03000*%
%ADD115C,0.03500*%
%ADD116C,0.05000*%
%ADD117C,0.03000*%
G36*
X562000Y256269D02*
X561500Y256203D01*
X561259Y257104D01*
X560595Y258254D01*
X559656Y259193D01*
X558506Y259857D01*
X557223Y260201D01*
X555895D01*
X554612Y259857D01*
X553462Y259193D01*
X552523Y258254D01*
X551859Y257104D01*
X551516Y255821D01*
Y254493D01*
X551859Y253211D01*
X552523Y252061D01*
X553281Y251303D01*
Y223917D01*
X528642Y199278D01*
X510278D01*
Y224000D01*
X510222Y224424D01*
X510166Y224848D01*
X509839Y225639D01*
X509318Y226318D01*
X475318Y260318D01*
X474639Y260839D01*
X473848Y261166D01*
X473424Y261222D01*
X473000Y261278D01*
X456408D01*
X456278Y261408D01*
Y278347D01*
X456416Y278585D01*
X456665Y279518D01*
Y280483D01*
X456416Y281415D01*
X455933Y282251D01*
X455251Y282933D01*
X454415Y283416D01*
X453482Y283665D01*
X452518D01*
X451585Y283416D01*
X450749Y282933D01*
X450067Y282251D01*
X449584Y281415D01*
X449335Y280483D01*
Y279518D01*
X449584Y278585D01*
X449722Y278347D01*
Y260050D01*
X449778Y259626D01*
X449834Y259202D01*
X450161Y258411D01*
X450682Y257732D01*
X452732Y255682D01*
X453411Y255161D01*
X454202Y254834D01*
X455050Y254722D01*
X471642D01*
X503722Y222642D01*
Y199278D01*
X496000D01*
X495152Y199166D01*
X494361Y198839D01*
X493682Y198318D01*
X493161Y197639D01*
X492834Y196848D01*
X492722Y196000D01*
X492834Y195152D01*
X493161Y194361D01*
X493682Y193682D01*
X494361Y193161D01*
X495152Y192834D01*
X496000Y192722D01*
X530000D01*
X530424Y192778D01*
X530848Y192834D01*
X531639Y193161D01*
X532318Y193682D01*
X558877Y220241D01*
X559398Y220920D01*
X559725Y221711D01*
X559837Y222559D01*
Y251303D01*
X560595Y252061D01*
X561259Y253211D01*
X561500Y254112D01*
X562000Y254046D01*
Y4000D01*
X421000D01*
Y348000D01*
X562000D01*
Y256269D01*
D02*
G37*
G36*
X411000Y3000D02*
X2000D01*
Y351000D01*
X411000D01*
Y3000D01*
D02*
G37*
%LPC*%
G36*
X551923Y344374D02*
X550077D01*
X548266Y344014D01*
X546560Y343307D01*
X545024Y342281D01*
X543719Y340976D01*
X542693Y339440D01*
X541986Y337734D01*
X541626Y335923D01*
Y334077D01*
X541986Y332266D01*
X542693Y330560D01*
X543719Y329024D01*
X545024Y327719D01*
X546560Y326693D01*
X548266Y325986D01*
X550077Y325626D01*
X551923D01*
X553734Y325986D01*
X555440Y326693D01*
X556976Y327719D01*
X558281Y329024D01*
X559307Y330560D01*
X560014Y332266D01*
X560374Y334077D01*
Y335923D01*
X560014Y337734D01*
X559307Y339440D01*
X558281Y340976D01*
X556976Y342281D01*
X555440Y343307D01*
X553734Y344014D01*
X551923Y344374D01*
D02*
G37*
G36*
X433923D02*
X432077D01*
X430266Y344014D01*
X428560Y343307D01*
X427024Y342281D01*
X425719Y340976D01*
X424693Y339440D01*
X423986Y337734D01*
X423626Y335923D01*
Y334077D01*
X423986Y332266D01*
X424693Y330560D01*
X425719Y329024D01*
X427024Y327719D01*
X428560Y326693D01*
X430266Y325986D01*
X432077Y325626D01*
X433923D01*
X435734Y325986D01*
X437440Y326693D01*
X438976Y327719D01*
X440281Y329024D01*
X441307Y330560D01*
X442014Y332266D01*
X442374Y334077D01*
Y335923D01*
X442014Y337734D01*
X441307Y339440D01*
X440281Y340976D01*
X438976Y342281D01*
X437440Y343307D01*
X435734Y344014D01*
X433923Y344374D01*
D02*
G37*
G36*
X489500Y330017D02*
X488778Y329824D01*
X488474Y329648D01*
X461874D01*
X461156Y329553D01*
X460487Y329276D01*
X459913Y328835D01*
X452118Y321041D01*
X451778Y320950D01*
X451056Y320533D01*
X450467Y319944D01*
X450050Y319222D01*
X449857Y318500D01*
X453000D01*
Y318000D01*
X453500D01*
Y314857D01*
X454222Y315050D01*
X454944Y315467D01*
X455533Y316056D01*
X455950Y316778D01*
X456041Y317118D01*
X463023Y324100D01*
X488474D01*
X488778Y323924D01*
X489500Y323731D01*
Y326874D01*
Y330017D01*
D02*
G37*
G36*
X493665Y322665D02*
X486335D01*
Y315335D01*
X493665D01*
Y322665D01*
D02*
G37*
G36*
X452500Y317500D02*
X449857D01*
X450050Y316778D01*
X450467Y316056D01*
X451056Y315467D01*
X451778Y315050D01*
X452500Y314857D01*
Y317500D01*
D02*
G37*
G36*
X470445Y321665D02*
X463114D01*
Y314335D01*
X470445D01*
Y321665D01*
D02*
G37*
G36*
Y283665D02*
X463114D01*
Y276335D01*
X470445D01*
Y283665D01*
D02*
G37*
G36*
X557157Y279386D02*
X557059D01*
Y275343D01*
X561102D01*
Y275441D01*
X560793Y276596D01*
X560194Y277632D01*
X559349Y278478D01*
X558313Y279076D01*
X557157Y279386D01*
D02*
G37*
G36*
X490500Y330017D02*
Y326874D01*
Y323731D01*
X491222Y323924D01*
X491527Y324100D01*
X503379D01*
X529021Y298458D01*
X528830Y297996D01*
X528138D01*
X526436Y297726D01*
X524797Y297194D01*
X523262Y296411D01*
X521867Y295398D01*
X520649Y294180D01*
X519636Y292786D01*
X518853Y291250D01*
X518321Y289611D01*
X518051Y287909D01*
Y286186D01*
X518321Y284483D01*
X518853Y282844D01*
X519636Y281309D01*
X520649Y279914D01*
X521867Y278696D01*
X523262Y277683D01*
X524797Y276901D01*
X526436Y276368D01*
X528138Y276098D01*
X529862D01*
X531564Y276368D01*
X533203Y276901D01*
X534738Y277683D01*
X536133Y278696D01*
X537351Y279914D01*
X538364Y281309D01*
X539147Y282844D01*
X539679Y284483D01*
X539949Y286186D01*
Y286877D01*
X540411Y287068D01*
X552021Y275459D01*
X552016Y275441D01*
Y275343D01*
X556059D01*
Y279386D01*
X555961D01*
X555943Y279381D01*
X506489Y328835D01*
X505914Y329276D01*
X505245Y329553D01*
X504528Y329648D01*
X491527D01*
X491222Y329824D01*
X490500Y330017D01*
D02*
G37*
G36*
X561102Y274343D02*
X557059D01*
Y270299D01*
X557157D01*
X558313Y270609D01*
X559349Y271207D01*
X560194Y272053D01*
X560793Y273089D01*
X561102Y274244D01*
Y274343D01*
D02*
G37*
G36*
X500136Y279886D02*
X498808D01*
X497526Y279542D01*
X496376Y278878D01*
X495437Y277939D01*
X494773Y276789D01*
X494429Y275507D01*
Y274179D01*
X494773Y272896D01*
X495437Y271746D01*
X496376Y270807D01*
X497526Y270143D01*
X498353Y269921D01*
Y269404D01*
X497719Y269234D01*
X496683Y268636D01*
X495837Y267790D01*
X495239Y266754D01*
X494929Y265598D01*
Y265500D01*
X499472D01*
Y264500D01*
X494929D01*
Y264402D01*
X495239Y263246D01*
X495837Y262210D01*
X496683Y261365D01*
X497719Y260766D01*
X498353Y260596D01*
Y260079D01*
X497526Y259857D01*
X496376Y259193D01*
X495437Y258254D01*
X494773Y257104D01*
X494429Y255821D01*
Y254493D01*
X494773Y253211D01*
X495437Y252061D01*
X496376Y251122D01*
X497526Y250458D01*
X498808Y250114D01*
X500136D01*
X501419Y250458D01*
X502569Y251122D01*
X503508Y252061D01*
X504172Y253211D01*
X504516Y254493D01*
Y255821D01*
X504172Y257104D01*
X503508Y258254D01*
X502569Y259193D01*
X501419Y259857D01*
X500592Y260079D01*
Y260596D01*
X501226Y260766D01*
X502262Y261365D01*
X503108Y262210D01*
X503117Y262226D01*
X546716D01*
X547434Y262321D01*
X548103Y262598D01*
X548678Y263039D01*
X555943Y270304D01*
X555961Y270299D01*
X556059D01*
Y274343D01*
X552016D01*
Y274244D01*
X552021Y274227D01*
X545568Y267774D01*
X503117D01*
X503108Y267790D01*
X502262Y268636D01*
X501226Y269234D01*
X500592Y269404D01*
Y269921D01*
X501419Y270143D01*
X502569Y270807D01*
X503508Y271746D01*
X504172Y272896D01*
X504516Y274179D01*
Y275507D01*
X504172Y276789D01*
X503508Y277939D01*
X502569Y278878D01*
X501419Y279542D01*
X500136Y279886D01*
D02*
G37*
G36*
X470445Y247665D02*
X463114D01*
Y240335D01*
X470445D01*
Y247665D01*
D02*
G37*
G36*
X529862Y253902D02*
X528138D01*
X526436Y253632D01*
X524797Y253099D01*
X523262Y252317D01*
X521867Y251304D01*
X520649Y250085D01*
X519636Y248691D01*
X518853Y247156D01*
X518321Y245517D01*
X518051Y243814D01*
Y242091D01*
X518321Y240389D01*
X518853Y238750D01*
X519636Y237214D01*
X520649Y235820D01*
X521867Y234601D01*
X523262Y233589D01*
X524797Y232806D01*
X526436Y232274D01*
X528138Y232004D01*
X529862D01*
X531564Y232274D01*
X533203Y232806D01*
X534738Y233589D01*
X536133Y234601D01*
X537351Y235820D01*
X538364Y237214D01*
X539147Y238750D01*
X539679Y240389D01*
X539949Y242091D01*
Y243814D01*
X539679Y245517D01*
X539147Y247156D01*
X538364Y248691D01*
X537351Y250085D01*
X536133Y251304D01*
X534738Y252317D01*
X533203Y253099D01*
X531564Y253632D01*
X529862Y253902D01*
D02*
G37*
G36*
X470665Y211665D02*
X463335D01*
Y204335D01*
X470665D01*
Y211665D01*
D02*
G37*
G36*
X453482Y247665D02*
X452518D01*
X451585Y247416D01*
X450749Y246933D01*
X450067Y246251D01*
X449584Y245415D01*
X449335Y244482D01*
Y243517D01*
X449584Y242585D01*
X449722Y242347D01*
Y221245D01*
X443682Y215206D01*
X443161Y214527D01*
X442834Y213736D01*
X442778Y213312D01*
X442722Y212888D01*
Y191050D01*
X442778Y190626D01*
X442834Y190202D01*
X443161Y189411D01*
X443682Y188732D01*
X445732Y186682D01*
X446411Y186161D01*
X447202Y185834D01*
X448050Y185722D01*
X453722D01*
Y177437D01*
X453201Y176915D01*
X452575Y175833D01*
X452252Y174625D01*
Y173375D01*
X452575Y172167D01*
X453201Y171085D01*
X454085Y170201D01*
X455167Y169576D01*
X456375Y169252D01*
X457625D01*
X458833Y169576D01*
X459915Y170201D01*
X460799Y171085D01*
X461424Y172167D01*
X461748Y173375D01*
Y174625D01*
X461424Y175833D01*
X460799Y176915D01*
X460278Y177437D01*
Y185722D01*
X478000D01*
X478848Y185834D01*
X479639Y186161D01*
X480318Y186682D01*
X480839Y187361D01*
X481166Y188152D01*
X481278Y189000D01*
X481166Y189848D01*
X480839Y190639D01*
X480318Y191318D01*
X479639Y191839D01*
X478848Y192166D01*
X478000Y192278D01*
X449408D01*
X449278Y192408D01*
Y206619D01*
X449778Y206685D01*
X449805Y206585D01*
X450287Y205749D01*
X450970Y205067D01*
X451806Y204584D01*
X452738Y204335D01*
X453703D01*
X454635Y204584D01*
X455471Y205067D01*
X456153Y205749D01*
X456636Y206585D01*
X456707Y206851D01*
X463578Y213722D01*
X472000D01*
X472848Y213834D01*
X473639Y214161D01*
X474318Y214682D01*
X474839Y215361D01*
X475166Y216152D01*
X475278Y217000D01*
X475166Y217848D01*
X474839Y218639D01*
X474318Y219318D01*
X473639Y219839D01*
X472848Y220166D01*
X472000Y220278D01*
X462220D01*
X461372Y220166D01*
X460581Y219839D01*
X459902Y219318D01*
X452071Y211487D01*
X451806Y211416D01*
X450970Y210933D01*
X450287Y210251D01*
X449805Y209415D01*
X449778Y209315D01*
X449278Y209381D01*
Y211530D01*
X455318Y217570D01*
X455839Y218249D01*
X456166Y219039D01*
X456278Y219888D01*
Y242347D01*
X456416Y242585D01*
X456665Y243517D01*
Y244482D01*
X456416Y245415D01*
X455933Y246251D01*
X455251Y246933D01*
X454415Y247416D01*
X453482Y247665D01*
D02*
G37*
G36*
X491748Y178748D02*
X482252D01*
Y169252D01*
X491748D01*
Y178748D01*
D02*
G37*
G36*
X477625D02*
X476375D01*
X475167Y178425D01*
X474085Y177799D01*
X473201Y176915D01*
X472576Y175833D01*
X472252Y174625D01*
Y173375D01*
X472576Y172167D01*
X473201Y171085D01*
X474085Y170201D01*
X475167Y169576D01*
X476375Y169252D01*
X477625D01*
X478833Y169576D01*
X479915Y170201D01*
X480799Y171085D01*
X481425Y172167D01*
X481748Y173375D01*
Y174625D01*
X481425Y175833D01*
X480799Y176915D01*
X479915Y177799D01*
X478833Y178425D01*
X477625Y178748D01*
D02*
G37*
G36*
X467625D02*
X466375D01*
X465167Y178425D01*
X464085Y177799D01*
X463201Y176915D01*
X462575Y175833D01*
X462252Y174625D01*
Y173375D01*
X462575Y172167D01*
X463201Y171085D01*
X464085Y170201D01*
X465167Y169576D01*
X466375Y169252D01*
X467625D01*
X468833Y169576D01*
X469915Y170201D01*
X470799Y171085D01*
X471424Y172167D01*
X471748Y173375D01*
Y174625D01*
X471424Y175833D01*
X470799Y176915D01*
X469915Y177799D01*
X468833Y178425D01*
X467625Y178748D01*
D02*
G37*
G36*
X447625D02*
X446375D01*
X445167Y178425D01*
X444085Y177799D01*
X443201Y176915D01*
X442576Y175833D01*
X442252Y174625D01*
Y173375D01*
X442576Y172167D01*
X443201Y171085D01*
X444085Y170201D01*
X445167Y169576D01*
X446375Y169252D01*
X447625D01*
X448833Y169576D01*
X449915Y170201D01*
X450799Y171085D01*
X451425Y172167D01*
X451748Y173375D01*
Y174625D01*
X451425Y175833D01*
X450799Y176915D01*
X449915Y177799D01*
X448833Y178425D01*
X447625Y178748D01*
D02*
G37*
G36*
X447559Y168248D02*
X447500D01*
Y164500D01*
X451248D01*
Y164559D01*
X450958Y165640D01*
X450399Y166608D01*
X449608Y167399D01*
X448640Y167958D01*
X447559Y168248D01*
D02*
G37*
G36*
X446500D02*
X446441D01*
X445360Y167958D01*
X444392Y167399D01*
X443601Y166608D01*
X443042Y165640D01*
X442752Y164559D01*
Y164500D01*
X446500D01*
Y168248D01*
D02*
G37*
G36*
X487625Y168748D02*
X486375D01*
X485167Y168424D01*
X484085Y167799D01*
X483201Y166915D01*
X482576Y165833D01*
X482252Y164625D01*
Y164370D01*
X482248Y164367D01*
X481748Y164625D01*
X481425Y165833D01*
X480799Y166915D01*
X479915Y167799D01*
X478833Y168424D01*
X477625Y168748D01*
X476375D01*
X475167Y168424D01*
X474085Y167799D01*
X473201Y166915D01*
X472576Y165833D01*
X472252Y164625D01*
Y164370D01*
X472248Y164367D01*
X471748Y164625D01*
X471424Y165833D01*
X470799Y166915D01*
X469915Y167799D01*
X468833Y168424D01*
X467625Y168748D01*
X466375D01*
X465167Y168424D01*
X464085Y167799D01*
X463201Y166915D01*
X462575Y165833D01*
X462252Y164625D01*
Y163375D01*
X462575Y162167D01*
X463201Y161085D01*
X464085Y160201D01*
X465167Y159575D01*
X466375Y159252D01*
X466963D01*
X467154Y158790D01*
X453642Y145278D01*
X428050D01*
X427202Y145166D01*
X426411Y144839D01*
X425732Y144318D01*
X423682Y142268D01*
X423161Y141589D01*
X422834Y140798D01*
X422778Y140374D01*
X422722Y139950D01*
Y101902D01*
X422778Y101478D01*
X422834Y101054D01*
X423161Y100263D01*
X423682Y99584D01*
X429584Y93682D01*
X430263Y93161D01*
X431054Y92834D01*
X431902Y92722D01*
X470000D01*
X470848Y92834D01*
X471361Y93046D01*
X471680Y93117D01*
X471982Y92794D01*
X472161Y92361D01*
X472682Y91682D01*
X473361Y91161D01*
X474152Y90834D01*
X475000Y90722D01*
X475848Y90834D01*
X476639Y91161D01*
X477318Y91682D01*
X477839Y92361D01*
X478166Y93152D01*
X478278Y94000D01*
Y99000D01*
X478166Y99848D01*
X477839Y100639D01*
X477318Y101318D01*
X474871Y103764D01*
X475063Y104226D01*
X505814D01*
X506064Y103793D01*
X505988Y103662D01*
X505695Y102567D01*
Y101433D01*
X505945Y100500D01*
X505666Y100000D01*
X505605D01*
X504842Y99796D01*
X504158Y99401D01*
X503599Y98842D01*
X503204Y98158D01*
X503000Y97395D01*
Y96605D01*
X503204Y95842D01*
X503599Y95158D01*
X504158Y94599D01*
X504842Y94204D01*
X505605Y94000D01*
X505666D01*
X505945Y93500D01*
X505695Y92567D01*
Y91433D01*
X505988Y90338D01*
X506064Y90207D01*
X505814Y89774D01*
X497050D01*
X496332Y89679D01*
X495663Y89402D01*
X495089Y88961D01*
X493039Y86911D01*
X492598Y86337D01*
X492321Y85668D01*
X492226Y84950D01*
Y80199D01*
X490801Y78774D01*
X458180D01*
X458142Y78796D01*
X457379Y79000D01*
X456589D01*
X455826Y78796D01*
X455142Y78401D01*
X454584Y77842D01*
X454189Y77158D01*
X453984Y76395D01*
Y75605D01*
X454189Y74842D01*
X454584Y74158D01*
X455142Y73599D01*
X455826Y73204D01*
X456589Y73000D01*
X457000D01*
Y72605D01*
X457204Y71842D01*
X457599Y71158D01*
X458158Y70599D01*
X458842Y70204D01*
X459605Y70000D01*
X460395D01*
X461158Y70204D01*
X461196Y70226D01*
X497000D01*
X497718Y70321D01*
X498387Y70598D01*
X498961Y71039D01*
X501729Y73807D01*
X505517D01*
X505893Y73307D01*
X505695Y72567D01*
Y71433D01*
X505988Y70338D01*
X506555Y69357D01*
X507357Y68555D01*
X508338Y67988D01*
X509433Y67695D01*
X510567D01*
X511662Y67988D01*
X512643Y68555D01*
X513445Y69357D01*
X514012Y70338D01*
X514305Y71433D01*
Y72567D01*
X514107Y73307D01*
X514483Y73807D01*
X514730D01*
X514920Y73728D01*
X515638Y73634D01*
X521804D01*
X521842Y73612D01*
X522605Y73407D01*
X523395D01*
X524158Y73612D01*
X524842Y74007D01*
X525401Y74565D01*
X525796Y75249D01*
X526000Y76012D01*
Y76802D01*
X525796Y77565D01*
X525401Y78249D01*
X524842Y78808D01*
X524158Y79203D01*
X523395Y79407D01*
X522605D01*
X521842Y79203D01*
X521804Y79181D01*
X516373D01*
X516183Y79260D01*
X515465Y79354D01*
X514021D01*
X513732Y79854D01*
X514012Y80338D01*
X514305Y81433D01*
Y82567D01*
X514235Y82830D01*
X514539Y83226D01*
X514804D01*
X514842Y83204D01*
X515605Y83000D01*
X516395D01*
X517158Y83204D01*
X517842Y83599D01*
X518401Y84158D01*
X518796Y84842D01*
X519000Y85605D01*
Y86395D01*
X518796Y87158D01*
X518401Y87842D01*
X517842Y88401D01*
X517158Y88796D01*
X516395Y89000D01*
X515605D01*
X514842Y88796D01*
X514804Y88774D01*
X513627D01*
X513598Y88802D01*
X513445Y89357D01*
X514012Y90338D01*
X514305Y91433D01*
Y92567D01*
X514012Y93662D01*
X513936Y93793D01*
X514186Y94226D01*
X531851D01*
X536039Y90039D01*
X536613Y89598D01*
X537282Y89321D01*
X538000Y89226D01*
X546685D01*
X547357Y88555D01*
X548338Y87988D01*
X549433Y87695D01*
X550567D01*
X551662Y87988D01*
X552643Y88555D01*
X553445Y89357D01*
X554012Y90338D01*
X554305Y91433D01*
Y92567D01*
X554012Y93662D01*
X553445Y94643D01*
X552643Y95445D01*
X551662Y96012D01*
X550567Y96305D01*
X549433D01*
X548338Y96012D01*
X547357Y95445D01*
X546685Y94774D01*
X539149D01*
X534961Y98961D01*
X534387Y99402D01*
X533718Y99679D01*
X533000Y99774D01*
X514186D01*
X513936Y100207D01*
X514012Y100338D01*
X514305Y101433D01*
Y102567D01*
X514012Y103662D01*
X513936Y103793D01*
X514186Y104226D01*
X532536D01*
X533253Y104321D01*
X533922Y104598D01*
X534497Y105039D01*
X542932Y113473D01*
X543372Y114048D01*
X543649Y114717D01*
X543744Y115435D01*
Y121821D01*
X545429Y123506D01*
X545877Y123248D01*
X545695Y122567D01*
Y121433D01*
X545988Y120338D01*
X546555Y119357D01*
X547357Y118555D01*
X548338Y117988D01*
X549433Y117695D01*
X550567D01*
X551662Y117988D01*
X552643Y118555D01*
X553445Y119357D01*
X554012Y120338D01*
X554305Y121433D01*
Y122567D01*
X554012Y123662D01*
X553445Y124643D01*
X552643Y125445D01*
X551662Y126012D01*
X550567Y126305D01*
X549433D01*
X548752Y126123D01*
X548494Y126571D01*
X549617Y127695D01*
X550567D01*
X551662Y127988D01*
X552643Y128555D01*
X553445Y129357D01*
X554012Y130338D01*
X554305Y131433D01*
Y132567D01*
X554012Y133662D01*
X553445Y134643D01*
X552643Y135445D01*
X551662Y136012D01*
X550567Y136305D01*
X549433D01*
X548338Y136012D01*
X547357Y135445D01*
X546555Y134643D01*
X545988Y133662D01*
X545695Y132567D01*
Y131617D01*
X539009Y124932D01*
X538568Y124357D01*
X538291Y123688D01*
X538197Y122970D01*
Y116584D01*
X531387Y109774D01*
X514186D01*
X513936Y110207D01*
X514012Y110338D01*
X514305Y111433D01*
Y112567D01*
X514235Y112830D01*
X514539Y113226D01*
X527804D01*
X527842Y113204D01*
X528605Y113000D01*
X529395D01*
X530158Y113204D01*
X530842Y113599D01*
X531401Y114158D01*
X531796Y114842D01*
X532000Y115605D01*
Y116395D01*
X531796Y117158D01*
X531401Y117842D01*
X530842Y118401D01*
X530158Y118796D01*
X529395Y119000D01*
X528605D01*
X527842Y118796D01*
X527804Y118774D01*
X514149D01*
X513961Y118961D01*
X513445Y119357D01*
X514012Y120338D01*
X514305Y121433D01*
Y122567D01*
X514130Y123222D01*
X514513Y123722D01*
X529000D01*
X529848Y123834D01*
X530639Y124161D01*
X531318Y124682D01*
X531839Y125361D01*
X532166Y126152D01*
X532278Y127000D01*
X532166Y127848D01*
X531839Y128639D01*
X531318Y129318D01*
X530639Y129839D01*
X529848Y130166D01*
X529000Y130278D01*
X514513D01*
X514130Y130778D01*
X514305Y131433D01*
Y132567D01*
X514012Y133662D01*
X513445Y134643D01*
X512643Y135445D01*
X511662Y136012D01*
X510567Y136305D01*
X509433D01*
X508338Y136012D01*
X507357Y135445D01*
X506555Y134643D01*
X505988Y133662D01*
X505695Y132567D01*
Y131433D01*
X505870Y130778D01*
X505487Y130278D01*
X488854D01*
X488663Y130740D01*
X503149Y145226D01*
X505695D01*
Y137695D01*
X514305D01*
Y145226D01*
X520000D01*
X520718Y145321D01*
X521387Y145598D01*
X521961Y146039D01*
X522402Y146613D01*
X522590Y147067D01*
X523141Y147223D01*
X530682Y139682D01*
X531361Y139161D01*
X532152Y138834D01*
X533000Y138722D01*
X547190D01*
X547357Y138555D01*
X548338Y137988D01*
X549433Y137695D01*
X550567D01*
X551662Y137988D01*
X552643Y138555D01*
X553445Y139357D01*
X554012Y140338D01*
X554305Y141433D01*
Y142567D01*
X554012Y143662D01*
X553445Y144643D01*
X552643Y145445D01*
X551662Y146012D01*
X550567Y146305D01*
X549433D01*
X548338Y146012D01*
X547357Y145445D01*
X547190Y145278D01*
X534358D01*
X525318Y154318D01*
X524639Y154839D01*
X523848Y155166D01*
X523424Y155222D01*
X523000Y155278D01*
X486000D01*
X485576Y155222D01*
X485152Y155166D01*
X484361Y154839D01*
X483682Y154318D01*
X472682Y143318D01*
X472161Y142639D01*
X471834Y141848D01*
X471778Y141424D01*
X471722Y141000D01*
Y128000D01*
X471834Y127152D01*
X472161Y126361D01*
X472682Y125682D01*
X473361Y125161D01*
X474152Y124834D01*
X475000Y124722D01*
X475848Y124834D01*
X476639Y125161D01*
X476720Y125223D01*
X477368Y125091D01*
X477682Y124682D01*
X478361Y124161D01*
X479152Y123834D01*
X480000Y123722D01*
X505487D01*
X505870Y123222D01*
X505695Y122567D01*
Y121433D01*
X505988Y120338D01*
X506064Y120207D01*
X505814Y119774D01*
X498490D01*
X497926Y119848D01*
X493074D01*
X492356Y119754D01*
X491687Y119476D01*
X491113Y119036D01*
X486851Y114774D01*
X471196D01*
X471158Y114796D01*
X470395Y115000D01*
X469605D01*
X468842Y114796D01*
X468158Y114401D01*
X467599Y113842D01*
X467204Y113158D01*
X467000Y112395D01*
Y111605D01*
X467204Y110842D01*
X467532Y110274D01*
X467341Y109774D01*
X455149D01*
X452807Y112116D01*
X452796Y112158D01*
X452401Y112842D01*
X451842Y113401D01*
X451158Y113796D01*
X450395Y114000D01*
X449605D01*
X448842Y113796D01*
X448158Y113401D01*
X447599Y112842D01*
X447204Y112158D01*
X447000Y111395D01*
Y110605D01*
X447204Y109842D01*
X447599Y109158D01*
X448158Y108599D01*
X448842Y108204D01*
X448884Y108193D01*
X450337Y106740D01*
X450146Y106278D01*
X435408D01*
X435278Y106408D01*
Y126642D01*
X441358Y132722D01*
X459000D01*
X459424Y132778D01*
X459848Y132834D01*
X460639Y133161D01*
X461318Y133682D01*
X486888Y159252D01*
X487625D01*
X488833Y159575D01*
X489915Y160201D01*
X490799Y161085D01*
X491425Y162167D01*
X491748Y163375D01*
Y164625D01*
X491425Y165833D01*
X490799Y166915D01*
X489915Y167799D01*
X488833Y168424D01*
X487625Y168748D01*
D02*
G37*
G36*
X451248Y163500D02*
X447500D01*
Y159752D01*
X447559D01*
X448640Y160041D01*
X449608Y160601D01*
X450399Y161392D01*
X450958Y162360D01*
X451248Y163441D01*
Y163500D01*
D02*
G37*
G36*
X446500D02*
X442752D01*
Y163441D01*
X443042Y162360D01*
X443601Y161392D01*
X444392Y160601D01*
X445360Y160041D01*
X446441Y159752D01*
X446500D01*
Y163500D01*
D02*
G37*
G36*
X457625Y168748D02*
X456375D01*
X455167Y168424D01*
X454085Y167799D01*
X453201Y166915D01*
X452575Y165833D01*
X452252Y164625D01*
Y163375D01*
X452575Y162167D01*
X453201Y161085D01*
X454085Y160201D01*
X455167Y159575D01*
X456375Y159252D01*
X457625D01*
X458833Y159575D01*
X459915Y160201D01*
X460799Y161085D01*
X461424Y162167D01*
X461748Y163375D01*
Y164625D01*
X461424Y165833D01*
X460799Y166915D01*
X459915Y167799D01*
X458833Y168424D01*
X457625Y168748D01*
D02*
G37*
G36*
X550567Y116305D02*
X549433D01*
X548338Y116012D01*
X547357Y115445D01*
X546555Y114643D01*
X545988Y113662D01*
X545695Y112567D01*
Y111433D01*
X545988Y110338D01*
X546555Y109357D01*
X547357Y108555D01*
X548338Y107988D01*
X549433Y107695D01*
X550567D01*
X551662Y107988D01*
X552643Y108555D01*
X553445Y109357D01*
X554012Y110338D01*
X554305Y111433D01*
Y112567D01*
X554012Y113662D01*
X553445Y114643D01*
X552643Y115445D01*
X551662Y116012D01*
X550567Y116305D01*
D02*
G37*
G36*
Y106305D02*
X549433D01*
X548338Y106012D01*
X547357Y105445D01*
X546555Y104643D01*
X545988Y103662D01*
X545695Y102567D01*
Y101433D01*
X545988Y100338D01*
X546555Y99357D01*
X547357Y98555D01*
X548338Y97988D01*
X549433Y97695D01*
X550567D01*
X551662Y97988D01*
X552643Y98555D01*
X553445Y99357D01*
X554012Y100338D01*
X554305Y101433D01*
Y102567D01*
X554012Y103662D01*
X553445Y104643D01*
X552643Y105445D01*
X551662Y106012D01*
X550567Y106305D01*
D02*
G37*
G36*
Y86305D02*
X549433D01*
X548338Y86012D01*
X547357Y85445D01*
X546555Y84643D01*
X545988Y83662D01*
X545695Y82567D01*
Y81433D01*
X545988Y80338D01*
X546555Y79357D01*
X547357Y78555D01*
X548338Y77988D01*
X549433Y77695D01*
X550567D01*
X551662Y77988D01*
X552643Y78555D01*
X553445Y79357D01*
X554012Y80338D01*
X554305Y81433D01*
Y82567D01*
X554012Y83662D01*
X553445Y84643D01*
X552643Y85445D01*
X551662Y86012D01*
X550567Y86305D01*
D02*
G37*
G36*
Y76305D02*
X549433D01*
X548338Y76012D01*
X547357Y75445D01*
X546555Y74643D01*
X545988Y73662D01*
X545695Y72567D01*
Y71433D01*
X545988Y70338D01*
X546555Y69357D01*
X547357Y68555D01*
X548338Y67988D01*
X549433Y67695D01*
X550567D01*
X551662Y67988D01*
X552643Y68555D01*
X553445Y69357D01*
X554012Y70338D01*
X554305Y71433D01*
Y72567D01*
X554012Y73662D01*
X553445Y74643D01*
X552643Y75445D01*
X551662Y76012D01*
X550567Y76305D01*
D02*
G37*
G36*
X551923Y23374D02*
X550077D01*
X548266Y23014D01*
X546560Y22307D01*
X545024Y21281D01*
X543719Y19976D01*
X542693Y18440D01*
X541986Y16734D01*
X541626Y14923D01*
Y13077D01*
X541986Y11266D01*
X542693Y9560D01*
X543719Y8024D01*
X545024Y6719D01*
X546560Y5693D01*
X548266Y4986D01*
X550077Y4626D01*
X551923D01*
X553734Y4986D01*
X555440Y5693D01*
X556976Y6719D01*
X558281Y8024D01*
X559307Y9560D01*
X560014Y11266D01*
X560374Y13077D01*
Y14923D01*
X560014Y16734D01*
X559307Y18440D01*
X558281Y19976D01*
X556976Y21281D01*
X555440Y22307D01*
X553734Y23014D01*
X551923Y23374D01*
D02*
G37*
G36*
X433923D02*
X432077D01*
X430266Y23014D01*
X428560Y22307D01*
X427024Y21281D01*
X425719Y19976D01*
X424693Y18440D01*
X423986Y16734D01*
X423626Y14923D01*
Y13077D01*
X423986Y11266D01*
X424693Y9560D01*
X425719Y8024D01*
X427024Y6719D01*
X428560Y5693D01*
X430266Y4986D01*
X432077Y4626D01*
X433923D01*
X435734Y4986D01*
X437440Y5693D01*
X438976Y6719D01*
X440281Y8024D01*
X441307Y9560D01*
X442014Y11266D01*
X442374Y13077D01*
Y14923D01*
X442014Y16734D01*
X441307Y18440D01*
X440281Y19976D01*
X438976Y21281D01*
X437440Y22307D01*
X435734Y23014D01*
X433923Y23374D01*
D02*
G37*
%LPD*%
G36*
X437586Y138222D02*
X429778Y130414D01*
X429278Y130550D01*
Y138592D01*
X429408Y138722D01*
X437450D01*
X437586Y138222D01*
D02*
G37*
G36*
X498337Y148260D02*
X483039Y132961D01*
X482598Y132387D01*
X482321Y131718D01*
X482226Y131000D01*
X482256Y130778D01*
X481817Y130278D01*
X480000D01*
X479152Y130166D01*
X478778Y130012D01*
X478278Y130346D01*
Y139642D01*
X487358Y148722D01*
X498146D01*
X498337Y148260D01*
D02*
G37*
G36*
X498000Y114226D02*
X505814D01*
X506064Y113793D01*
X505988Y113662D01*
X505695Y112567D01*
Y111433D01*
X505988Y110338D01*
X506064Y110207D01*
X505814Y109774D01*
X490404D01*
X490196Y110274D01*
X494223Y114301D01*
X497436D01*
X498000Y114226D01*
D02*
G37*
%LPC*%
G36*
X174559Y336248D02*
X174500D01*
Y332500D01*
X178248D01*
Y332559D01*
X177959Y333640D01*
X177399Y334608D01*
X176608Y335399D01*
X175640Y335959D01*
X174559Y336248D01*
D02*
G37*
G36*
X214625Y336748D02*
X213375D01*
X212167Y336424D01*
X211085Y335799D01*
X210201Y334915D01*
X209576Y333833D01*
X209252Y332625D01*
Y331697D01*
X208752Y331471D01*
X208748Y331474D01*
Y332625D01*
X208424Y333833D01*
X207799Y334915D01*
X206915Y335799D01*
X205833Y336424D01*
X204625Y336748D01*
X203375D01*
X202167Y336424D01*
X201085Y335799D01*
X200201Y334915D01*
X199575Y333833D01*
X199252Y332625D01*
Y331375D01*
X199575Y330167D01*
X200201Y329085D01*
X201085Y328201D01*
X202167Y327575D01*
X202868Y327388D01*
X202993Y327163D01*
X202746Y326580D01*
X202167Y326425D01*
X201085Y325799D01*
X200201Y324915D01*
X199575Y323833D01*
X199252Y322625D01*
Y321375D01*
X199575Y320167D01*
X200201Y319085D01*
X201085Y318201D01*
X202167Y317576D01*
X203375Y317252D01*
X204625D01*
X205703Y317541D01*
X206203Y317277D01*
Y316693D01*
X206161Y316639D01*
X205834Y315848D01*
X205722Y315000D01*
Y310374D01*
X205778Y309950D01*
X205834Y309526D01*
X206161Y308735D01*
X206682Y308056D01*
X215203Y299535D01*
X214944Y299087D01*
X214504Y299205D01*
X213496D01*
X212521Y298944D01*
X211648Y298439D01*
X210935Y297726D01*
X210430Y296853D01*
X210169Y295878D01*
Y294870D01*
X210329Y294274D01*
X209945Y293774D01*
X208055D01*
X207671Y294274D01*
X207831Y294870D01*
Y295878D01*
X207570Y296853D01*
X207065Y297726D01*
X206352Y298439D01*
X205479Y298944D01*
X204504Y299205D01*
X203496D01*
X202521Y298944D01*
X201648Y298439D01*
X200935Y297726D01*
X200430Y296853D01*
X200169Y295878D01*
Y294870D01*
X200329Y294274D01*
X199945Y293774D01*
X198055D01*
X197671Y294274D01*
X197831Y294870D01*
Y295878D01*
X197570Y296853D01*
X197065Y297726D01*
X196352Y298439D01*
X195479Y298944D01*
X194504Y299205D01*
X193496D01*
X192521Y298944D01*
X191648Y298439D01*
X190935Y297726D01*
X190430Y296853D01*
X190169Y295878D01*
Y294870D01*
X190329Y294274D01*
X189945Y293774D01*
X188055D01*
X187671Y294274D01*
X187831Y294870D01*
Y295878D01*
X187570Y296853D01*
X187065Y297726D01*
X186352Y298439D01*
X185479Y298944D01*
X184504Y299205D01*
X183496D01*
X182521Y298944D01*
X181648Y298439D01*
X180935Y297726D01*
X180430Y296853D01*
X180169Y295878D01*
Y294870D01*
X180329Y294274D01*
X179945Y293774D01*
X178055D01*
X177671Y294274D01*
X177831Y294870D01*
Y295878D01*
X177570Y296853D01*
X177065Y297726D01*
X176352Y298439D01*
X175479Y298944D01*
X174504Y299205D01*
X173496D01*
X172521Y298944D01*
X171648Y298439D01*
X171274Y298065D01*
X170774Y298272D01*
Y317847D01*
X171274Y318092D01*
X172167Y317576D01*
X173375Y317252D01*
X174625D01*
X175833Y317576D01*
X176915Y318201D01*
X177799Y319085D01*
X178425Y320167D01*
X178748Y321375D01*
Y322625D01*
X178425Y323833D01*
X177799Y324915D01*
X176915Y325799D01*
X175833Y326425D01*
X174625Y326748D01*
X173375D01*
X172167Y326425D01*
X171274Y325908D01*
X170774Y326153D01*
Y328565D01*
X171236Y328757D01*
X171392Y328601D01*
X172360Y328042D01*
X173441Y327752D01*
X173500D01*
Y332000D01*
Y336248D01*
X173441D01*
X172360Y335959D01*
X171392Y335399D01*
X170766Y334774D01*
X169464D01*
X168746Y334679D01*
X168078Y334402D01*
X167503Y333961D01*
X166039Y332497D01*
X165598Y331923D01*
X165321Y331254D01*
X165226Y330536D01*
Y293464D01*
X165321Y292746D01*
X165598Y292077D01*
X166039Y291503D01*
X168503Y289039D01*
X169078Y288598D01*
X169746Y288321D01*
X170464Y288226D01*
X221612D01*
X221858Y287726D01*
X221598Y287387D01*
X221321Y286718D01*
X221226Y286000D01*
Y236483D01*
X220896Y235912D01*
X220725Y235274D01*
X217530Y232079D01*
X217130Y232386D01*
X217570Y233147D01*
X217831Y234122D01*
Y235130D01*
X217570Y236105D01*
X217065Y236978D01*
X216352Y237691D01*
X215479Y238196D01*
X214504Y238457D01*
X213496D01*
X212521Y238196D01*
X211648Y237691D01*
X210935Y236978D01*
X210430Y236105D01*
X210169Y235130D01*
Y234122D01*
X210430Y233147D01*
X210935Y232274D01*
X211648Y231561D01*
X212521Y231056D01*
X213496Y230795D01*
X214504D01*
X215479Y231056D01*
X216240Y231496D01*
X216547Y231096D01*
X212225Y226774D01*
X195236D01*
Y227362D01*
X192374D01*
Y224000D01*
Y220638D01*
X195236D01*
Y221226D01*
X213374D01*
X214092Y221321D01*
X214761Y221598D01*
X215335Y222039D01*
X224648Y231351D01*
X225286Y231522D01*
X226045Y231961D01*
X226665Y232581D01*
X227104Y233340D01*
X227314Y234126D01*
X224000D01*
Y235126D01*
X227314D01*
X227104Y235912D01*
X226774Y236483D01*
Y284851D01*
X230149Y288226D01*
X249626D01*
X250344Y288321D01*
X251013Y288598D01*
X251587Y289039D01*
X252313Y289764D01*
X286039Y256039D01*
X286613Y255598D01*
X287282Y255321D01*
X288000Y255226D01*
X316851D01*
X333186Y238891D01*
X333036Y238334D01*
X332521Y238196D01*
X331648Y237691D01*
X330935Y236978D01*
X330430Y236105D01*
X330169Y235130D01*
Y234122D01*
X330430Y233147D01*
X330935Y232274D01*
X331648Y231561D01*
X332521Y231056D01*
X333496Y230795D01*
X334504D01*
X335479Y231056D01*
X336352Y231561D01*
X337065Y232274D01*
X337570Y233147D01*
X337708Y233663D01*
X338265Y233812D01*
X339413Y232665D01*
X339987Y232224D01*
X340656Y231947D01*
X341374Y231852D01*
X342143D01*
X342714Y231522D01*
X343500Y231312D01*
Y234626D01*
X344500D01*
Y231312D01*
X344521Y231317D01*
X344940Y231096D01*
X345267Y230305D01*
X345267Y230305D01*
X345267Y230305D01*
X345530Y229963D01*
X345788Y229626D01*
X348732Y226682D01*
X348732Y226682D01*
X348732Y226682D01*
X349411Y226161D01*
X349411Y226161D01*
X349411Y226161D01*
X349783Y226007D01*
X350202Y225834D01*
X350202Y225834D01*
X351050Y225722D01*
X351050Y225722D01*
X351050Y225722D01*
X368768D01*
X380335Y214156D01*
Y211461D01*
X387665D01*
Y218791D01*
X384970D01*
X384390Y219372D01*
X384588Y219881D01*
X385222Y220050D01*
X385944Y220467D01*
X386533Y221056D01*
X386950Y221778D01*
X387143Y222500D01*
X384000D01*
Y223000D01*
X383500D01*
Y226143D01*
X382778Y225950D01*
X382056Y225533D01*
X381467Y224944D01*
X381050Y224222D01*
X380881Y223588D01*
X380372Y223390D01*
X372444Y231318D01*
X371765Y231839D01*
X370974Y232166D01*
X370550Y232222D01*
X370126Y232278D01*
X367568D01*
X367318Y232711D01*
X367570Y233147D01*
X367831Y234122D01*
Y235130D01*
X367570Y236105D01*
X367065Y236978D01*
X366352Y237691D01*
X365479Y238196D01*
X364504Y238457D01*
X363496D01*
X362521Y238196D01*
X361648Y237691D01*
X360935Y236978D01*
X360430Y236105D01*
X360169Y235130D01*
Y234122D01*
X360430Y233147D01*
X360682Y232711D01*
X360432Y232278D01*
X357568D01*
X357318Y232711D01*
X357570Y233147D01*
X357831Y234122D01*
Y235130D01*
X357570Y236105D01*
X357065Y236978D01*
X356352Y237691D01*
X355479Y238196D01*
X354504Y238457D01*
X353496D01*
X352521Y238196D01*
X351648Y237691D01*
X351543Y237586D01*
X351024Y237775D01*
X350945Y237966D01*
X350424Y238645D01*
X321011Y268057D01*
X320333Y268578D01*
X319542Y268905D01*
X318694Y269017D01*
X289619D01*
X267278Y291358D01*
Y293390D01*
X267570Y293895D01*
X267831Y294870D01*
Y295878D01*
X267603Y296726D01*
X267865Y297226D01*
X270135D01*
X270396Y296726D01*
X270169Y295878D01*
Y294870D01*
X270430Y293895D01*
X270935Y293022D01*
X271648Y292309D01*
X272521Y291804D01*
X273496Y291543D01*
X274504D01*
X275479Y291804D01*
X275865Y292027D01*
X276260Y291832D01*
X276332Y291720D01*
X276598Y291077D01*
X277039Y290503D01*
X278503Y289039D01*
X279078Y288598D01*
X279747Y288321D01*
X280464Y288226D01*
X317536D01*
X318253Y288321D01*
X318922Y288598D01*
X319497Y289039D01*
X320961Y290503D01*
X321402Y291077D01*
X321668Y291720D01*
X321740Y291832D01*
X322135Y292027D01*
X322521Y291804D01*
X323496Y291543D01*
X324504D01*
X325479Y291804D01*
X326352Y292309D01*
X327065Y293022D01*
X327570Y293895D01*
X327831Y294870D01*
Y295878D01*
X327570Y296853D01*
X327065Y297726D01*
X326352Y298439D01*
X325479Y298944D01*
X324504Y299205D01*
X323496D01*
X322521Y298944D01*
X322207Y298762D01*
X321774Y299012D01*
Y301851D01*
X323500Y303577D01*
Y307500D01*
X319577D01*
X317039Y304961D01*
X316598Y304387D01*
X316321Y303718D01*
X316226Y303000D01*
Y299012D01*
X315793Y298762D01*
X315479Y298944D01*
X314504Y299205D01*
X313496D01*
X312521Y298944D01*
X311648Y298439D01*
X310935Y297726D01*
X310430Y296853D01*
X310169Y295878D01*
Y294870D01*
X310329Y294274D01*
X309945Y293774D01*
X308055D01*
X307671Y294274D01*
X307831Y294870D01*
Y295878D01*
X307570Y296853D01*
X307065Y297726D01*
X306352Y298439D01*
X305479Y298944D01*
X304504Y299205D01*
X303496D01*
X302521Y298944D01*
X301648Y298439D01*
X300935Y297726D01*
X300430Y296853D01*
X300169Y295878D01*
Y294870D01*
X300329Y294274D01*
X299945Y293774D01*
X298055D01*
X297671Y294274D01*
X297831Y294870D01*
Y295878D01*
X297570Y296853D01*
X297065Y297726D01*
X296352Y298439D01*
X295479Y298944D01*
X294915Y299095D01*
X288211Y305798D01*
X288424Y306167D01*
X288748Y307375D01*
Y308625D01*
X288424Y309833D01*
X287799Y310915D01*
X286915Y311799D01*
X285833Y312424D01*
X284625Y312748D01*
X283375D01*
X282167Y312424D01*
X281085Y311799D01*
X280201Y310915D01*
X279575Y309833D01*
X279252Y308625D01*
Y307378D01*
X279164Y307290D01*
X278827Y307096D01*
X278423Y307500D01*
X274500D01*
Y303577D01*
X274842Y303236D01*
X274650Y302774D01*
X259211D01*
X258493Y302679D01*
X257824Y302402D01*
X257249Y301961D01*
X253993Y298705D01*
X253561D01*
X252714Y298478D01*
X251955Y298039D01*
X251335Y297419D01*
X250896Y296660D01*
X250726Y296022D01*
X248521Y293818D01*
X248004Y293839D01*
X247671Y294274D01*
X247831Y294870D01*
Y295878D01*
X247570Y296853D01*
X247065Y297726D01*
X246352Y298439D01*
X245479Y298944D01*
X244504Y299205D01*
X243496D01*
X242521Y298944D01*
X241648Y298439D01*
X240935Y297726D01*
X240430Y296853D01*
X240169Y295878D01*
Y294870D01*
X240329Y294274D01*
X239945Y293774D01*
X238055D01*
X237671Y294274D01*
X237831Y294870D01*
Y295878D01*
X237570Y296853D01*
X237065Y297726D01*
X236352Y298439D01*
X235479Y298944D01*
X234504Y299205D01*
X233496D01*
X232521Y298944D01*
X232196Y298756D01*
X232122Y298799D01*
X231763Y299083D01*
X231679Y299718D01*
X231402Y300387D01*
X230961Y300961D01*
X230451Y301471D01*
Y304949D01*
X230599Y305500D01*
X227252D01*
X223905D01*
X224119Y304702D01*
X224562Y303936D01*
X224904Y303593D01*
Y300322D01*
X224981Y299736D01*
X224584Y299487D01*
X224536Y299473D01*
X212278Y311732D01*
Y315000D01*
X212166Y315848D01*
X211839Y316639D01*
X211750Y316754D01*
Y317252D01*
X218748D01*
Y326748D01*
X212529D01*
X212419Y326991D01*
X212777Y327412D01*
X213375Y327252D01*
X214625D01*
X215833Y327575D01*
X216915Y328201D01*
X217799Y329085D01*
X218425Y330167D01*
X218748Y331375D01*
Y332625D01*
X218425Y333833D01*
X217799Y334915D01*
X216915Y335799D01*
X215833Y336424D01*
X214625Y336748D01*
D02*
G37*
G36*
X178248Y331500D02*
X174500D01*
Y327752D01*
X174559D01*
X175640Y328042D01*
X176608Y328601D01*
X177399Y329392D01*
X177959Y330360D01*
X178248Y331441D01*
Y331500D01*
D02*
G37*
G36*
X194625Y336748D02*
X193375D01*
X192167Y336424D01*
X191085Y335799D01*
X190201Y334915D01*
X189576Y333833D01*
X189252Y332625D01*
Y331375D01*
X189576Y330167D01*
X190201Y329085D01*
X191085Y328201D01*
X192167Y327575D01*
X193375Y327252D01*
X194625D01*
X195833Y327575D01*
X196915Y328201D01*
X197799Y329085D01*
X198424Y330167D01*
X198748Y331375D01*
Y332625D01*
X198424Y333833D01*
X197799Y334915D01*
X196915Y335799D01*
X195833Y336424D01*
X194625Y336748D01*
D02*
G37*
G36*
X184625D02*
X183375D01*
X182167Y336424D01*
X181085Y335799D01*
X180201Y334915D01*
X179576Y333833D01*
X179252Y332625D01*
Y331375D01*
X179576Y330167D01*
X180201Y329085D01*
X181085Y328201D01*
X182167Y327575D01*
X183375Y327252D01*
X184625D01*
X185833Y327575D01*
X186915Y328201D01*
X187799Y329085D01*
X188425Y330167D01*
X188748Y331375D01*
Y332625D01*
X188425Y333833D01*
X187799Y334915D01*
X186915Y335799D01*
X185833Y336424D01*
X184625Y336748D01*
D02*
G37*
G36*
X324923Y342374D02*
X323077D01*
X321266Y342014D01*
X319560Y341307D01*
X318024Y340281D01*
X316719Y338976D01*
X315693Y337440D01*
X314986Y335734D01*
X314626Y333923D01*
Y332077D01*
X314986Y330266D01*
X315693Y328560D01*
X316719Y327024D01*
X318024Y325719D01*
X319560Y324693D01*
X321266Y323986D01*
X323077Y323626D01*
X324923D01*
X326734Y323986D01*
X328440Y324693D01*
X329976Y325719D01*
X331281Y327024D01*
X332307Y328560D01*
X333014Y330266D01*
X333374Y332077D01*
Y333923D01*
X333014Y335734D01*
X332307Y337440D01*
X331281Y338976D01*
X329976Y340281D01*
X328440Y341307D01*
X326734Y342014D01*
X324923Y342374D01*
D02*
G37*
G36*
X74900Y334900D02*
X63100D01*
Y323100D01*
X74900D01*
Y334900D01*
D02*
G37*
G36*
X406406Y332815D02*
X392776D01*
Y319185D01*
X406406D01*
Y332815D01*
D02*
G37*
G36*
X384671D02*
X383329D01*
X382012Y332553D01*
X380772Y332039D01*
X379656Y331294D01*
X378707Y330344D01*
X377961Y329228D01*
X377447Y327988D01*
X377185Y326671D01*
Y325329D01*
X377447Y324012D01*
X377961Y322772D01*
X378707Y321656D01*
X379656Y320707D01*
X380772Y319961D01*
X382012Y319447D01*
X383329Y319185D01*
X384671D01*
X385988Y319447D01*
X387228Y319961D01*
X388344Y320707D01*
X389294Y321656D01*
X390039Y322772D01*
X390553Y324012D01*
X390815Y325329D01*
Y326671D01*
X390553Y327988D01*
X390039Y329228D01*
X389294Y330344D01*
X388344Y331294D01*
X387228Y332039D01*
X385988Y332553D01*
X384671Y332815D01*
D02*
G37*
G36*
X369081D02*
X367738D01*
X366422Y332553D01*
X365181Y332039D01*
X364065Y331294D01*
X363116Y330344D01*
X362370Y329228D01*
X361856Y327988D01*
X361594Y326671D01*
Y325329D01*
X361856Y324012D01*
X362370Y322772D01*
X363116Y321656D01*
X364065Y320707D01*
X365181Y319961D01*
X366422Y319447D01*
X367738Y319185D01*
X369081D01*
X370397Y319447D01*
X371638Y319961D01*
X372754Y320707D01*
X373703Y321656D01*
X374449Y322772D01*
X374962Y324012D01*
X375224Y325329D01*
Y326671D01*
X374962Y327988D01*
X374449Y329228D01*
X373703Y330344D01*
X372754Y331294D01*
X371638Y332039D01*
X370397Y332553D01*
X369081Y332815D01*
D02*
G37*
G36*
X194625Y326748D02*
X193375D01*
X192167Y326425D01*
X191085Y325799D01*
X190201Y324915D01*
X189576Y323833D01*
X189252Y322625D01*
Y321375D01*
X189576Y320167D01*
X190201Y319085D01*
X191085Y318201D01*
X192167Y317576D01*
X193375Y317252D01*
X194625D01*
X195833Y317576D01*
X196915Y318201D01*
X197799Y319085D01*
X198424Y320167D01*
X198748Y321375D01*
Y322625D01*
X198424Y323833D01*
X197799Y324915D01*
X196915Y325799D01*
X195833Y326425D01*
X194625Y326748D01*
D02*
G37*
G36*
X184625D02*
X183375D01*
X182167Y326425D01*
X181085Y325799D01*
X180201Y324915D01*
X179576Y323833D01*
X179252Y322625D01*
Y321375D01*
X179576Y320167D01*
X180201Y319085D01*
X181085Y318201D01*
X182167Y317576D01*
X183375Y317252D01*
X184625D01*
X185833Y317576D01*
X186915Y318201D01*
X187799Y319085D01*
X188425Y320167D01*
X188748Y321375D01*
Y322625D01*
X188425Y323833D01*
X187799Y324915D01*
X186915Y325799D01*
X185833Y326425D01*
X184625Y326748D01*
D02*
G37*
G36*
X298748Y322748D02*
X289252D01*
Y313252D01*
X298748D01*
Y322748D01*
D02*
G37*
G36*
X284625D02*
X283375D01*
X282167Y322425D01*
X281085Y321799D01*
X280201Y320915D01*
X279575Y319833D01*
X279252Y318625D01*
Y317375D01*
X279575Y316167D01*
X280201Y315085D01*
X281085Y314201D01*
X282167Y313576D01*
X283375Y313252D01*
X284625D01*
X285833Y313576D01*
X286915Y314201D01*
X287799Y315085D01*
X288424Y316167D01*
X288748Y317375D01*
Y318625D01*
X288424Y319833D01*
X287799Y320915D01*
X286915Y321799D01*
X285833Y322425D01*
X284625Y322748D01*
D02*
G37*
G36*
X274625D02*
X273375D01*
X272167Y322425D01*
X271085Y321799D01*
X270201Y320915D01*
X269576Y319833D01*
X269252Y318625D01*
Y317375D01*
X269576Y316167D01*
X270201Y315085D01*
X271085Y314201D01*
X272167Y313576D01*
X273375Y313252D01*
X274625D01*
X275833Y313576D01*
X276915Y314201D01*
X277799Y315085D01*
X278425Y316167D01*
X278748Y317375D01*
Y318625D01*
X278425Y319833D01*
X277799Y320915D01*
X276915Y321799D01*
X275833Y322425D01*
X274625Y322748D01*
D02*
G37*
G36*
X274559Y312248D02*
X274500D01*
Y308500D01*
X278248D01*
Y308559D01*
X277958Y309640D01*
X277399Y310608D01*
X276608Y311399D01*
X275640Y311959D01*
X274559Y312248D01*
D02*
G37*
G36*
X328248D02*
X324500D01*
Y308500D01*
X328248D01*
Y312248D01*
D02*
G37*
G36*
X323500D02*
X319752D01*
Y308500D01*
X323500D01*
Y312248D01*
D02*
G37*
G36*
X273500D02*
X273441D01*
X272360Y311959D01*
X271392Y311399D01*
X270601Y310608D01*
X270041Y309640D01*
X269752Y308559D01*
Y308500D01*
X273500D01*
Y312248D01*
D02*
G37*
G36*
X246862Y309862D02*
X239138D01*
Y307776D01*
X238638Y307642D01*
X238216Y308371D01*
X237497Y309090D01*
X236617Y309599D01*
X235634Y309862D01*
X234617D01*
X233635Y309599D01*
X232755Y309090D01*
X232035Y308371D01*
X231527Y307491D01*
X231264Y306508D01*
Y305491D01*
X231527Y304509D01*
X232035Y303628D01*
X232755Y302909D01*
X233635Y302401D01*
X234617Y302138D01*
X235634D01*
X236617Y302401D01*
X237497Y302909D01*
X238216Y303628D01*
X238638Y304358D01*
X239138Y304224D01*
Y302138D01*
X246862D01*
Y309862D01*
D02*
G37*
G36*
X227752Y309347D02*
Y306500D01*
X230599D01*
X230385Y307298D01*
X229942Y308064D01*
X229316Y308690D01*
X228550Y309133D01*
X227752Y309347D01*
D02*
G37*
G36*
X226752D02*
X225954Y309133D01*
X225188Y308690D01*
X224562Y308064D01*
X224119Y307298D01*
X223905Y306500D01*
X226752D01*
Y309347D01*
D02*
G37*
G36*
X328248Y307500D02*
X324500D01*
Y303752D01*
X328248D01*
Y307500D01*
D02*
G37*
G36*
X273500D02*
X269752D01*
Y307441D01*
X270041Y306360D01*
X270601Y305392D01*
X271392Y304601D01*
X272360Y304042D01*
X273441Y303752D01*
X273500D01*
Y307500D01*
D02*
G37*
G36*
X354625Y312748D02*
X353375D01*
X352167Y312424D01*
X351085Y311799D01*
X350201Y310915D01*
X349575Y309833D01*
X349252Y308625D01*
Y307375D01*
X349575Y306167D01*
X350201Y305085D01*
X351085Y304201D01*
X352167Y303575D01*
X353375Y303252D01*
X354625D01*
X355833Y303575D01*
X356915Y304201D01*
X357799Y305085D01*
X358424Y306167D01*
X358748Y307375D01*
Y308625D01*
X358424Y309833D01*
X357799Y310915D01*
X356915Y311799D01*
X355833Y312424D01*
X354625Y312748D01*
D02*
G37*
G36*
X344625D02*
X343375D01*
X342167Y312424D01*
X341085Y311799D01*
X340201Y310915D01*
X339576Y309833D01*
X339252Y308625D01*
Y307375D01*
X339576Y306167D01*
X340201Y305085D01*
X341085Y304201D01*
X342167Y303575D01*
X343375Y303252D01*
X344625D01*
X345833Y303575D01*
X346915Y304201D01*
X347799Y305085D01*
X348425Y306167D01*
X348748Y307375D01*
Y308625D01*
X348425Y309833D01*
X347799Y310915D01*
X346915Y311799D01*
X345833Y312424D01*
X344625Y312748D01*
D02*
G37*
G36*
X334625D02*
X333375D01*
X332167Y312424D01*
X331085Y311799D01*
X330201Y310915D01*
X329575Y309833D01*
X329252Y308625D01*
Y307375D01*
X329575Y306167D01*
X330201Y305085D01*
X331085Y304201D01*
X332167Y303575D01*
X333375Y303252D01*
X334625D01*
X335833Y303575D01*
X336915Y304201D01*
X337799Y305085D01*
X338424Y306167D01*
X338748Y307375D01*
Y308625D01*
X338424Y309833D01*
X337799Y310915D01*
X336915Y311799D01*
X335833Y312424D01*
X334625Y312748D01*
D02*
G37*
G36*
X294625D02*
X293375D01*
X292167Y312424D01*
X291085Y311799D01*
X290201Y310915D01*
X289576Y309833D01*
X289252Y308625D01*
Y307375D01*
X289576Y306167D01*
X290201Y305085D01*
X291085Y304201D01*
X292167Y303575D01*
X293375Y303252D01*
X294625D01*
X295833Y303575D01*
X296915Y304201D01*
X297799Y305085D01*
X298425Y306167D01*
X298748Y307375D01*
Y308625D01*
X298425Y309833D01*
X297799Y310915D01*
X296915Y311799D01*
X295833Y312424D01*
X294625Y312748D01*
D02*
G37*
G36*
X69581Y314900D02*
X68419D01*
X67279Y314673D01*
X66206Y314228D01*
X65239Y313582D01*
X64417Y312761D01*
X63772Y311794D01*
X63327Y310721D01*
X63100Y309581D01*
Y308419D01*
X63214Y307850D01*
X32682Y277318D01*
X32161Y276639D01*
X31834Y275848D01*
X31778Y275424D01*
X31722Y275000D01*
Y267000D01*
X31778Y266576D01*
X31834Y266152D01*
X32161Y265361D01*
X32682Y264682D01*
X44120Y253244D01*
X43256Y252380D01*
X42514Y251096D01*
X42130Y249663D01*
Y248180D01*
X42514Y246747D01*
X43256Y245462D01*
X44304Y244413D01*
X45589Y243671D01*
X47022Y243287D01*
X48505D01*
X49938Y243671D01*
X51223Y244413D01*
X52272Y245462D01*
X53014Y246747D01*
X53398Y248180D01*
Y249663D01*
X53014Y251096D01*
X52272Y252380D01*
X51223Y253429D01*
X51042Y253534D01*
Y254236D01*
X50986Y254660D01*
X50930Y255085D01*
X50603Y255875D01*
X50082Y256554D01*
X38278Y268358D01*
Y273642D01*
X67849Y303214D01*
X68419Y303100D01*
X69581D01*
X70721Y303327D01*
X71794Y303772D01*
X72761Y304417D01*
X73583Y305239D01*
X74228Y306206D01*
X74673Y307279D01*
X74900Y308419D01*
Y309581D01*
X74673Y310721D01*
X74228Y311794D01*
X73583Y312761D01*
X72761Y313582D01*
X71794Y314228D01*
X70721Y314673D01*
X69581Y314900D01*
D02*
G37*
G36*
X364504Y299205D02*
X363496D01*
X362521Y298944D01*
X361648Y298439D01*
X360935Y297726D01*
X360430Y296853D01*
X360169Y295878D01*
Y294870D01*
X360430Y293895D01*
X360935Y293022D01*
X361648Y292309D01*
X362521Y291804D01*
X363496Y291543D01*
X364504D01*
X365479Y291804D01*
X366352Y292309D01*
X367065Y293022D01*
X367570Y293895D01*
X367831Y294870D01*
Y295878D01*
X367570Y296853D01*
X367065Y297726D01*
X366352Y298439D01*
X365479Y298944D01*
X364504Y299205D01*
D02*
G37*
G36*
X354504D02*
X353496D01*
X352521Y298944D01*
X351648Y298439D01*
X350935Y297726D01*
X350430Y296853D01*
X350169Y295878D01*
Y294870D01*
X350430Y293895D01*
X350935Y293022D01*
X351648Y292309D01*
X352521Y291804D01*
X353496Y291543D01*
X354504D01*
X355479Y291804D01*
X356352Y292309D01*
X357065Y293022D01*
X357570Y293895D01*
X357831Y294870D01*
Y295878D01*
X357570Y296853D01*
X357065Y297726D01*
X356352Y298439D01*
X355479Y298944D01*
X354504Y299205D01*
D02*
G37*
G36*
X344504D02*
X343496D01*
X342521Y298944D01*
X341648Y298439D01*
X340935Y297726D01*
X340430Y296853D01*
X340169Y295878D01*
Y294870D01*
X340430Y293895D01*
X340935Y293022D01*
X341648Y292309D01*
X342521Y291804D01*
X343496Y291543D01*
X344504D01*
X345479Y291804D01*
X346352Y292309D01*
X347065Y293022D01*
X347570Y293895D01*
X347831Y294870D01*
Y295878D01*
X347570Y296853D01*
X347065Y297726D01*
X346352Y298439D01*
X345479Y298944D01*
X344504Y299205D01*
D02*
G37*
G36*
X334504D02*
X333496D01*
X332521Y298944D01*
X331648Y298439D01*
X330935Y297726D01*
X330430Y296853D01*
X330169Y295878D01*
Y294870D01*
X330430Y293895D01*
X330935Y293022D01*
X331648Y292309D01*
X332521Y291804D01*
X333496Y291543D01*
X334504D01*
X335479Y291804D01*
X336352Y292309D01*
X337065Y293022D01*
X337570Y293895D01*
X337831Y294870D01*
Y295878D01*
X337570Y296853D01*
X337065Y297726D01*
X336352Y298439D01*
X335479Y298944D01*
X334504Y299205D01*
D02*
G37*
G36*
X69581Y294900D02*
X68419D01*
X67279Y294673D01*
X66206Y294228D01*
X65239Y293583D01*
X64417Y292761D01*
X63772Y291794D01*
X63327Y290721D01*
X63100Y289581D01*
Y288419D01*
X63327Y287279D01*
X63772Y286206D01*
X64417Y285239D01*
X65239Y284418D01*
X66206Y283772D01*
X67279Y283327D01*
X68419Y283100D01*
X69581D01*
X70721Y283327D01*
X71794Y283772D01*
X72761Y284418D01*
X73583Y285239D01*
X74228Y286206D01*
X74673Y287279D01*
X74900Y288419D01*
Y289581D01*
X74673Y290721D01*
X74228Y291794D01*
X73583Y292761D01*
X72761Y293583D01*
X71794Y294228D01*
X70721Y294673D01*
X69581Y294900D01*
D02*
G37*
G36*
X69711Y274400D02*
X69500D01*
Y269500D01*
X74400D01*
Y269711D01*
X74032Y271084D01*
X73321Y272315D01*
X72315Y273321D01*
X71084Y274032D01*
X69711Y274400D01*
D02*
G37*
G36*
X68500D02*
X68289D01*
X66916Y274032D01*
X65685Y273321D01*
X64679Y272315D01*
X63968Y271084D01*
X63600Y269711D01*
Y269500D01*
X68500D01*
Y274400D01*
D02*
G37*
G36*
X74400Y268500D02*
X69500D01*
Y263600D01*
X69711D01*
X71084Y263968D01*
X72315Y264679D01*
X73321Y265685D01*
X74032Y266916D01*
X74400Y268289D01*
Y268500D01*
D02*
G37*
G36*
X68500D02*
X63600D01*
Y268289D01*
X63968Y266916D01*
X64679Y265685D01*
X65685Y264679D01*
X66916Y263968D01*
X68289Y263600D01*
X68500D01*
Y268500D01*
D02*
G37*
G36*
X48505Y274398D02*
X47022D01*
X45589Y274014D01*
X44304Y273272D01*
X43256Y272223D01*
X42514Y270938D01*
X42130Y269506D01*
Y268022D01*
X42514Y266589D01*
X43256Y265304D01*
X44304Y264256D01*
X45589Y263514D01*
X47022Y263130D01*
X48505D01*
X49938Y263514D01*
X51223Y264256D01*
X52272Y265304D01*
X53014Y266589D01*
X53398Y268022D01*
Y269506D01*
X53014Y270938D01*
X52272Y272223D01*
X51223Y273272D01*
X49938Y274014D01*
X48505Y274398D01*
D02*
G37*
G36*
X18978D02*
X17494D01*
X16062Y274014D01*
X14777Y273272D01*
X13728Y272223D01*
X12986Y270938D01*
X12602Y269506D01*
Y268022D01*
X12986Y266589D01*
X13728Y265304D01*
X14777Y264256D01*
X16062Y263514D01*
X17494Y263130D01*
X18978D01*
X20411Y263514D01*
X21696Y264256D01*
X22744Y265304D01*
X23486Y266589D01*
X23870Y268022D01*
Y269506D01*
X23486Y270938D01*
X22744Y272223D01*
X21696Y273272D01*
X20411Y274014D01*
X18978Y274398D01*
D02*
G37*
G36*
X397923Y276374D02*
X396077D01*
X394266Y276014D01*
X392560Y275307D01*
X391024Y274281D01*
X389719Y272976D01*
X388693Y271440D01*
X387986Y269734D01*
X387626Y267923D01*
Y266077D01*
X387986Y264266D01*
X388693Y262560D01*
X389719Y261024D01*
X391024Y259719D01*
X392560Y258693D01*
X394266Y257986D01*
X396077Y257626D01*
X397923D01*
X399734Y257986D01*
X401440Y258693D01*
X402976Y259719D01*
X404281Y261024D01*
X405307Y262560D01*
X406014Y264266D01*
X406374Y266077D01*
Y267923D01*
X406014Y269734D01*
X405307Y271440D01*
X404281Y272976D01*
X402976Y274281D01*
X401440Y275307D01*
X399734Y276014D01*
X397923Y276374D01*
D02*
G37*
G36*
X124626Y254165D02*
X121961D01*
Y251500D01*
X124626D01*
Y254165D01*
D02*
G37*
G36*
X133483Y254665D02*
X132518D01*
X131585Y254416D01*
X130749Y253933D01*
X130067Y253251D01*
X129584Y252415D01*
X129513Y252149D01*
X128753Y251389D01*
X128291Y251581D01*
Y254165D01*
X125626D01*
Y251000D01*
X125126D01*
Y250500D01*
X121961D01*
Y247835D01*
X124704D01*
X125035Y247335D01*
X124834Y246848D01*
X124778Y246424D01*
X124722Y246000D01*
Y212278D01*
X82000D01*
X81152Y212166D01*
X80361Y211839D01*
X80282Y211778D01*
X79828Y212060D01*
X79900Y212419D01*
Y213581D01*
X79673Y214721D01*
X79228Y215794D01*
X78583Y216761D01*
X77761Y217583D01*
X76794Y218228D01*
X75721Y218673D01*
X74581Y218900D01*
X73419D01*
X72279Y218673D01*
X71206Y218228D01*
X70239Y217583D01*
X69418Y216761D01*
X68772Y215794D01*
X68327Y214721D01*
X68100Y213581D01*
Y212419D01*
X68327Y211279D01*
X68772Y210206D01*
X69418Y209239D01*
X70239Y208418D01*
X71206Y207772D01*
X72279Y207327D01*
X73419Y207100D01*
X74581D01*
X75721Y207327D01*
X76794Y207772D01*
X77761Y208418D01*
X78222Y208879D01*
X78722Y208671D01*
Y197328D01*
X78222Y197121D01*
X77761Y197582D01*
X76794Y198228D01*
X75721Y198673D01*
X74581Y198900D01*
X73419D01*
X72279Y198673D01*
X71206Y198228D01*
X70239Y197582D01*
X69418Y196761D01*
X68772Y195794D01*
X68327Y194721D01*
X68100Y193581D01*
Y192419D01*
X68327Y191279D01*
X68772Y190206D01*
X69418Y189239D01*
X70239Y188417D01*
X70836Y188019D01*
X70885Y187521D01*
X55642Y172278D01*
X52377D01*
X52272Y172459D01*
X51223Y173508D01*
X49938Y174250D01*
X48505Y174634D01*
X47022D01*
X45589Y174250D01*
X44304Y173508D01*
X43256Y172459D01*
X42514Y171175D01*
X42130Y169742D01*
Y168258D01*
X42514Y166825D01*
X43256Y165541D01*
X44304Y164492D01*
X45589Y163750D01*
X47022Y163366D01*
X48505D01*
X49938Y163750D01*
X51223Y164492D01*
X52272Y165541D01*
X52377Y165722D01*
X57000D01*
X57424Y165778D01*
X57848Y165834D01*
X58639Y166161D01*
X59318Y166682D01*
X67638Y175003D01*
X68100Y174811D01*
Y167100D01*
X79900D01*
Y178900D01*
X72189D01*
X71997Y179361D01*
X75358Y182722D01*
X82000D01*
X82848Y182834D01*
X83639Y183161D01*
X84318Y183682D01*
X84839Y184361D01*
X85166Y185152D01*
X85278Y186000D01*
Y205722D01*
X117541D01*
X117574Y205222D01*
X117152Y205166D01*
X116361Y204839D01*
X115682Y204318D01*
X110682Y199318D01*
X110161Y198639D01*
X109834Y197848D01*
X109722Y197000D01*
X109834Y196152D01*
X110161Y195361D01*
X110682Y194682D01*
X111361Y194161D01*
X112152Y193834D01*
X113000Y193722D01*
X113848Y193834D01*
X114639Y194161D01*
X115318Y194682D01*
X119358Y198722D01*
X230000D01*
X230848Y198834D01*
X231639Y199161D01*
X232318Y199682D01*
X232660Y199705D01*
X238722Y193642D01*
Y184000D01*
X238834Y183152D01*
X238988Y182778D01*
X238654Y182278D01*
X227050D01*
X226626Y182222D01*
X226202Y182166D01*
X225411Y181839D01*
X224732Y181318D01*
X171322Y127908D01*
X167019D01*
X166734Y128193D01*
X165719Y128779D01*
X164586Y129083D01*
X163414D01*
X162281Y128779D01*
X161266Y128193D01*
X160437Y127364D01*
X159851Y126349D01*
X159547Y125216D01*
Y124044D01*
X159851Y122911D01*
X160437Y121896D01*
X161266Y121067D01*
X162281Y120481D01*
X163414Y120177D01*
X164586D01*
X165719Y120481D01*
X166734Y121067D01*
X167019Y121352D01*
X172680D01*
X173104Y121408D01*
X173529Y121464D01*
X174319Y121791D01*
X174998Y122312D01*
X228408Y175722D01*
X239999D01*
X275860Y139860D01*
X276487Y139380D01*
X277217Y139077D01*
X278000Y138974D01*
X302000D01*
X302197Y139000D01*
X302395D01*
X302587Y139051D01*
X302783Y139077D01*
X302966Y139153D01*
X303158Y139204D01*
X303330Y139304D01*
X303513Y139380D01*
X303670Y139500D01*
X303842Y139599D01*
X303982Y139740D01*
X304140Y139860D01*
X304260Y140018D01*
X304401Y140158D01*
X304500Y140330D01*
X304621Y140487D01*
X304696Y140670D01*
X304796Y140842D01*
X304847Y141034D01*
X304923Y141217D01*
X304949Y141413D01*
X305000Y141605D01*
Y141803D01*
X305026Y142000D01*
X305000Y142197D01*
Y142395D01*
X304949Y142587D01*
X304923Y142783D01*
X304847Y142966D01*
X304796Y143158D01*
X304696Y143330D01*
X304621Y143513D01*
X304500Y143670D01*
X304401Y143842D01*
X304260Y143982D01*
X304140Y144140D01*
X303982Y144260D01*
X303842Y144401D01*
X303670Y144500D01*
X303513Y144621D01*
X303330Y144696D01*
X303158Y144796D01*
X302966Y144847D01*
X302783Y144923D01*
X302587Y144949D01*
X302395Y145000D01*
X302197D01*
X302000Y145026D01*
X290080D01*
X290000Y145130D01*
Y145920D01*
X289796Y146683D01*
X289678Y146887D01*
Y147096D01*
X289584Y147813D01*
X289306Y148483D01*
X288866Y149057D01*
X284774Y153149D01*
Y158804D01*
X284796Y158842D01*
X285000Y159605D01*
Y160395D01*
X284796Y161158D01*
X284401Y161842D01*
X283842Y162401D01*
X283158Y162796D01*
X282395Y163000D01*
X281605D01*
X280842Y162796D01*
X280158Y162401D01*
X279599Y161842D01*
X279204Y161158D01*
X279000Y160395D01*
Y159605D01*
X279204Y158842D01*
X279226Y158804D01*
Y152000D01*
X279321Y151282D01*
X279598Y150613D01*
X280039Y150039D01*
X284033Y146044D01*
X284000Y145920D01*
Y145130D01*
X283920Y145026D01*
X279253D01*
X243979Y180300D01*
X243839Y180639D01*
X243587Y180967D01*
X243639Y181161D01*
X244318Y181682D01*
X244839Y182361D01*
X245166Y183152D01*
X245278Y184000D01*
Y195000D01*
X245222Y195424D01*
X245166Y195848D01*
X244839Y196639D01*
X244318Y197318D01*
X230318Y211318D01*
X229639Y211839D01*
X228848Y212166D01*
X228424Y212222D01*
X228000Y212278D01*
X131278D01*
Y244642D01*
X134149Y247513D01*
X134415Y247584D01*
X135251Y248067D01*
X135933Y248749D01*
X136416Y249585D01*
X136665Y250518D01*
Y251483D01*
X136416Y252415D01*
X135933Y253251D01*
X135251Y253933D01*
X134415Y254416D01*
X133483Y254665D01*
D02*
G37*
G36*
X90000Y279278D02*
X89152Y279166D01*
X88361Y278839D01*
X87682Y278318D01*
X87161Y277639D01*
X86834Y276848D01*
X86722Y276000D01*
X86834Y275152D01*
X87161Y274361D01*
X87682Y273682D01*
X97722Y263642D01*
Y255665D01*
X97335D01*
Y248335D01*
X104665D01*
Y255665D01*
X104278D01*
Y265000D01*
X104222Y265424D01*
X104166Y265848D01*
X103839Y266639D01*
X103318Y267318D01*
X92318Y278318D01*
X91639Y278839D01*
X90848Y279166D01*
X90000Y279278D01*
D02*
G37*
G36*
X18978Y254555D02*
X17494D01*
X16062Y254171D01*
X14777Y253429D01*
X13728Y252380D01*
X12986Y251096D01*
X12602Y249663D01*
Y248180D01*
X12986Y246747D01*
X13728Y245462D01*
X14777Y244413D01*
X16062Y243671D01*
X17494Y243287D01*
X18978D01*
X20411Y243671D01*
X21696Y244413D01*
X22744Y245462D01*
X23486Y246747D01*
X23870Y248180D01*
Y249663D01*
X23486Y251096D01*
X22744Y252380D01*
X21696Y253429D01*
X20411Y254171D01*
X18978Y254555D01*
D02*
G37*
G36*
X101500Y241363D02*
Y238720D01*
X104143D01*
X103950Y239442D01*
X103533Y240164D01*
X102944Y240753D01*
X102222Y241170D01*
X101500Y241363D01*
D02*
G37*
G36*
X100500D02*
X99778Y241170D01*
X99056Y240753D01*
X98467Y240164D01*
X98050Y239442D01*
X97857Y238720D01*
X100500D01*
Y241363D01*
D02*
G37*
G36*
X104143Y237720D02*
X101500D01*
Y235077D01*
X102222Y235271D01*
X102944Y235687D01*
X103533Y236277D01*
X103950Y236999D01*
X104143Y237720D01*
D02*
G37*
G36*
X100500D02*
X97857D01*
X98050Y236999D01*
X98467Y236277D01*
X99056Y235687D01*
X99778Y235271D01*
X100500Y235077D01*
Y237720D01*
D02*
G37*
G36*
X74711Y238400D02*
X74500D01*
Y233500D01*
X79400D01*
Y233711D01*
X79032Y235084D01*
X78321Y236315D01*
X77315Y237321D01*
X76084Y238032D01*
X74711Y238400D01*
D02*
G37*
G36*
X73500D02*
X73289D01*
X71916Y238032D01*
X70685Y237321D01*
X69679Y236315D01*
X68968Y235084D01*
X68600Y233711D01*
Y233500D01*
X73500D01*
Y238400D01*
D02*
G37*
G36*
X324504Y238457D02*
X323496D01*
X322521Y238196D01*
X321648Y237691D01*
X320935Y236978D01*
X320430Y236105D01*
X320169Y235130D01*
Y234122D01*
X320430Y233147D01*
X320935Y232274D01*
X321648Y231561D01*
X322521Y231056D01*
X323496Y230795D01*
X324504D01*
X325479Y231056D01*
X326352Y231561D01*
X327065Y232274D01*
X327570Y233147D01*
X327831Y234122D01*
Y235130D01*
X327570Y236105D01*
X327065Y236978D01*
X326352Y237691D01*
X325479Y238196D01*
X324504Y238457D01*
D02*
G37*
G36*
X314504D02*
X313496D01*
X312521Y238196D01*
X311648Y237691D01*
X310935Y236978D01*
X310430Y236105D01*
X310169Y235130D01*
Y234122D01*
X310430Y233147D01*
X310935Y232274D01*
X311648Y231561D01*
X312521Y231056D01*
X313496Y230795D01*
X314504D01*
X315479Y231056D01*
X316352Y231561D01*
X317065Y232274D01*
X317570Y233147D01*
X317831Y234122D01*
Y235130D01*
X317570Y236105D01*
X317065Y236978D01*
X316352Y237691D01*
X315479Y238196D01*
X314504Y238457D01*
D02*
G37*
G36*
X304504D02*
X303496D01*
X302521Y238196D01*
X301648Y237691D01*
X300935Y236978D01*
X300430Y236105D01*
X300169Y235130D01*
Y234122D01*
X300430Y233147D01*
X300935Y232274D01*
X301648Y231561D01*
X302521Y231056D01*
X303496Y230795D01*
X304504D01*
X305479Y231056D01*
X306352Y231561D01*
X307065Y232274D01*
X307570Y233147D01*
X307831Y234122D01*
Y235130D01*
X307570Y236105D01*
X307065Y236978D01*
X306352Y237691D01*
X305479Y238196D01*
X304504Y238457D01*
D02*
G37*
G36*
X294504D02*
X293496D01*
X292521Y238196D01*
X291648Y237691D01*
X290935Y236978D01*
X290430Y236105D01*
X290169Y235130D01*
Y234122D01*
X290430Y233147D01*
X290935Y232274D01*
X291648Y231561D01*
X292521Y231056D01*
X293496Y230795D01*
X294504D01*
X295479Y231056D01*
X296352Y231561D01*
X297065Y232274D01*
X297570Y233147D01*
X297831Y234122D01*
Y235130D01*
X297570Y236105D01*
X297065Y236978D01*
X296352Y237691D01*
X295479Y238196D01*
X294504Y238457D01*
D02*
G37*
G36*
X254504D02*
X253496D01*
X252521Y238196D01*
X251648Y237691D01*
X250935Y236978D01*
X250430Y236105D01*
X250169Y235130D01*
Y234122D01*
X250430Y233147D01*
X250935Y232274D01*
X251648Y231561D01*
X252521Y231056D01*
X253496Y230795D01*
X254504D01*
X255479Y231056D01*
X256352Y231561D01*
X257065Y232274D01*
X257570Y233147D01*
X257831Y234122D01*
Y235130D01*
X257570Y236105D01*
X257065Y236978D01*
X256352Y237691D01*
X255479Y238196D01*
X254504Y238457D01*
D02*
G37*
G36*
X244504D02*
X243496D01*
X242521Y238196D01*
X241648Y237691D01*
X240935Y236978D01*
X240430Y236105D01*
X240169Y235130D01*
Y234122D01*
X240430Y233147D01*
X240935Y232274D01*
X241648Y231561D01*
X242521Y231056D01*
X243496Y230795D01*
X244504D01*
X245479Y231056D01*
X246352Y231561D01*
X247065Y232274D01*
X247570Y233147D01*
X247831Y234122D01*
Y235130D01*
X247570Y236105D01*
X247065Y236978D01*
X246352Y237691D01*
X245479Y238196D01*
X244504Y238457D01*
D02*
G37*
G36*
X234504D02*
X233496D01*
X232521Y238196D01*
X231648Y237691D01*
X230935Y236978D01*
X230430Y236105D01*
X230169Y235130D01*
Y234122D01*
X230430Y233147D01*
X230935Y232274D01*
X231648Y231561D01*
X232521Y231056D01*
X233496Y230795D01*
X234504D01*
X235479Y231056D01*
X236352Y231561D01*
X237065Y232274D01*
X237570Y233147D01*
X237831Y234122D01*
Y235130D01*
X237570Y236105D01*
X237065Y236978D01*
X236352Y237691D01*
X235479Y238196D01*
X234504Y238457D01*
D02*
G37*
G36*
X204504D02*
X203496D01*
X202521Y238196D01*
X201648Y237691D01*
X200935Y236978D01*
X200430Y236105D01*
X200169Y235130D01*
Y234122D01*
X200430Y233147D01*
X200935Y232274D01*
X201648Y231561D01*
X202521Y231056D01*
X203496Y230795D01*
X204504D01*
X205479Y231056D01*
X206352Y231561D01*
X207065Y232274D01*
X207570Y233147D01*
X207831Y234122D01*
Y235130D01*
X207570Y236105D01*
X207065Y236978D01*
X206352Y237691D01*
X205479Y238196D01*
X204504Y238457D01*
D02*
G37*
G36*
X194504D02*
X193496D01*
X192521Y238196D01*
X191648Y237691D01*
X190935Y236978D01*
X190430Y236105D01*
X190169Y235130D01*
Y234122D01*
X190430Y233147D01*
X190935Y232274D01*
X191648Y231561D01*
X192521Y231056D01*
X193496Y230795D01*
X194504D01*
X195479Y231056D01*
X196352Y231561D01*
X197065Y232274D01*
X197570Y233147D01*
X197831Y234122D01*
Y235130D01*
X197570Y236105D01*
X197065Y236978D01*
X196352Y237691D01*
X195479Y238196D01*
X194504Y238457D01*
D02*
G37*
G36*
X184504D02*
X183496D01*
X182521Y238196D01*
X181648Y237691D01*
X180935Y236978D01*
X180430Y236105D01*
X180169Y235130D01*
Y234122D01*
X180430Y233147D01*
X180935Y232274D01*
X181648Y231561D01*
X182521Y231056D01*
X183496Y230795D01*
X184504D01*
X185479Y231056D01*
X186352Y231561D01*
X187065Y232274D01*
X187570Y233147D01*
X187831Y234122D01*
Y235130D01*
X187570Y236105D01*
X187065Y236978D01*
X186352Y237691D01*
X185479Y238196D01*
X184504Y238457D01*
D02*
G37*
G36*
X177831D02*
X170169D01*
Y230795D01*
X177831D01*
Y238457D01*
D02*
G37*
G36*
X79400Y232500D02*
X74500D01*
Y227600D01*
X74711D01*
X76084Y227968D01*
X77315Y228679D01*
X78321Y229685D01*
X79032Y230916D01*
X79400Y232289D01*
Y232500D01*
D02*
G37*
G36*
X73500D02*
X68600D01*
Y232289D01*
X68968Y230916D01*
X69679Y229685D01*
X70685Y228679D01*
X71916Y227968D01*
X73289Y227600D01*
X73500D01*
Y232500D01*
D02*
G37*
G36*
X184509Y227862D02*
X183492D01*
X182509Y227599D01*
X181629Y227091D01*
X180910Y226372D01*
X180401Y225491D01*
X180322Y225195D01*
X179804D01*
X179725Y225491D01*
X179217Y226372D01*
X178498Y227091D01*
X177617Y227599D01*
X176635Y227862D01*
X175618D01*
X174635Y227599D01*
X173755Y227091D01*
X173036Y226372D01*
X172527Y225491D01*
X172264Y224509D01*
Y223492D01*
X172527Y222509D01*
X173036Y221628D01*
X173755Y220910D01*
X174635Y220401D01*
X175618Y220138D01*
X176635D01*
X177617Y220401D01*
X178498Y220910D01*
X179217Y221628D01*
X179725Y222509D01*
X179804Y222805D01*
X180322D01*
X180401Y222509D01*
X180910Y221628D01*
X181629Y220910D01*
X182509Y220401D01*
X183492Y220138D01*
X184509D01*
X185491Y220401D01*
X186372Y220910D01*
X187091Y221628D01*
X187599Y222509D01*
X187862Y223492D01*
Y224509D01*
X187599Y225491D01*
X187091Y226372D01*
X186372Y227091D01*
X185491Y227599D01*
X184509Y227862D01*
D02*
G37*
G36*
X191374Y227362D02*
X188512D01*
Y224500D01*
X191374D01*
Y227362D01*
D02*
G37*
G36*
X320421Y226157D02*
X319327D01*
X318269Y225874D01*
X317321Y225327D01*
X316547Y224553D01*
X316226Y223996D01*
X315648D01*
X315327Y224553D01*
X314553Y225327D01*
X313605Y225874D01*
X312547Y226157D01*
X311453D01*
X310395Y225874D01*
X309447Y225327D01*
X308673Y224553D01*
X308352Y223996D01*
X307774D01*
X307453Y224553D01*
X306679Y225327D01*
X305731Y225874D01*
X304673Y226157D01*
X303579D01*
X302521Y225874D01*
X301573Y225327D01*
X300799Y224553D01*
X300478Y223996D01*
X299900D01*
X299579Y224553D01*
X298805Y225327D01*
X297857Y225874D01*
X296799Y226157D01*
X295705D01*
X294647Y225874D01*
X293699Y225327D01*
X293036Y224663D01*
X292535Y224819D01*
Y226157D01*
X284221D01*
Y217843D01*
X292535D01*
Y219181D01*
X293036Y219337D01*
X293699Y218673D01*
X294647Y218126D01*
X295705Y217843D01*
X296799D01*
X297857Y218126D01*
X298805Y218673D01*
X299579Y219447D01*
X299900Y220004D01*
X300478D01*
X300799Y219447D01*
X301573Y218673D01*
X302521Y218126D01*
X303579Y217843D01*
X304673D01*
X305731Y218126D01*
X306679Y218673D01*
X307453Y219447D01*
X307774Y220004D01*
X308352D01*
X308673Y219447D01*
X309447Y218673D01*
X310395Y218126D01*
X311453Y217843D01*
X312547D01*
X313605Y218126D01*
X314553Y218673D01*
X315327Y219447D01*
X315648Y220004D01*
X316226D01*
X316547Y219447D01*
X317321Y218673D01*
X318269Y218126D01*
X319327Y217843D01*
X320421D01*
X321479Y218126D01*
X322427Y218673D01*
X323201Y219447D01*
X323748Y220395D01*
X324031Y221453D01*
Y222547D01*
X323748Y223605D01*
X323201Y224553D01*
X322427Y225327D01*
X321479Y225874D01*
X320421Y226157D01*
D02*
G37*
G36*
X384500Y226143D02*
Y223500D01*
X387143D01*
X386950Y224222D01*
X386533Y224944D01*
X385944Y225533D01*
X385222Y225950D01*
X384500Y226143D01*
D02*
G37*
G36*
X18978Y234713D02*
X17494D01*
X16062Y234329D01*
X14777Y233587D01*
X13728Y232538D01*
X12986Y231253D01*
X12602Y229820D01*
Y228337D01*
X12986Y226904D01*
X13728Y225620D01*
X14777Y224571D01*
X16062Y223829D01*
X17494Y223445D01*
X18978D01*
X20411Y223829D01*
X21696Y224571D01*
X22744Y225620D01*
X23486Y226904D01*
X23870Y228337D01*
Y229820D01*
X23486Y231253D01*
X22744Y232538D01*
X21696Y233587D01*
X20411Y234329D01*
X18978Y234713D01*
D02*
G37*
G36*
X248896Y225896D02*
X239104D01*
Y222798D01*
X238604Y222732D01*
X238562Y222890D01*
X237917Y224006D01*
X237006Y224918D01*
X235890Y225562D01*
X234645Y225896D01*
X233355D01*
X232110Y225562D01*
X230994Y224918D01*
X230083Y224006D01*
X229438Y222890D01*
X229104Y221644D01*
Y220356D01*
X229438Y219110D01*
X230083Y217994D01*
X230994Y217083D01*
X232110Y216438D01*
X233355Y216104D01*
X234645D01*
X235890Y216438D01*
X237006Y217083D01*
X237917Y217994D01*
X238562Y219110D01*
X238604Y219268D01*
X239104Y219202D01*
Y216104D01*
X248896D01*
Y225896D01*
D02*
G37*
G36*
X191374Y223500D02*
X188512D01*
Y220638D01*
X191374D01*
Y223500D01*
D02*
G37*
G36*
X144923Y235374D02*
X143077D01*
X141266Y235014D01*
X139560Y234307D01*
X138024Y233281D01*
X136719Y231976D01*
X135693Y230440D01*
X134986Y228734D01*
X134626Y226923D01*
Y225077D01*
X134986Y223266D01*
X135693Y221560D01*
X136719Y220024D01*
X138024Y218719D01*
X139560Y217693D01*
X141266Y216986D01*
X143077Y216626D01*
X144923D01*
X146734Y216986D01*
X148440Y217693D01*
X149976Y218719D01*
X151281Y220024D01*
X152307Y221560D01*
X153014Y223266D01*
X153374Y225077D01*
Y226923D01*
X153014Y228734D01*
X152307Y230440D01*
X151281Y231976D01*
X149976Y233281D01*
X148440Y234307D01*
X146734Y235014D01*
X144923Y235374D01*
D02*
G37*
G36*
X264504Y238457D02*
X263496D01*
X262521Y238196D01*
X261648Y237691D01*
X260935Y236978D01*
X260430Y236105D01*
X260169Y235130D01*
Y234122D01*
X260430Y233147D01*
X260935Y232274D01*
X261226Y231982D01*
Y218000D01*
X261321Y217282D01*
X261598Y216613D01*
X262039Y216039D01*
X269193Y208884D01*
X269204Y208842D01*
X269599Y208158D01*
X270158Y207599D01*
X270842Y207204D01*
X271605Y207000D01*
X272395D01*
X273158Y207204D01*
X273842Y207599D01*
X274401Y208158D01*
X274796Y208842D01*
X275000Y209605D01*
Y210395D01*
X274796Y211158D01*
X274401Y211842D01*
X273842Y212401D01*
X273158Y212796D01*
X273116Y212807D01*
X266774Y219149D01*
Y231982D01*
X267065Y232274D01*
X267570Y233147D01*
X267831Y234122D01*
Y235130D01*
X267570Y236105D01*
X267065Y236978D01*
X266352Y237691D01*
X265479Y238196D01*
X264504Y238457D01*
D02*
G37*
G36*
X48505Y234713D02*
X47022D01*
X45589Y234329D01*
X44304Y233587D01*
X43256Y232538D01*
X42514Y231253D01*
X42130Y229820D01*
Y228337D01*
X42514Y226904D01*
X43256Y225620D01*
X44304Y224571D01*
X44486Y224466D01*
Y210122D01*
X32324Y197960D01*
X31456Y197727D01*
X30544Y197201D01*
X29799Y196456D01*
X29273Y195544D01*
X29000Y194527D01*
Y193473D01*
X29273Y192456D01*
X29799Y191544D01*
X30544Y190799D01*
X31456Y190273D01*
X32473Y190000D01*
X33527D01*
X34544Y190273D01*
X35456Y190799D01*
X36201Y191544D01*
X36727Y192456D01*
X36960Y193324D01*
X50082Y206446D01*
X50603Y207125D01*
X50930Y207915D01*
X51042Y208764D01*
Y224466D01*
X51223Y224571D01*
X52272Y225620D01*
X53014Y226904D01*
X53398Y228337D01*
Y229820D01*
X53014Y231253D01*
X52272Y232538D01*
X51223Y233587D01*
X49938Y234329D01*
X48505Y234713D01*
D02*
G37*
G36*
X234527Y268000D02*
X233473D01*
X232456Y267727D01*
X231544Y267201D01*
X230799Y266456D01*
X230273Y265544D01*
X230000Y264527D01*
Y263473D01*
X230273Y262456D01*
X230799Y261544D01*
X231544Y260799D01*
X232456Y260273D01*
X233473Y260000D01*
X234527D01*
X235544Y260273D01*
X236322Y260722D01*
X252642D01*
X274407Y238957D01*
X274200Y238457D01*
X273496D01*
X272521Y238196D01*
X271648Y237691D01*
X270935Y236978D01*
X270430Y236105D01*
X270169Y235130D01*
Y234122D01*
X270430Y233147D01*
X270722Y232642D01*
Y220000D01*
X270834Y219152D01*
X271161Y218361D01*
X271682Y217682D01*
X272361Y217161D01*
X273152Y216834D01*
X274000Y216722D01*
X274848Y216834D01*
X275639Y217161D01*
X276222Y217608D01*
X276722Y217458D01*
Y216000D01*
X276778Y215576D01*
X276834Y215152D01*
X277161Y214361D01*
X277682Y213682D01*
X287682Y203682D01*
X288361Y203161D01*
X289152Y202834D01*
X290000Y202722D01*
X324642D01*
X336682Y190682D01*
X337361Y190161D01*
X338152Y189834D01*
X339000Y189722D01*
X349592D01*
X349722Y189592D01*
Y188000D01*
X349750Y187787D01*
Y187572D01*
X349806Y187365D01*
X349834Y187152D01*
X349916Y186953D01*
X349972Y186746D01*
X350079Y186559D01*
X350161Y186361D01*
X350292Y186190D01*
X350399Y186004D01*
X350551Y185853D01*
X350682Y185682D01*
X350853Y185551D01*
X351005Y185399D01*
X351190Y185292D01*
X351361Y185161D01*
X351559Y185079D01*
X351746Y184971D01*
X351953Y184916D01*
X352152Y184834D01*
X352365Y184806D01*
X352572Y184750D01*
X352787D01*
X353000Y184722D01*
X353213Y184750D01*
X353428D01*
X353635Y184806D01*
X353848Y184834D01*
X354047Y184916D01*
X354254Y184971D01*
X354440Y185079D01*
X354639Y185161D01*
X354809Y185292D01*
X354995Y185399D01*
X355147Y185551D01*
X355318Y185682D01*
X355449Y185853D01*
X355601Y186004D01*
X355708Y186190D01*
X355839Y186361D01*
X355921Y186559D01*
X356029Y186746D01*
X356084Y186953D01*
X356166Y187152D01*
X356194Y187365D01*
X356250Y187572D01*
Y187787D01*
X356278Y188000D01*
Y190950D01*
X356222Y191374D01*
X356166Y191798D01*
X355839Y192589D01*
X355318Y193268D01*
X353268Y195318D01*
X352589Y195839D01*
X351798Y196166D01*
X351374Y196222D01*
X350950Y196278D01*
X340358D01*
X328318Y208318D01*
X327639Y208839D01*
X326848Y209166D01*
X326424Y209222D01*
X326000Y209278D01*
X291358D01*
X283278Y217358D01*
Y230628D01*
X283496Y230795D01*
X284504D01*
X285479Y231056D01*
X286352Y231561D01*
X287065Y232274D01*
X287570Y233147D01*
X287831Y234122D01*
Y235130D01*
X287570Y236105D01*
X287065Y236978D01*
X286352Y237691D01*
X285479Y238196D01*
X284504Y238457D01*
X283496D01*
X283090Y238728D01*
X283060Y238955D01*
X282733Y239745D01*
X282212Y240424D01*
X256318Y266318D01*
X255639Y266839D01*
X254848Y267166D01*
X254424Y267222D01*
X254000Y267278D01*
X236322D01*
X235544Y267727D01*
X234527Y268000D01*
D02*
G37*
G36*
X167953Y167953D02*
X164500D01*
Y164500D01*
X167953D01*
Y167953D01*
D02*
G37*
G36*
X103923Y180374D02*
X102077D01*
X100266Y180014D01*
X98560Y179307D01*
X97024Y178281D01*
X95719Y176976D01*
X94693Y175440D01*
X93986Y173734D01*
X93626Y171923D01*
Y170077D01*
X93986Y168266D01*
X94693Y166560D01*
X95719Y165024D01*
X97024Y163719D01*
X98560Y162693D01*
X100266Y161986D01*
X102077Y161626D01*
X103923D01*
X105734Y161986D01*
X107440Y162693D01*
X108976Y163719D01*
X110281Y165024D01*
X111307Y166560D01*
X112014Y168266D01*
X112374Y170077D01*
Y171923D01*
X112014Y173734D01*
X111307Y175440D01*
X110281Y176976D01*
X108976Y178281D01*
X107440Y179307D01*
X105734Y180014D01*
X103923Y180374D01*
D02*
G37*
G36*
X167953Y163500D02*
X164500D01*
Y160047D01*
X167953D01*
Y163500D01*
D02*
G37*
G36*
X163500Y167953D02*
X160047D01*
Y167278D01*
X155000D01*
X154152Y167166D01*
X153361Y166839D01*
X152682Y166318D01*
X106642Y120278D01*
X81228D01*
X80716Y120573D01*
X79741Y120835D01*
X79736D01*
Y117000D01*
Y113165D01*
X79741D01*
X80716Y113427D01*
X81228Y113722D01*
X108000D01*
X108424Y113778D01*
X108848Y113834D01*
X109639Y114161D01*
X110318Y114682D01*
X156358Y160722D01*
X160047D01*
Y160047D01*
X163500D01*
Y164000D01*
Y167953D01*
D02*
G37*
G36*
X252500Y152143D02*
Y149500D01*
X255143D01*
X254950Y150222D01*
X254533Y150944D01*
X253944Y151533D01*
X253222Y151950D01*
X252500Y152143D01*
D02*
G37*
G36*
X251500D02*
X250778Y151950D01*
X250056Y151533D01*
X249467Y150944D01*
X249050Y150222D01*
X248857Y149500D01*
X251500D01*
Y152143D01*
D02*
G37*
G36*
X255143Y148500D02*
X252500D01*
Y145857D01*
X253222Y146050D01*
X253944Y146467D01*
X254533Y147056D01*
X254950Y147778D01*
X255143Y148500D01*
D02*
G37*
G36*
X251500D02*
X248857D01*
X249050Y147778D01*
X249467Y147056D01*
X250056Y146467D01*
X250778Y146050D01*
X251500Y145857D01*
Y148500D01*
D02*
G37*
G36*
X369154Y147652D02*
Y144500D01*
X372306D01*
X372062Y145412D01*
X371580Y146246D01*
X370899Y146927D01*
X370065Y147408D01*
X369154Y147652D01*
D02*
G37*
G36*
X289950Y176278D02*
X281000D01*
X280152Y176166D01*
X279361Y175839D01*
X278682Y175318D01*
X278161Y174639D01*
X277834Y173848D01*
X277722Y173000D01*
X277834Y172152D01*
X278161Y171361D01*
X278682Y170682D01*
X279361Y170161D01*
X280152Y169834D01*
X281000Y169722D01*
X288592D01*
X288722Y169592D01*
Y163000D01*
X288834Y162152D01*
X289161Y161361D01*
X289682Y160682D01*
X290361Y160161D01*
X291152Y159834D01*
X292000Y159722D01*
X332943D01*
X333009Y159222D01*
X332327Y159039D01*
X331339Y158469D01*
X330531Y157661D01*
X329961Y156673D01*
X329665Y155571D01*
Y154429D01*
X329961Y153327D01*
X330531Y152339D01*
X331339Y151531D01*
X332327Y150961D01*
X333429Y150665D01*
X334571D01*
X335673Y150961D01*
X336662Y151531D01*
X337469Y152339D01*
X338039Y153327D01*
X338335Y154429D01*
Y155571D01*
X338039Y156673D01*
X337469Y157661D01*
X336662Y158469D01*
X335673Y159039D01*
X334991Y159222D01*
X335057Y159722D01*
X343179D01*
X343245Y159222D01*
X342563Y159039D01*
X341575Y158469D01*
X340768Y157661D01*
X340197Y156673D01*
X339902Y155571D01*
Y154429D01*
X340197Y153327D01*
X340768Y152339D01*
X341575Y151531D01*
X342563Y150961D01*
X343666Y150665D01*
X344807D01*
X345909Y150961D01*
X346898Y151531D01*
X347705Y152339D01*
X348275Y153327D01*
X348571Y154429D01*
Y155571D01*
X348275Y156673D01*
X347705Y157661D01*
X346898Y158469D01*
X345909Y159039D01*
X345227Y159222D01*
X345293Y159722D01*
X350642D01*
X351194Y159170D01*
Y156992D01*
X350899Y156480D01*
X350638Y155505D01*
Y155500D01*
X354472D01*
Y154500D01*
X350638D01*
Y154495D01*
X350899Y153520D01*
X351404Y152646D01*
X352118Y151932D01*
X352992Y151427D01*
X353563Y151274D01*
X363155Y141682D01*
X363833Y141161D01*
X364624Y140834D01*
X365472Y140722D01*
X366321Y140834D01*
X366613Y140955D01*
X367242Y140592D01*
X368063Y140372D01*
X367843Y139547D01*
Y138453D01*
X367934Y138111D01*
X367049Y137874D01*
X366101Y137327D01*
X365327Y136553D01*
X364779Y135605D01*
X364496Y134547D01*
Y133453D01*
X364779Y132395D01*
X365327Y131447D01*
X366101Y130673D01*
X367049Y130126D01*
X368106Y129842D01*
X369201D01*
X370258Y130126D01*
X371206Y130673D01*
X371980Y131447D01*
X372528Y132395D01*
X372811Y133453D01*
Y134547D01*
X372720Y134889D01*
X373605Y135126D01*
X374553Y135673D01*
X375327Y136447D01*
X375874Y137395D01*
X376157Y138453D01*
Y139547D01*
X375874Y140605D01*
X375327Y141553D01*
X374553Y142327D01*
X373605Y142874D01*
X372547Y143157D01*
X372301Y143479D01*
X372306Y143500D01*
X368654D01*
Y144000D01*
X368154D01*
Y147652D01*
X367242Y147408D01*
X366898Y147210D01*
X358199Y155910D01*
X358046Y156480D01*
X357750Y156992D01*
Y160528D01*
X357695Y160952D01*
X357639Y161376D01*
X357311Y162167D01*
X356790Y162846D01*
X354318Y165318D01*
X353639Y165839D01*
X352848Y166166D01*
X352424Y166222D01*
X352000Y166278D01*
X295278D01*
Y170950D01*
X295222Y171374D01*
X295166Y171798D01*
X294839Y172589D01*
X294318Y173268D01*
X292268Y175318D01*
X291589Y175839D01*
X290798Y176166D01*
X290374Y176222D01*
X289950Y176278D01*
D02*
G37*
G36*
X340807Y130335D02*
X339666D01*
X338563Y130039D01*
X337575Y129469D01*
X336768Y128662D01*
X336197Y127673D01*
X335902Y126571D01*
Y125429D01*
X336197Y124327D01*
X336768Y123338D01*
X337575Y122531D01*
X338563Y121961D01*
X339666Y121665D01*
X340807D01*
X341909Y121961D01*
X342898Y122531D01*
X343705Y123338D01*
X344275Y124327D01*
X344571Y125429D01*
Y126571D01*
X344275Y127673D01*
X343705Y128662D01*
X342898Y129469D01*
X341909Y130039D01*
X340807Y130335D01*
D02*
G37*
G36*
X247791Y152665D02*
X240461D01*
Y145335D01*
X240848D01*
Y117874D01*
X240904Y117450D01*
X240960Y117026D01*
X241287Y116235D01*
X241808Y115556D01*
X263682Y93682D01*
X264361Y93161D01*
X265152Y92834D01*
X266000Y92722D01*
X270000D01*
X270848Y92834D01*
X271639Y93161D01*
X272318Y93682D01*
X272839Y94361D01*
X273166Y95152D01*
X273278Y96000D01*
X273264Y96106D01*
X273738Y96340D01*
X276226Y93851D01*
Y76197D01*
X275976Y75947D01*
X275478Y75085D01*
X275220Y74124D01*
Y73128D01*
X275478Y72167D01*
X275722Y71745D01*
Y65278D01*
X266000D01*
X265152Y65166D01*
X264361Y64839D01*
X263682Y64318D01*
X263161Y63639D01*
X262834Y62848D01*
X262722Y62000D01*
X262834Y61152D01*
X263161Y60361D01*
X263682Y59682D01*
X264361Y59161D01*
X265152Y58834D01*
X266000Y58722D01*
X278000D01*
X278424Y58778D01*
X278848Y58834D01*
X279639Y59161D01*
X280318Y59682D01*
X281318Y60682D01*
X281839Y61361D01*
X282166Y62152D01*
X282278Y63000D01*
Y71745D01*
X282522Y72167D01*
X282780Y73128D01*
Y74124D01*
X282522Y75085D01*
X282024Y75947D01*
X281774Y76197D01*
Y95000D01*
X281679Y95718D01*
X281402Y96387D01*
X280961Y96961D01*
X277606Y100317D01*
X277864Y100766D01*
X278502Y100594D01*
X279498D01*
X280459Y100852D01*
X281321Y101350D01*
X282024Y102053D01*
X282522Y102915D01*
X282780Y103876D01*
Y104872D01*
X282522Y105833D01*
X282024Y106695D01*
X281321Y107398D01*
X280459Y107896D01*
X279498Y108153D01*
X278502D01*
X277541Y107896D01*
X277207Y107703D01*
X276774Y107953D01*
Y108000D01*
X276679Y108718D01*
X276402Y109387D01*
X275961Y109961D01*
X275532Y110390D01*
X274958Y110831D01*
X274289Y111108D01*
X273571Y111203D01*
X264720D01*
X258663Y117260D01*
X258854Y117722D01*
X305000D01*
X305424Y117778D01*
X305848Y117834D01*
X306639Y118161D01*
X307318Y118682D01*
X314929Y126293D01*
X315429Y126086D01*
Y125429D01*
X315725Y124327D01*
X316295Y123338D01*
X317102Y122531D01*
X318091Y121961D01*
X319193Y121665D01*
X320335D01*
X321437Y121961D01*
X322425Y122531D01*
X323232Y123338D01*
X323803Y124327D01*
X324098Y125429D01*
Y126571D01*
X323924Y127222D01*
X324308Y127722D01*
X325456D01*
X325840Y127222D01*
X325665Y126571D01*
Y125429D01*
X325961Y124327D01*
X326531Y123338D01*
X327339Y122531D01*
X328327Y121961D01*
X329429Y121665D01*
X330571D01*
X331673Y121961D01*
X332662Y122531D01*
X333469Y123338D01*
X334039Y124327D01*
X334335Y125429D01*
Y126571D01*
X334039Y127673D01*
X333469Y128662D01*
X332662Y129469D01*
X331673Y130039D01*
X330655Y130312D01*
X330416Y130780D01*
X340318Y140682D01*
X340839Y141361D01*
X341166Y142152D01*
X341278Y143000D01*
X341166Y143848D01*
X340839Y144639D01*
X340318Y145318D01*
X339639Y145839D01*
X338848Y146166D01*
X338000Y146278D01*
X337152Y146166D01*
X336361Y145839D01*
X335682Y145318D01*
X324642Y134278D01*
X315000D01*
X314152Y134166D01*
X313361Y133839D01*
X312682Y133318D01*
X303642Y124278D01*
X274970D01*
X274720Y124711D01*
X274796Y124842D01*
X275000Y125605D01*
Y126395D01*
X274796Y127158D01*
X274401Y127842D01*
X273842Y128401D01*
X273158Y128796D01*
X272395Y129000D01*
X271605D01*
X270842Y128796D01*
X270804Y128774D01*
X255000D01*
X254282Y128679D01*
X253613Y128402D01*
X253039Y127961D01*
X249039Y123961D01*
X248598Y123387D01*
X248321Y122718D01*
X248226Y122000D01*
Y121000D01*
X248321Y120282D01*
X248598Y119613D01*
X249039Y119039D01*
X261610Y106468D01*
X262184Y106027D01*
X262853Y105750D01*
X263571Y105655D01*
X265430D01*
X265814Y105155D01*
X265739Y104874D01*
X269000D01*
Y104374D01*
X269500D01*
Y101113D01*
X270266Y101318D01*
X270726Y101584D01*
X271226Y101295D01*
Y100000D01*
X271289Y99525D01*
X270856Y99163D01*
X270848Y99166D01*
X270000Y99278D01*
X267358D01*
X247404Y119232D01*
Y145335D01*
X247791D01*
Y152665D01*
D02*
G37*
G36*
X78736Y120835D02*
X78731D01*
X77756Y120573D01*
X76882Y120069D01*
X76168Y119354D01*
X75663Y118480D01*
X75402Y117505D01*
Y117500D01*
X78736D01*
Y120835D01*
D02*
G37*
G36*
Y116500D02*
X75402D01*
Y116495D01*
X75663Y115520D01*
X76168Y114646D01*
X76882Y113932D01*
X77756Y113427D01*
X78731Y113165D01*
X78736D01*
Y116500D01*
D02*
G37*
G36*
X69571Y121335D02*
X68429D01*
X67327Y121039D01*
X66338Y120469D01*
X65531Y119661D01*
X64961Y118673D01*
X64665Y117571D01*
Y116429D01*
X64961Y115327D01*
X65531Y114339D01*
X66338Y113531D01*
X67327Y112961D01*
X68429Y112665D01*
X69571D01*
X70673Y112961D01*
X71662Y113531D01*
X72469Y114339D01*
X73039Y115327D01*
X73335Y116429D01*
Y117571D01*
X73039Y118673D01*
X72469Y119661D01*
X71662Y120469D01*
X70673Y121039D01*
X69571Y121335D01*
D02*
G37*
G36*
X18978Y174634D02*
X17494D01*
X16062Y174250D01*
X14777Y173508D01*
X13728Y172459D01*
X12986Y171175D01*
X12602Y169742D01*
Y168258D01*
X12986Y166825D01*
X13728Y165541D01*
X14777Y164492D01*
X14958Y164387D01*
Y157528D01*
X15014Y157103D01*
X15070Y156679D01*
X15397Y155889D01*
X15918Y155210D01*
X54429Y116699D01*
Y116429D01*
X54725Y115327D01*
X55295Y114339D01*
X56102Y113531D01*
X57091Y112961D01*
X58193Y112665D01*
X59334D01*
X60437Y112961D01*
X61425Y113531D01*
X62232Y114339D01*
X62803Y115327D01*
X63098Y116429D01*
Y117571D01*
X62803Y118673D01*
X62232Y119661D01*
X61425Y120469D01*
X60437Y121039D01*
X59334Y121335D01*
X59065D01*
X21514Y158885D01*
Y164387D01*
X21696Y164492D01*
X22744Y165541D01*
X23486Y166825D01*
X23870Y168258D01*
Y169742D01*
X23486Y171175D01*
X22744Y172459D01*
X21696Y173508D01*
X20411Y174250D01*
X18978Y174634D01*
D02*
G37*
G36*
X358279Y111279D02*
X347721D01*
Y109349D01*
X347341Y109247D01*
X347220Y109246D01*
X346242Y110225D01*
X345038Y110920D01*
X343695Y111279D01*
X342305D01*
X340962Y110920D01*
X339758Y110225D01*
X338775Y109242D01*
X338289Y108399D01*
X337711D01*
X337225Y109242D01*
X336242Y110225D01*
X335038Y110920D01*
X333695Y111279D01*
X332305D01*
X330962Y110920D01*
X329758Y110225D01*
X328775Y109242D01*
X328080Y108038D01*
X327720Y106695D01*
Y105305D01*
X328080Y103962D01*
X328775Y102758D01*
X329758Y101775D01*
X330962Y101080D01*
X332305Y100721D01*
X333695D01*
X335038Y101080D01*
X336242Y101775D01*
X337225Y102758D01*
X337711Y103601D01*
X338289D01*
X338775Y102758D01*
X339758Y101775D01*
X340962Y101080D01*
X342305Y100721D01*
X343695D01*
X345038Y101080D01*
X346242Y101775D01*
X347220Y102754D01*
X347341Y102753D01*
X347721Y102651D01*
Y100721D01*
X358279D01*
Y111279D01*
D02*
G37*
G36*
X268500Y103874D02*
X265739D01*
X265944Y103108D01*
X266376Y102360D01*
X266986Y101750D01*
X267734Y101318D01*
X268500Y101113D01*
Y103874D01*
D02*
G37*
G36*
X302780Y108153D02*
X295220D01*
Y100594D01*
X302780D01*
Y108153D01*
D02*
G37*
G36*
X289498D02*
X288502D01*
X287541Y107896D01*
X286679Y107398D01*
X285976Y106695D01*
X285478Y105833D01*
X285221Y104872D01*
Y103876D01*
X285478Y102915D01*
X285976Y102053D01*
X286679Y101350D01*
X287541Y100852D01*
X288502Y100594D01*
X289498D01*
X290459Y100852D01*
X291321Y101350D01*
X292024Y102053D01*
X292522Y102915D01*
X292779Y103876D01*
Y104872D01*
X292522Y105833D01*
X292024Y106695D01*
X291321Y107398D01*
X290459Y107896D01*
X289498Y108153D01*
D02*
G37*
G36*
X360625Y80750D02*
X360500D01*
Y76500D01*
X364750D01*
Y76625D01*
X364426Y77833D01*
X363801Y78917D01*
X362917Y79801D01*
X361833Y80426D01*
X360625Y80750D01*
D02*
G37*
G36*
X308000Y83278D02*
X307152Y83166D01*
X306361Y82839D01*
X305682Y82318D01*
X305161Y81639D01*
X304834Y80848D01*
X304722Y80000D01*
Y71408D01*
X303592Y70278D01*
X301704D01*
X301497Y70778D01*
X302024Y71305D01*
X302522Y72167D01*
X302780Y73128D01*
Y74124D01*
X302522Y75085D01*
X302024Y75947D01*
X301321Y76650D01*
X300459Y77148D01*
X299498Y77406D01*
X298502D01*
X297541Y77148D01*
X296679Y76650D01*
X295976Y75947D01*
X295478Y75085D01*
X295220Y74124D01*
Y73128D01*
X295478Y72167D01*
X295976Y71305D01*
X296503Y70778D01*
X296296Y70278D01*
X295000D01*
X294152Y70166D01*
X293361Y69839D01*
X292682Y69318D01*
X292161Y68639D01*
X291834Y67848D01*
X291722Y67000D01*
Y61000D01*
X291834Y60152D01*
X292161Y59361D01*
X292682Y58682D01*
X293361Y58161D01*
X294152Y57834D01*
X295000Y57722D01*
X295848Y57834D01*
X296639Y58161D01*
X297318Y58682D01*
X297839Y59361D01*
X298166Y60152D01*
X298278Y61000D01*
Y63722D01*
X304950D01*
X305374Y63778D01*
X305798Y63834D01*
X306589Y64161D01*
X307268Y64682D01*
X310318Y67732D01*
X310839Y68411D01*
X311166Y69202D01*
X311278Y70050D01*
Y80000D01*
X311166Y80848D01*
X310839Y81639D01*
X310318Y82318D01*
X309639Y82839D01*
X308848Y83166D01*
X308000Y83278D01*
D02*
G37*
G36*
X289498Y77406D02*
X288502D01*
X287541Y77148D01*
X286679Y76650D01*
X285976Y75947D01*
X285478Y75085D01*
X285221Y74124D01*
Y73128D01*
X285478Y72167D01*
X285976Y71305D01*
X286679Y70602D01*
X287541Y70104D01*
X288502Y69846D01*
X289498D01*
X290459Y70104D01*
X291321Y70602D01*
X292024Y71305D01*
X292522Y72167D01*
X292779Y73128D01*
Y74124D01*
X292522Y75085D01*
X292024Y75947D01*
X291321Y76650D01*
X290459Y77148D01*
X289498Y77406D01*
D02*
G37*
G36*
X269498D02*
X268502D01*
X267541Y77148D01*
X266679Y76650D01*
X265976Y75947D01*
X265478Y75085D01*
X265220Y74124D01*
Y73128D01*
X265478Y72167D01*
X265976Y71305D01*
X266679Y70602D01*
X267541Y70104D01*
X268502Y69846D01*
X269498D01*
X270459Y70104D01*
X271321Y70602D01*
X272024Y71305D01*
X272522Y72167D01*
X272779Y73128D01*
Y74124D01*
X272522Y75085D01*
X272024Y75947D01*
X271321Y76650D01*
X270459Y77148D01*
X269498Y77406D01*
D02*
G37*
G36*
X359500Y80750D02*
X359375D01*
X358167Y80426D01*
X357083Y79801D01*
X356560Y79278D01*
X353000D01*
X352576Y79222D01*
X352152Y79166D01*
X351361Y78839D01*
X350682Y78318D01*
X328642Y56278D01*
X314289D01*
X313500Y56489D01*
Y53000D01*
Y49510D01*
X314289Y49722D01*
X330000D01*
X330424Y49778D01*
X330848Y49834D01*
X331639Y50161D01*
X332318Y50682D01*
X354358Y72722D01*
X356560D01*
X357083Y72199D01*
X358167Y71574D01*
X358376Y71518D01*
Y71000D01*
X357974Y70892D01*
X356776Y70201D01*
X355799Y69224D01*
X355108Y68026D01*
X354750Y66691D01*
Y65309D01*
X355108Y63974D01*
X355799Y62776D01*
X356776Y61799D01*
X357974Y61108D01*
X359309Y60750D01*
X360691D01*
X362026Y61108D01*
X363224Y61799D01*
X364201Y62776D01*
X364892Y63974D01*
X365250Y65309D01*
Y66691D01*
X364892Y68026D01*
X364201Y69224D01*
X363224Y70201D01*
X362026Y70892D01*
X361624Y71000D01*
Y71518D01*
X361833Y71574D01*
X362917Y72199D01*
X363801Y73083D01*
X364426Y74167D01*
X364750Y75375D01*
Y75500D01*
X360000D01*
Y76000D01*
X359500D01*
Y80750D01*
D02*
G37*
G36*
X330691Y81250D02*
X329309D01*
X327974Y80892D01*
X326776Y80201D01*
X325799Y79224D01*
X325108Y78026D01*
X324750Y76691D01*
Y75309D01*
X325108Y73974D01*
X325799Y72776D01*
X326776Y71799D01*
X327660Y71289D01*
Y70711D01*
X326776Y70201D01*
X325799Y69224D01*
X325108Y68026D01*
X324750Y66691D01*
Y65309D01*
X325108Y63974D01*
X325799Y62776D01*
X326776Y61799D01*
X327974Y61108D01*
X329309Y60750D01*
X330691D01*
X332026Y61108D01*
X333224Y61799D01*
X334201Y62776D01*
X334892Y63974D01*
X335250Y65309D01*
Y66691D01*
X334892Y68026D01*
X334201Y69224D01*
X333224Y70201D01*
X332340Y70711D01*
Y71289D01*
X333224Y71799D01*
X334201Y72776D01*
X334892Y73974D01*
X335250Y75309D01*
Y76691D01*
X334892Y78026D01*
X334201Y79224D01*
X333224Y80201D01*
X332026Y80892D01*
X330691Y81250D01*
D02*
G37*
G36*
X312500Y56489D02*
X311649Y56261D01*
X310851Y55801D01*
X310199Y55149D01*
X309738Y54351D01*
X309510Y53500D01*
X312500D01*
Y56489D01*
D02*
G37*
G36*
Y52500D02*
X309510D01*
X309738Y51649D01*
X310199Y50851D01*
X310851Y50199D01*
X311649Y49738D01*
X312500Y49510D01*
Y52500D01*
D02*
G37*
G36*
X397923Y31374D02*
X396077D01*
X394266Y31014D01*
X392560Y30307D01*
X391024Y29281D01*
X389719Y27976D01*
X388693Y26440D01*
X387986Y24734D01*
X387626Y22923D01*
Y21077D01*
X387986Y19266D01*
X388693Y17560D01*
X389719Y16024D01*
X391024Y14719D01*
X392560Y13693D01*
X394266Y12986D01*
X396077Y12626D01*
X397923D01*
X399734Y12986D01*
X401440Y13693D01*
X402976Y14719D01*
X404281Y16024D01*
X405307Y17560D01*
X406014Y19266D01*
X406374Y21077D01*
Y22923D01*
X406014Y24734D01*
X405307Y26440D01*
X404281Y27976D01*
X402976Y29281D01*
X401440Y30307D01*
X399734Y31014D01*
X397923Y31374D01*
D02*
G37*
G36*
X21923Y26374D02*
X20077D01*
X18266Y26014D01*
X16560Y25307D01*
X15024Y24281D01*
X13719Y22976D01*
X12693Y21440D01*
X11986Y19734D01*
X11626Y17923D01*
Y16077D01*
X11986Y14266D01*
X12693Y12560D01*
X13719Y11024D01*
X15024Y9719D01*
X16560Y8693D01*
X18266Y7986D01*
X20077Y7626D01*
X21923D01*
X23734Y7986D01*
X25440Y8693D01*
X26976Y9719D01*
X28281Y11024D01*
X29307Y12560D01*
X30014Y14266D01*
X30374Y16077D01*
Y17923D01*
X30014Y19734D01*
X29307Y21440D01*
X28281Y22976D01*
X26976Y24281D01*
X25440Y25307D01*
X23734Y26014D01*
X21923Y26374D01*
D02*
G37*
%LPD*%
G36*
X288261Y262461D02*
X317336D01*
X318598Y261199D01*
X318364Y260726D01*
X318000Y260774D01*
X289149D01*
X287921Y262002D01*
X288155Y262475D01*
X288261Y262461D01*
D02*
G37*
D80*
X502000Y148000D02*
X520000D01*
X485000Y131000D02*
X502000Y148000D01*
X498000Y117000D02*
X512000D01*
X488000Y112000D02*
X493074Y117074D01*
X497926D02*
X498000Y117000D01*
X493074Y117074D02*
X497926D01*
X512000Y117000D02*
X513000Y116000D01*
X529000D01*
X470000Y112000D02*
X488000D01*
X454000Y107000D02*
X532536D01*
X540970Y115435D01*
X450000Y111000D02*
X454000Y107000D01*
X540970Y122970D02*
X550000Y132000D01*
X540970Y115435D02*
Y122970D01*
X538000Y92000D02*
X550000D01*
X533000Y97000D02*
X538000Y92000D01*
X506000Y97000D02*
X533000D01*
X498025Y82000D02*
X510000D01*
X456984Y76000D02*
X491950D01*
X495000Y79050D01*
Y84950D01*
X497000Y73000D02*
X500581Y76581D01*
X460000Y73000D02*
X497000D01*
X495000Y84950D02*
X497050Y87000D01*
X511478D01*
X512478Y86000D01*
X516000D01*
X515638Y76407D02*
X523000D01*
X515465Y76581D02*
X515638Y76407D01*
X500581Y76581D02*
X515465D01*
X499472Y265000D02*
X546716D01*
X556559Y274843D01*
X504528Y326874D02*
X556559Y274843D01*
X490000Y326874D02*
X504528D01*
X453000Y318000D02*
X461874Y326874D01*
X490000D01*
X264000Y218000D02*
X272000Y210000D01*
X286904Y145621D02*
Y147096D01*
X282000Y152000D02*
X286904Y147096D01*
X282000Y152000D02*
Y160000D01*
X286904Y145621D02*
X287000Y145525D01*
X280464Y291000D02*
X317536D01*
X279000Y292464D02*
X280464Y291000D01*
X279000Y300000D02*
Y303000D01*
Y292464D02*
Y300000D01*
X259211D02*
X279000D01*
X254585Y295374D02*
X259211Y300000D01*
X317536Y291000D02*
X319000Y292464D01*
Y303000D02*
X324000Y308000D01*
X319000Y292464D02*
Y303000D01*
X168000Y293464D02*
Y330536D01*
Y293464D02*
X170464Y291000D01*
X318000Y258000D02*
X341374Y234626D01*
X344000D01*
X288000Y258000D02*
X318000D01*
X264000Y218000D02*
Y234626D01*
X255000Y126000D02*
X272000D01*
X251000Y122000D02*
X255000Y126000D01*
X251000Y121000D02*
Y122000D01*
Y121000D02*
X263571Y108429D01*
X273571D01*
X274000Y108000D01*
Y100000D02*
Y108000D01*
Y100000D02*
X279000Y95000D01*
Y73626D02*
Y95000D01*
X254000Y292000D02*
Y295374D01*
Y292000D02*
X288000Y258000D01*
X254000Y295374D02*
X254585D01*
X191874Y224000D02*
X213374D01*
X224000Y234626D01*
Y286000D01*
X229000Y291000D01*
X274000Y308000D02*
X279000Y303000D01*
X170464Y291000D02*
X229000D01*
X169464Y332000D02*
X174000D01*
X168000Y330536D02*
X169464Y332000D01*
X229000Y291000D02*
Y299000D01*
Y291000D02*
X249626D01*
X254000Y295374D01*
X227678Y300322D02*
Y305574D01*
X227252Y306000D02*
X227678Y305574D01*
Y300322D02*
X229000Y299000D01*
X208977Y315023D02*
X209000Y315000D01*
X208977Y315023D02*
Y326213D01*
D81*
X480000Y127000D02*
X529000D01*
X486000Y152000D02*
X523000D01*
X475000Y141000D02*
X486000Y152000D01*
X523000D02*
X533000Y142000D01*
X475000Y128000D02*
Y141000D01*
X533000Y142000D02*
X550000D01*
X471000Y103000D02*
X475000Y99000D01*
X434050Y103000D02*
X471000D01*
X475000Y94000D02*
Y99000D01*
X431902Y96000D02*
X470000D01*
X426000Y101902D02*
X431902Y96000D01*
X432000Y105050D02*
Y128000D01*
Y105050D02*
X434050Y103000D01*
X432000Y128000D02*
X440000Y136000D01*
X428050Y142000D02*
X455000D01*
X426000Y139950D02*
X428050Y142000D01*
X426000Y101902D02*
Y139950D01*
X440000Y136000D02*
X459000D01*
X487000Y164000D01*
X455000Y142000D02*
X477000Y164000D01*
X457000Y189000D02*
X478000D01*
X448050D02*
X457000D01*
Y174000D02*
Y189000D01*
X507000Y196000D02*
X530000D01*
X496000D02*
X507000D01*
Y224000D01*
X453000Y260050D02*
X455050Y258000D01*
X453000Y260050D02*
Y280000D01*
X455050Y258000D02*
X473000D01*
X507000Y224000D01*
X446000Y191050D02*
X448050Y189000D01*
X446000Y191050D02*
Y212888D01*
X453000Y219888D01*
Y244000D01*
X462220Y217000D02*
X472000D01*
X453220Y208000D02*
X462220Y217000D01*
X530000Y196000D02*
X556559Y222559D01*
Y255157D01*
X128000Y209000D02*
X228000D01*
X82000D02*
X128000D01*
X82000Y186000D02*
Y209000D01*
X292000Y163000D02*
Y170950D01*
X339000Y193000D02*
X350950D01*
X353000Y188000D02*
Y190950D01*
X350950Y193000D02*
X353000Y190950D01*
X326000Y206000D02*
X339000Y193000D01*
X242000Y184000D02*
Y195000D01*
X227050Y179000D02*
X241000D01*
X228000Y209000D02*
X242000Y195000D01*
X118000Y202000D02*
X230000D01*
X113000Y197000D02*
X118000Y202000D01*
X172680Y124630D02*
X227050Y179000D01*
X244126Y117874D02*
X266000Y96000D01*
X270000D01*
X244126Y117874D02*
Y149000D01*
X164000Y124630D02*
X172680D01*
X155000Y164000D02*
X164000D01*
X264000Y290000D02*
Y295374D01*
X288261Y265739D02*
X318694D01*
X264000Y290000D02*
X288261Y265739D01*
X353000Y76000D02*
X360000D01*
X313000Y53000D02*
X330000D01*
X353000Y76000D01*
X281000Y173000D02*
X289950D01*
X79236Y117000D02*
X108000D01*
X155000Y164000D01*
X308000Y70050D02*
Y80000D01*
X304950Y67000D02*
X308000Y70050D01*
X295000Y67000D02*
X304950D01*
X289950Y173000D02*
X292000Y170950D01*
X318694Y265739D02*
X348106Y236327D01*
Y231944D02*
X351050Y229000D01*
X370126D01*
X348106Y231944D02*
Y236327D01*
X74000Y186000D02*
X82000D01*
X57000Y169000D02*
X74000Y186000D01*
X47764Y169000D02*
X57000D01*
X274000Y220000D02*
Y234626D01*
X354472Y155000D02*
X365472Y144000D01*
X292000Y163000D02*
X352000D01*
X354472Y160528D01*
Y155000D02*
Y160528D01*
X257000Y121000D02*
X305000D01*
X295000Y61000D02*
Y67000D01*
X305000Y121000D02*
X315000Y131000D01*
X266000Y62000D02*
X278000D01*
X279000Y63000D01*
Y73626D01*
X254000Y264000D02*
X279894Y238106D01*
Y232819D02*
Y238106D01*
X280000Y216000D02*
X290000Y206000D01*
X279894Y232819D02*
X280000Y232713D01*
Y216000D02*
Y232713D01*
X234000Y264000D02*
X254000D01*
X128000Y246000D02*
X133000Y251000D01*
X128000Y209000D02*
Y246000D01*
X315000Y131000D02*
X326000D01*
X338000Y143000D01*
X290000Y206000D02*
X326000D01*
X18236Y157528D02*
Y169000D01*
Y157528D02*
X58764Y117000D01*
X90000Y276000D02*
X101000Y265000D01*
Y252000D02*
Y265000D01*
X47764Y208764D02*
Y229079D01*
X33000Y194000D02*
X47764Y208764D01*
X35000Y275000D02*
X69000Y309000D01*
X35000Y267000D02*
Y275000D01*
Y267000D02*
X47764Y254236D01*
Y248921D02*
Y254236D01*
X370126Y229000D02*
X384000Y215126D01*
X284573Y304801D02*
Y307427D01*
X284000Y308000D02*
X284573Y307427D01*
Y304801D02*
X294000Y295374D01*
X284000D02*
Y295688D01*
X204000Y331189D02*
X208977Y326213D01*
X204000Y331189D02*
Y332000D01*
X209000Y310374D02*
X224000Y295374D01*
X209000Y310374D02*
Y315000D01*
D83*
X529000Y287047D02*
D03*
Y242953D02*
D03*
D84*
X556559Y255157D02*
D03*
Y274843D02*
D03*
X499472Y265000D02*
D03*
Y255157D02*
D03*
Y274843D02*
D03*
D85*
X453000Y280000D02*
D03*
Y318000D02*
D03*
Y244000D02*
D03*
X453220Y208000D02*
D03*
X384000Y223000D02*
D03*
X252000Y149000D02*
D03*
X101000Y238220D02*
D03*
X133000Y251000D02*
D03*
X490000Y326874D02*
D03*
D86*
X466780Y280000D02*
D03*
Y318000D02*
D03*
Y244000D02*
D03*
X467000Y208000D02*
D03*
X244126Y149000D02*
D03*
X125126Y251000D02*
D03*
D87*
X510000Y142000D02*
D03*
D88*
Y132000D02*
D03*
Y122000D02*
D03*
Y112000D02*
D03*
Y102000D02*
D03*
Y92000D02*
D03*
Y82000D02*
D03*
Y72000D02*
D03*
X550000D02*
D03*
Y82000D02*
D03*
Y92000D02*
D03*
Y102000D02*
D03*
Y112000D02*
D03*
Y122000D02*
D03*
Y132000D02*
D03*
Y142000D02*
D03*
D89*
X447000Y164000D02*
D03*
Y174000D02*
D03*
X457000Y164000D02*
D03*
Y174000D02*
D03*
X467000Y164000D02*
D03*
Y174000D02*
D03*
X477000Y164000D02*
D03*
Y174000D02*
D03*
X487000Y164000D02*
D03*
X274000Y308000D02*
D03*
Y318000D02*
D03*
X284000Y308000D02*
D03*
Y318000D02*
D03*
X294000Y308000D02*
D03*
X174000Y332000D02*
D03*
Y322000D02*
D03*
X184000Y332000D02*
D03*
Y322000D02*
D03*
X194000Y332000D02*
D03*
Y322000D02*
D03*
X204000Y332000D02*
D03*
Y322000D02*
D03*
X214000Y332000D02*
D03*
X354000Y308000D02*
D03*
X344000D02*
D03*
X334000D02*
D03*
D90*
X487000Y174000D02*
D03*
X294000Y318000D02*
D03*
X214000Y322000D02*
D03*
X324000Y308000D02*
D03*
D91*
X384000Y215126D02*
D03*
X101000Y252000D02*
D03*
X490000Y319000D02*
D03*
D92*
X354000Y234626D02*
D03*
X174000Y295374D02*
D03*
X184000D02*
D03*
X194000D02*
D03*
X204000D02*
D03*
X214000D02*
D03*
X224000D02*
D03*
X234000D02*
D03*
X244000D02*
D03*
X254000D02*
D03*
X264000D02*
D03*
X274000D02*
D03*
X284000D02*
D03*
X294000D02*
D03*
X304000D02*
D03*
X314000D02*
D03*
X324000D02*
D03*
X334000D02*
D03*
X344000D02*
D03*
X354000D02*
D03*
X364000D02*
D03*
Y234626D02*
D03*
X344000D02*
D03*
X334000D02*
D03*
X324000D02*
D03*
X314000D02*
D03*
X304000D02*
D03*
X294000D02*
D03*
X284000D02*
D03*
X274000D02*
D03*
X264000D02*
D03*
X254000D02*
D03*
X244000D02*
D03*
X234000D02*
D03*
X224000D02*
D03*
X214000D02*
D03*
X204000D02*
D03*
X194000D02*
D03*
X184000D02*
D03*
D93*
X340236Y126000D02*
D03*
X330000D02*
D03*
X319764D02*
D03*
X354472Y155000D02*
D03*
X344236D02*
D03*
X334000D02*
D03*
X58764Y117000D02*
D03*
X69000D02*
D03*
X79236D02*
D03*
D94*
X299000Y73626D02*
D03*
X289000D02*
D03*
X279000D02*
D03*
X269000D02*
D03*
Y104374D02*
D03*
X279000D02*
D03*
X289000D02*
D03*
D95*
X299000D02*
D03*
D96*
X368654Y134000D02*
D03*
X372000Y139000D02*
D03*
X368654Y144000D02*
D03*
X319874Y222000D02*
D03*
X312000D02*
D03*
X304126D02*
D03*
X296252D02*
D03*
D97*
X333000Y106000D02*
D03*
X343000D02*
D03*
D98*
X353000D02*
D03*
D99*
X368409Y326000D02*
D03*
X384000D02*
D03*
D100*
X399591D02*
D03*
D101*
X360000Y76000D02*
D03*
Y66000D02*
D03*
X330000D02*
D03*
Y76000D02*
D03*
D102*
X164000Y124630D02*
D03*
D103*
Y164000D02*
D03*
D104*
X18236Y169000D02*
D03*
Y229079D02*
D03*
Y248921D02*
D03*
Y268764D02*
D03*
X47764D02*
D03*
Y248921D02*
D03*
Y229079D02*
D03*
Y169000D02*
D03*
D105*
X69000Y269000D02*
D03*
Y289000D02*
D03*
Y309000D02*
D03*
X74000Y233000D02*
D03*
Y213000D02*
D03*
Y193000D02*
D03*
D106*
X69000Y329000D02*
D03*
X74000Y173000D02*
D03*
D107*
X174000Y234626D02*
D03*
D108*
X243000Y306000D02*
D03*
X191874Y224000D02*
D03*
D109*
X235126Y306000D02*
D03*
X227252D02*
D03*
X184000Y224000D02*
D03*
X176126D02*
D03*
D110*
X288378Y222000D02*
D03*
D111*
X234000Y221000D02*
D03*
D112*
X244000D02*
D03*
D113*
X103000Y171000D02*
D03*
X144000Y226000D02*
D03*
X21000Y17000D02*
D03*
X397000Y22000D02*
D03*
X324000Y333000D02*
D03*
X397000Y267000D02*
D03*
X433000Y14000D02*
D03*
X551000D02*
D03*
X433000Y335000D02*
D03*
X551000D02*
D03*
D114*
X520000Y148000D02*
D03*
X480000Y127000D02*
D03*
X485000Y131000D02*
D03*
X470000Y112000D02*
D03*
X529000Y116000D02*
D03*
Y127000D02*
D03*
X475000Y128000D02*
D03*
X450000Y111000D02*
D03*
X506000Y97000D02*
D03*
X470000Y96000D02*
D03*
X475000Y94000D02*
D03*
X498025Y82000D02*
D03*
X456984Y76000D02*
D03*
X460000Y73000D02*
D03*
X523000Y76407D02*
D03*
X516000Y86000D02*
D03*
X478000Y189000D02*
D03*
X472000Y217000D02*
D03*
X496000Y196000D02*
D03*
X272000Y210000D02*
D03*
X242000Y184000D02*
D03*
X230000Y202000D02*
D03*
X287000Y145525D02*
D03*
X281000Y173000D02*
D03*
X282000Y160000D02*
D03*
X308000Y80000D02*
D03*
X302000Y142000D02*
D03*
X274000Y220000D02*
D03*
X270000Y96000D02*
D03*
X272000Y126000D02*
D03*
X257000Y121000D02*
D03*
X266000Y62000D02*
D03*
X295000Y61000D02*
D03*
X338000Y143000D02*
D03*
X113000Y197000D02*
D03*
X90000Y276000D02*
D03*
D115*
X353000Y188000D02*
D03*
D116*
X313000Y53000D02*
D03*
X234000Y264000D02*
D03*
X33000Y194000D02*
D03*
D117*
X241000Y179000D02*
X278000Y142000D01*
X302000D01*
M02*
