G04*
G04 #@! TF.GenerationSoftware,Altium Limited,Altium Designer,22.4.2 (48)*
G04*
G04 Layer_Color=65535*
%FSLAX25Y25*%
%MOIN*%
G70*
G04*
G04 #@! TF.SameCoordinates,783B880F-F190-4A79-90E1-06678E82802B*
G04*
G04*
G04 #@! TF.FilePolarity,Positive*
G04*
G01*
G75*
%ADD10C,0.01000*%
%ADD11C,0.00787*%
%ADD12C,0.00984*%
%ADD13C,0.00394*%
%ADD14C,0.01575*%
%ADD15C,0.04500*%
D10*
X494429Y274972D02*
G03*
X494429Y274972I-323J0D01*
G01*
X502622Y240591D02*
X518764D01*
X539236D02*
X555378D01*
X502622Y289409D02*
X518764D01*
X539236D02*
X555378D01*
X124000Y236999D02*
X123001Y237999D01*
X121001D01*
X120002Y236999D01*
Y233001D01*
X121001Y232001D01*
X123001D01*
X124000Y233001D01*
X129998Y237999D02*
X126000D01*
Y235000D01*
X127999Y236000D01*
X128999D01*
X129998Y235000D01*
Y233001D01*
X128999Y232001D01*
X126999D01*
X126000Y233001D01*
X189502Y209001D02*
Y214999D01*
X192501D01*
X193501Y213999D01*
Y212000D01*
X192501Y211000D01*
X189502D01*
X191502D02*
X193501Y209001D01*
X195501D02*
X197500D01*
X196500D01*
Y214999D01*
X195501Y213999D01*
X204498Y214999D02*
X202498Y213999D01*
X200499Y212000D01*
Y210001D01*
X201499Y209001D01*
X203498D01*
X204498Y210001D01*
Y211000D01*
X203498Y212000D01*
X200499D01*
X84002Y213999D02*
X88000D01*
Y212999D01*
X84002Y209001D01*
Y208001D01*
X88000D01*
X93998D02*
X90000D01*
X93998Y212000D01*
Y212999D01*
X92999Y213999D01*
X90999D01*
X90000Y212999D01*
X494300Y305898D02*
Y300900D01*
X495300Y299900D01*
X497299D01*
X498299Y300900D01*
Y305898D01*
X500298Y299900D02*
X502297D01*
X501298D01*
Y305898D01*
X500298Y304898D01*
X505296Y299900D02*
Y300900D01*
X506296D01*
Y299900D01*
X505296D01*
X514293D02*
X510295D01*
X514293Y303899D01*
Y304898D01*
X513294Y305898D01*
X511295D01*
X510295Y304898D01*
X374002Y124999D02*
X378000D01*
X376001D01*
Y119001D01*
X383998Y124999D02*
X380000D01*
Y122000D01*
X381999Y123000D01*
X382999D01*
X383998Y122000D01*
Y120001D01*
X382999Y119001D01*
X380999D01*
X380000Y120001D01*
X344002Y145999D02*
X348000D01*
X346001D01*
Y140001D01*
X352999D02*
Y145999D01*
X350000Y143000D01*
X353998D01*
X367002Y99999D02*
X371000D01*
X369001D01*
Y94001D01*
X373000Y98999D02*
X373999Y99999D01*
X375999D01*
X376998Y98999D01*
Y98000D01*
X375999Y97000D01*
X374999D01*
X375999D01*
X376998Y96000D01*
Y95001D01*
X375999Y94001D01*
X373999D01*
X373000Y95001D01*
X344002Y133999D02*
X348000D01*
X346001D01*
Y128001D01*
X353998D02*
X350000D01*
X353998Y132000D01*
Y132999D01*
X352999Y133999D01*
X350999D01*
X350000Y132999D01*
X56500Y135598D02*
X60499D01*
X58499D01*
Y129600D01*
X62498D02*
X64497D01*
X63498D01*
Y135598D01*
X62498Y134598D01*
X16002Y278001D02*
Y283999D01*
X19001D01*
X20001Y282999D01*
Y281000D01*
X19001Y280000D01*
X16002D01*
X18002D02*
X20001Y278001D01*
X25999Y283999D02*
X22000D01*
Y278001D01*
X25999D01*
X22000Y281000D02*
X24000D01*
X27998Y278001D02*
X29998D01*
X28998D01*
Y283999D01*
X27998Y282999D01*
X223003Y341001D02*
Y346999D01*
X226002D01*
X227001Y345999D01*
Y344000D01*
X226002Y343000D01*
X223003D01*
X225002D02*
X227001Y341001D01*
X232999D02*
X229001D01*
X232999Y345000D01*
Y345999D01*
X232000Y346999D01*
X230000D01*
X229001Y345999D01*
X238997Y341001D02*
X234999D01*
X238997Y345000D01*
Y345999D01*
X237998Y346999D01*
X235998D01*
X234999Y345999D01*
X235002Y321001D02*
Y326999D01*
X238001D01*
X239001Y325999D01*
Y324000D01*
X238001Y323000D01*
X235002D01*
X237002D02*
X239001Y321001D01*
X244999D02*
X241000D01*
X244999Y325000D01*
Y325999D01*
X243999Y326999D01*
X242000D01*
X241000Y325999D01*
X246998Y321001D02*
X248998D01*
X247998D01*
Y326999D01*
X246998Y325999D01*
X323003Y167001D02*
Y172999D01*
X326002D01*
X327001Y171999D01*
Y170000D01*
X326002Y169000D01*
X323003D01*
X325002D02*
X327001Y167001D01*
X332999D02*
X329001D01*
X332999Y171000D01*
Y171999D01*
X332000Y172999D01*
X330000D01*
X329001Y171999D01*
X334999D02*
X335998Y172999D01*
X337998D01*
X338997Y171999D01*
Y168001D01*
X337998Y167001D01*
X335998D01*
X334999Y168001D01*
Y171999D01*
X324502Y176001D02*
Y181999D01*
X327502D01*
X328501Y180999D01*
Y179000D01*
X327502Y178000D01*
X324502D01*
X326502D02*
X328501Y176001D01*
X330501D02*
X332500D01*
X331500D01*
Y181999D01*
X330501Y180999D01*
X335499Y177001D02*
X336498Y176001D01*
X338498D01*
X339498Y177001D01*
Y180999D01*
X338498Y181999D01*
X336498D01*
X335499Y180999D01*
Y180000D01*
X336498Y179000D01*
X339498D01*
X358502Y115001D02*
Y120999D01*
X361502D01*
X362501Y119999D01*
Y118000D01*
X361502Y117000D01*
X358502D01*
X360502D02*
X362501Y115001D01*
X364500D02*
X366500D01*
X365500D01*
Y120999D01*
X364500Y119999D01*
X369499D02*
X370498Y120999D01*
X372498D01*
X373498Y119999D01*
Y119000D01*
X372498Y118000D01*
X373498Y117000D01*
Y116001D01*
X372498Y115001D01*
X370498D01*
X369499Y116001D01*
Y117000D01*
X370498Y118000D01*
X369499Y119000D01*
Y119999D01*
X370498Y118000D02*
X372498D01*
X305502Y143001D02*
Y148999D01*
X308502D01*
X309501Y147999D01*
Y146000D01*
X308502Y145000D01*
X305502D01*
X307502D02*
X309501Y143001D01*
X311501D02*
X313500D01*
X312500D01*
Y148999D01*
X311501Y147999D01*
X316499Y148999D02*
X320498D01*
Y147999D01*
X316499Y144001D01*
Y143001D01*
X259502Y118001D02*
Y123999D01*
X262502D01*
X263501Y122999D01*
Y121000D01*
X262502Y120000D01*
X259502D01*
X261502D02*
X263501Y118001D01*
X265500D02*
X267500D01*
X266500D01*
Y123999D01*
X265500Y122999D01*
X274498Y123999D02*
X270499D01*
Y121000D01*
X272498Y122000D01*
X273498D01*
X274498Y121000D01*
Y119001D01*
X273498Y118001D01*
X271498D01*
X270499Y119001D01*
X268003Y141001D02*
Y146999D01*
X271002D01*
X272002Y145999D01*
Y144000D01*
X271002Y143000D01*
X268003D01*
X270002D02*
X272002Y141001D01*
X274001D02*
X276000D01*
X275001D01*
Y146999D01*
X274001Y145999D01*
X281998Y141001D02*
Y146999D01*
X278999Y144000D01*
X282998D01*
X284997Y141001D02*
Y142001D01*
X285997D01*
Y141001D01*
X284997D01*
X302502Y111001D02*
Y116999D01*
X305502D01*
X306501Y115999D01*
Y114000D01*
X305502Y113000D01*
X302502D01*
X304502D02*
X306501Y111001D01*
X308501D02*
X310500D01*
X309500D01*
Y116999D01*
X308501Y115999D01*
X313499D02*
X314498Y116999D01*
X316498D01*
X317498Y115999D01*
Y115000D01*
X316498Y114000D01*
X315498D01*
X316498D01*
X317498Y113000D01*
Y112001D01*
X316498Y111001D01*
X314498D01*
X313499Y112001D01*
X300502Y154001D02*
Y159999D01*
X303502D01*
X304501Y158999D01*
Y157000D01*
X303502Y156000D01*
X300502D01*
X302502D02*
X304501Y154001D01*
X306501D02*
X308500D01*
X307500D01*
Y159999D01*
X306501Y158999D01*
X315498Y154001D02*
X311499D01*
X315498Y158000D01*
Y158999D01*
X314498Y159999D01*
X312498D01*
X311499Y158999D01*
X301502Y131001D02*
Y136999D01*
X304501D01*
X305501Y135999D01*
Y134000D01*
X304501Y133000D01*
X301502D01*
X303502D02*
X305501Y131001D01*
X307500D02*
X309500D01*
X308500D01*
Y136999D01*
X307500Y135999D01*
X312498Y131001D02*
X314498D01*
X313498D01*
Y136999D01*
X312498Y135999D01*
X67100Y140000D02*
Y145998D01*
X70099D01*
X71099Y144998D01*
Y142999D01*
X70099Y141999D01*
X67100D01*
X69099D02*
X71099Y140000D01*
X73098D02*
X75097D01*
X74098D01*
Y145998D01*
X73098Y144998D01*
X78096D02*
X79096Y145998D01*
X81095D01*
X82095Y144998D01*
Y141000D01*
X81095Y140000D01*
X79096D01*
X78096Y141000D01*
Y144998D01*
X307002Y85001D02*
Y90999D01*
X310001D01*
X311000Y89999D01*
Y88000D01*
X310001Y87000D01*
X307002D01*
X309001D02*
X311000Y85001D01*
X313000Y86001D02*
X313999Y85001D01*
X315999D01*
X316998Y86001D01*
Y89999D01*
X315999Y90999D01*
X313999D01*
X313000Y89999D01*
Y89000D01*
X313999Y88000D01*
X316998D01*
X250002Y130001D02*
Y135999D01*
X253001D01*
X254000Y134999D01*
Y133000D01*
X253001Y132000D01*
X250002D01*
X252001D02*
X254000Y130001D01*
X256000Y134999D02*
X256999Y135999D01*
X258999D01*
X259998Y134999D01*
Y134000D01*
X258999Y133000D01*
X259998Y132000D01*
Y131001D01*
X258999Y130001D01*
X256999D01*
X256000Y131001D01*
Y132000D01*
X256999Y133000D01*
X256000Y134000D01*
Y134999D01*
X256999Y133000D02*
X258999D01*
X53742Y98001D02*
Y103999D01*
X56741D01*
X57740Y102999D01*
Y101000D01*
X56741Y100000D01*
X53742D01*
X55741D02*
X57740Y98001D01*
X59740Y103999D02*
X63739D01*
Y102999D01*
X59740Y99001D01*
Y98001D01*
X100002Y208001D02*
Y213999D01*
X103001D01*
X104000Y212999D01*
Y211000D01*
X103001Y210000D01*
X100002D01*
X102001D02*
X104000Y208001D01*
X109998Y213999D02*
X107999Y212999D01*
X106000Y211000D01*
Y209001D01*
X106999Y208001D01*
X108999D01*
X109998Y209001D01*
Y210000D01*
X108999Y211000D01*
X106000D01*
X242002Y87001D02*
Y92999D01*
X245001D01*
X246000Y91999D01*
Y90000D01*
X245001Y89000D01*
X242002D01*
X244001D02*
X246000Y87001D01*
X251998Y92999D02*
X248000D01*
Y90000D01*
X249999Y91000D01*
X250999D01*
X251998Y90000D01*
Y88001D01*
X250999Y87001D01*
X248999D01*
X248000Y88001D01*
X280002Y53001D02*
Y58999D01*
X283001D01*
X284000Y57999D01*
Y56000D01*
X283001Y55000D01*
X280002D01*
X282001D02*
X284000Y53001D01*
X288999D02*
Y58999D01*
X286000Y56000D01*
X289998D01*
X96002Y185001D02*
Y190999D01*
X99001D01*
X100000Y189999D01*
Y188000D01*
X99001Y187000D01*
X96002D01*
X98001D02*
X100000Y185001D01*
X102000Y189999D02*
X102999Y190999D01*
X104999D01*
X105998Y189999D01*
Y189000D01*
X104999Y188000D01*
X103999D01*
X104999D01*
X105998Y187000D01*
Y186001D01*
X104999Y185001D01*
X102999D01*
X102000Y186001D01*
X493999Y213503D02*
X488001D01*
Y216502D01*
X489001Y217502D01*
X491000D01*
X492000Y216502D01*
Y213503D01*
Y215503D02*
X493999Y217502D01*
X489001Y219501D02*
X488001Y220501D01*
Y222500D01*
X489001Y223500D01*
X490000D01*
X491000Y222500D01*
Y221501D01*
Y222500D01*
X492000Y223500D01*
X492999D01*
X493999Y222500D01*
Y220501D01*
X492999Y219501D01*
X493999Y225500D02*
X492999D01*
Y226499D01*
X493999D01*
Y225500D01*
Y234497D02*
Y230498D01*
X490000Y234497D01*
X489001D01*
X488001Y233497D01*
Y231498D01*
X489001Y230498D01*
X291002Y92001D02*
Y97999D01*
X294001D01*
X295000Y96999D01*
Y95000D01*
X294001Y94000D01*
X291002D01*
X293001D02*
X295000Y92001D01*
X300998D02*
X297000D01*
X300998Y96000D01*
Y96999D01*
X299999Y97999D01*
X297999D01*
X297000Y96999D01*
X484999Y213503D02*
X479001D01*
Y216502D01*
X480001Y217502D01*
X482000D01*
X483000Y216502D01*
Y213503D01*
Y215503D02*
X484999Y217502D01*
Y223500D02*
Y219501D01*
X481000Y223500D01*
X480001D01*
X479001Y222500D01*
Y220501D01*
X480001Y219501D01*
X484999Y225500D02*
X483999D01*
Y226499D01*
X484999D01*
Y225500D01*
Y234497D02*
Y230498D01*
X481000Y234497D01*
X480001D01*
X479001Y233497D01*
Y231498D01*
X480001Y230498D01*
X244001Y70001D02*
Y75999D01*
X247000D01*
X248000Y74999D01*
Y73000D01*
X247000Y72000D01*
X244001D01*
X246001D02*
X248000Y70001D01*
X249999D02*
X251999D01*
X250999D01*
Y75999D01*
X249999Y74999D01*
X507003Y209001D02*
Y214999D01*
X510002D01*
X511002Y213999D01*
Y212000D01*
X510002Y211000D01*
X507003D01*
X509003D02*
X511002Y209001D01*
X513001D02*
X515001D01*
X514001D01*
Y214999D01*
X513001Y213999D01*
X518000Y209001D02*
Y210001D01*
X518999D01*
Y209001D01*
X518000D01*
X526997D02*
X522998D01*
X526997Y213000D01*
Y213999D01*
X525997Y214999D01*
X523998D01*
X522998Y213999D01*
X369002Y70999D02*
Y65001D01*
X373000D01*
X378998D02*
X375000D01*
X378998Y69000D01*
Y69999D01*
X377999Y70999D01*
X375999D01*
X375000Y69999D01*
X339001Y213999D02*
Y208001D01*
X343000D01*
X344999D02*
X346999D01*
X345999D01*
Y213999D01*
X344999Y212999D01*
X423502Y171999D02*
Y166001D01*
Y168000D01*
X427501Y171999D01*
X424502Y169000D01*
X427501Y166001D01*
X429500D02*
X431500D01*
X430500D01*
Y171999D01*
X429500Y170999D01*
X434499D02*
X435499Y171999D01*
X437498D01*
X438498Y170999D01*
Y170000D01*
X437498Y169000D01*
X436498D01*
X437498D01*
X438498Y168000D01*
Y167001D01*
X437498Y166001D01*
X435499D01*
X434499Y167001D01*
X169502Y346999D02*
Y341001D01*
Y343000D01*
X173501Y346999D01*
X170502Y344000D01*
X173501Y341001D01*
X175501D02*
X177500D01*
X176500D01*
Y346999D01*
X175501Y345999D01*
X184498Y341001D02*
X180499D01*
X184498Y345000D01*
Y345999D01*
X183498Y346999D01*
X181499D01*
X180499Y345999D01*
X291502Y330999D02*
Y325001D01*
Y327000D01*
X295501Y330999D01*
X292502Y328000D01*
X295501Y325001D01*
X297500D02*
X299500D01*
X298500D01*
Y330999D01*
X297500Y329999D01*
X302499Y325001D02*
X304498D01*
X303498D01*
Y330999D01*
X302499Y329999D01*
X222754Y317999D02*
Y312001D01*
Y314000D01*
X226753Y317999D01*
X223754Y315000D01*
X226753Y312001D01*
X228752D02*
X230752D01*
X229752D01*
Y317999D01*
X228752Y316999D01*
X233751D02*
X234751Y317999D01*
X236750D01*
X237750Y316999D01*
Y313001D01*
X236750Y312001D01*
X234751D01*
X233751Y313001D01*
Y316999D01*
X300002Y215999D02*
Y210001D01*
Y212000D01*
X304000Y215999D01*
X301001Y213000D01*
X304000Y210001D01*
X306000Y211001D02*
X306999Y210001D01*
X308999D01*
X309998Y211001D01*
Y214999D01*
X308999Y215999D01*
X306999D01*
X306000Y214999D01*
Y214000D01*
X306999Y213000D01*
X309998D01*
X365002Y33999D02*
Y28001D01*
Y30000D01*
X369000Y33999D01*
X366001Y31000D01*
X369000Y28001D01*
X371000Y32999D02*
X371999Y33999D01*
X373999D01*
X374998Y32999D01*
Y32000D01*
X373999Y31000D01*
X374998Y30000D01*
Y29001D01*
X373999Y28001D01*
X371999D01*
X371000Y29001D01*
Y30000D01*
X371999Y31000D01*
X371000Y32000D01*
Y32999D01*
X371999Y31000D02*
X373999D01*
X159002Y226999D02*
Y221001D01*
Y223000D01*
X163000Y226999D01*
X160001Y224000D01*
X163000Y221001D01*
X165000Y226999D02*
X168998D01*
Y225999D01*
X165000Y222001D01*
Y221001D01*
X335002Y322999D02*
Y317001D01*
Y319000D01*
X339000Y322999D01*
X336001Y320000D01*
X339000Y317001D01*
X344998Y322999D02*
X342999Y321999D01*
X341000Y320000D01*
Y318001D01*
X341999Y317001D01*
X343999D01*
X344998Y318001D01*
Y319000D01*
X343999Y320000D01*
X341000D01*
X233002Y213999D02*
Y208001D01*
Y210000D01*
X237000Y213999D01*
X234001Y211000D01*
X237000Y208001D01*
X242998Y213999D02*
X239000D01*
Y211000D01*
X240999Y212000D01*
X241999D01*
X242998Y211000D01*
Y209001D01*
X241999Y208001D01*
X239999D01*
X239000Y209001D01*
X346002Y346999D02*
Y341001D01*
Y343000D01*
X350000Y346999D01*
X347001Y344000D01*
X350000Y341001D01*
X354999D02*
Y346999D01*
X352000Y344000D01*
X355998D01*
X309002Y30999D02*
Y25001D01*
Y27000D01*
X313000Y30999D01*
X310001Y28000D01*
X313000Y25001D01*
X315000Y29999D02*
X315999Y30999D01*
X317999D01*
X318998Y29999D01*
Y29000D01*
X317999Y28000D01*
X316999D01*
X317999D01*
X318998Y27000D01*
Y26001D01*
X317999Y25001D01*
X315999D01*
X315000Y26001D01*
X8400Y134198D02*
Y128200D01*
Y130199D01*
X12399Y134198D01*
X9400Y131199D01*
X12399Y128200D01*
X18397D02*
X14398D01*
X18397Y132199D01*
Y133198D01*
X17397Y134198D01*
X15398D01*
X14398Y133198D01*
X4400Y350198D02*
Y344200D01*
Y346199D01*
X8399Y350198D01*
X5400Y347199D01*
X8399Y344200D01*
X10398D02*
X12397D01*
X11398D01*
Y350198D01*
X10398Y349198D01*
X164200Y308698D02*
X166199D01*
X165200D01*
Y302700D01*
X164200D01*
X166199D01*
X173197Y307698D02*
X172197Y308698D01*
X170198D01*
X169198Y307698D01*
Y303700D01*
X170198Y302700D01*
X172197D01*
X173197Y303700D01*
X175196Y307698D02*
X176196Y308698D01*
X178196D01*
X179195Y307698D01*
Y306699D01*
X178196Y305699D01*
X177196D01*
X178196D01*
X179195Y304699D01*
Y303700D01*
X178196Y302700D01*
X176196D01*
X175196Y303700D01*
X273502Y89999D02*
X275502D01*
X274502D01*
Y84001D01*
X273502D01*
X275502D01*
X282500Y88999D02*
X281500Y89999D01*
X279501D01*
X278501Y88999D01*
Y85001D01*
X279501Y84001D01*
X281500D01*
X282500Y85001D01*
X288498Y84001D02*
X284499D01*
X288498Y88000D01*
Y88999D01*
X287498Y89999D01*
X285498D01*
X284499Y88999D01*
X83502Y348999D02*
X85501D01*
X84502D01*
Y343001D01*
X83502D01*
X85501D01*
X92499Y347999D02*
X91500Y348999D01*
X89500D01*
X88500Y347999D01*
Y344001D01*
X89500Y343001D01*
X91500D01*
X92499Y344001D01*
X94499Y343001D02*
X96498D01*
X95498D01*
Y348999D01*
X94499Y347999D01*
X453504Y59999D02*
X455503D01*
X454504D01*
Y54001D01*
X453504D01*
X455503D01*
X462501Y58999D02*
X461502Y59999D01*
X459502D01*
X458502Y58999D01*
Y55001D01*
X459502Y54001D01*
X461502D01*
X462501Y55001D01*
X464501Y54001D02*
X466500D01*
X465500D01*
Y59999D01*
X464501Y58999D01*
X469499Y54001D02*
Y55001D01*
X470499D01*
Y54001D01*
X469499D01*
X478496D02*
X474497D01*
X478496Y58000D01*
Y58999D01*
X477496Y59999D01*
X475497D01*
X474497Y58999D01*
X506004Y20999D02*
Y15001D01*
X509003D01*
X510003Y16001D01*
Y19999D01*
X509003Y20999D01*
X506004D01*
X516001Y19999D02*
X515001Y20999D01*
X513002D01*
X512002Y19999D01*
Y19000D01*
X513002Y18000D01*
X515001D01*
X516001Y17000D01*
Y16001D01*
X515001Y15001D01*
X513002D01*
X512002Y16001D01*
X518000Y15001D02*
X520000D01*
X519000D01*
Y20999D01*
X518000Y19999D01*
X522999Y15001D02*
Y16001D01*
X523998D01*
Y15001D01*
X522999D01*
X531996D02*
X527997D01*
X531996Y19000D01*
Y19999D01*
X530996Y20999D01*
X528997D01*
X527997Y19999D01*
X250300Y335398D02*
Y329400D01*
X253299D01*
X254299Y330400D01*
Y334398D01*
X253299Y335398D01*
X250300D01*
X256298Y334398D02*
X257298Y335398D01*
X259297D01*
X260297Y334398D01*
Y333399D01*
X259297Y332399D01*
X258297D01*
X259297D01*
X260297Y331399D01*
Y330400D01*
X259297Y329400D01*
X257298D01*
X256298Y330400D01*
X2001Y158999D02*
Y153001D01*
X5000D01*
X6000Y154001D01*
Y157999D01*
X5000Y158999D01*
X2001D01*
X7999Y153001D02*
X9999D01*
X8999D01*
Y158999D01*
X7999Y157999D01*
X274501Y337999D02*
X273501Y338999D01*
X271502D01*
X270502Y337999D01*
Y334001D01*
X271502Y333001D01*
X273501D01*
X274501Y334001D01*
X276501Y333001D02*
X278500D01*
X277500D01*
Y338999D01*
X276501Y337999D01*
X284498Y333001D02*
Y338999D01*
X281499Y336000D01*
X285498D01*
X261501Y115999D02*
X260502Y116999D01*
X258502D01*
X257502Y115999D01*
Y112001D01*
X258502Y111001D01*
X260502D01*
X261501Y112001D01*
X263500Y111001D02*
X265500D01*
X264500D01*
Y116999D01*
X263500Y115999D01*
X268499D02*
X269498Y116999D01*
X271498D01*
X272498Y115999D01*
Y115000D01*
X271498Y114000D01*
X270498D01*
X271498D01*
X272498Y113000D01*
Y112001D01*
X271498Y111001D01*
X269498D01*
X268499Y112001D01*
X264501Y169999D02*
X263502Y170999D01*
X261502D01*
X260502Y169999D01*
Y166001D01*
X261502Y165001D01*
X263502D01*
X264501Y166001D01*
X266500Y165001D02*
X268500D01*
X267500D01*
Y170999D01*
X266500Y169999D01*
X275498Y165001D02*
X271499D01*
X275498Y169000D01*
Y169999D01*
X274498Y170999D01*
X272498D01*
X271499Y169999D01*
X320501Y214999D02*
X319501Y215999D01*
X317502D01*
X316502Y214999D01*
Y211001D01*
X317502Y210001D01*
X319501D01*
X320501Y211001D01*
X322500Y210001D02*
X324500D01*
X323500D01*
Y215999D01*
X322500Y214999D01*
X327499Y210001D02*
X329498D01*
X328498D01*
Y215999D01*
X327499Y214999D01*
X380501Y203999D02*
X379502Y204999D01*
X377502D01*
X376502Y203999D01*
Y200001D01*
X377502Y199001D01*
X379502D01*
X380501Y200001D01*
X382501Y199001D02*
X384500D01*
X383500D01*
Y204999D01*
X382501Y203999D01*
X387499D02*
X388498Y204999D01*
X390498D01*
X391498Y203999D01*
Y200001D01*
X390498Y199001D01*
X388498D01*
X387499Y200001D01*
Y203999D01*
X362999Y209000D02*
X363999Y209999D01*
Y211999D01*
X362999Y212998D01*
X359001D01*
X358001Y211999D01*
Y209999D01*
X359001Y209000D01*
Y207000D02*
X358001Y206001D01*
Y204001D01*
X359001Y203002D01*
X362999D01*
X363999Y204001D01*
Y206001D01*
X362999Y207000D01*
X362000D01*
X361000Y206001D01*
Y203002D01*
X370999Y209000D02*
X371999Y209999D01*
Y211999D01*
X370999Y212998D01*
X367001D01*
X366001Y211999D01*
Y209999D01*
X367001Y209000D01*
X370999Y207000D02*
X371999Y206001D01*
Y204001D01*
X370999Y203002D01*
X370000D01*
X369000Y204001D01*
X368000Y203002D01*
X367001D01*
X366001Y204001D01*
Y206001D01*
X367001Y207000D01*
X368000D01*
X369000Y206001D01*
X370000Y207000D01*
X370999D01*
X369000Y206001D02*
Y204001D01*
X317000Y47999D02*
X316001Y48999D01*
X314001D01*
X313002Y47999D01*
Y44001D01*
X314001Y43001D01*
X316001D01*
X317000Y44001D01*
X319000Y48999D02*
X322998D01*
Y47999D01*
X319000Y44001D01*
Y43001D01*
X243000Y104999D02*
X242001Y105999D01*
X240001D01*
X239002Y104999D01*
Y101001D01*
X240001Y100001D01*
X242001D01*
X243000Y101001D01*
X248998Y105999D02*
X246999Y104999D01*
X245000Y103000D01*
Y101001D01*
X245999Y100001D01*
X247999D01*
X248998Y101001D01*
Y102000D01*
X247999Y103000D01*
X245000D01*
X425502Y281999D02*
X424502Y282999D01*
X422503D01*
X421503Y281999D01*
Y278001D01*
X422503Y277001D01*
X424502D01*
X425502Y278001D01*
X431500Y282999D02*
X427501D01*
Y280000D01*
X429501Y281000D01*
X430501D01*
X431500Y280000D01*
Y278001D01*
X430501Y277001D01*
X428501D01*
X427501Y278001D01*
X433499Y277001D02*
Y278001D01*
X434499D01*
Y277001D01*
X433499D01*
X442497D02*
X438498D01*
X442497Y281000D01*
Y281999D01*
X441497Y282999D01*
X439498D01*
X438498Y281999D01*
X114000Y224999D02*
X113001Y225999D01*
X111001D01*
X110002Y224999D01*
Y221001D01*
X111001Y220001D01*
X113001D01*
X114000Y221001D01*
X118999Y220001D02*
Y225999D01*
X116000Y223000D01*
X119998D01*
X425502Y245999D02*
X424502Y246999D01*
X422503D01*
X421503Y245999D01*
Y242001D01*
X422503Y241001D01*
X424502D01*
X425502Y242001D01*
X430501Y241001D02*
Y246999D01*
X427501Y244000D01*
X431500D01*
X433499Y241001D02*
Y242001D01*
X434499D01*
Y241001D01*
X433499D01*
X442497D02*
X438498D01*
X442497Y245000D01*
Y245999D01*
X441497Y246999D01*
X439498D01*
X438498Y245999D01*
X234000Y168999D02*
X233001Y169999D01*
X231001D01*
X230002Y168999D01*
Y165001D01*
X231001Y164001D01*
X233001D01*
X234000Y165001D01*
X236000Y168999D02*
X236999Y169999D01*
X238999D01*
X239998Y168999D01*
Y168000D01*
X238999Y167000D01*
X237999D01*
X238999D01*
X239998Y166000D01*
Y165001D01*
X238999Y164001D01*
X236999D01*
X236000Y165001D01*
X425502Y208999D02*
X424502Y209999D01*
X422503D01*
X421503Y208999D01*
Y205001D01*
X422503Y204001D01*
X424502D01*
X425502Y205001D01*
X427501Y208999D02*
X428501Y209999D01*
X430501D01*
X431500Y208999D01*
Y208000D01*
X430501Y207000D01*
X429501D01*
X430501D01*
X431500Y206000D01*
Y205001D01*
X430501Y204001D01*
X428501D01*
X427501Y205001D01*
X433499Y204001D02*
Y205001D01*
X434499D01*
Y204001D01*
X433499D01*
X442497D02*
X438498D01*
X442497Y208000D01*
Y208999D01*
X441497Y209999D01*
X439498D01*
X438498Y208999D01*
X230000Y146999D02*
X229001Y147999D01*
X227001D01*
X226002Y146999D01*
Y143001D01*
X227001Y142001D01*
X229001D01*
X230000Y143001D01*
X235998Y142001D02*
X232000D01*
X235998Y146000D01*
Y146999D01*
X234999Y147999D01*
X232999D01*
X232000Y146999D01*
X451502Y341999D02*
X450502Y342999D01*
X448503D01*
X447503Y341999D01*
Y338001D01*
X448503Y337001D01*
X450502D01*
X451502Y338001D01*
X457500Y337001D02*
X453502D01*
X457500Y341000D01*
Y341999D01*
X456500Y342999D01*
X454501D01*
X453502Y341999D01*
X459500Y337001D02*
Y338001D01*
X460499D01*
Y337001D01*
X459500D01*
X468497D02*
X464498D01*
X468497Y341000D01*
Y341999D01*
X467497Y342999D01*
X465498D01*
X464498Y341999D01*
X161000Y197629D02*
X160000Y198629D01*
X158001D01*
X157001Y197629D01*
Y193631D01*
X158001Y192631D01*
X160000D01*
X161000Y193631D01*
X162999Y192631D02*
X164999D01*
X163999D01*
Y198629D01*
X162999Y197629D01*
X483099Y342798D02*
X482099Y343798D01*
X480100D01*
X479100Y342798D01*
Y338800D01*
X480100Y337800D01*
X482099D01*
X483099Y338800D01*
X485098Y337800D02*
X487097D01*
X486098D01*
Y343798D01*
X485098Y342798D01*
X490096Y337800D02*
Y338800D01*
X491096D01*
Y337800D01*
X490096D01*
X499093D02*
X495095D01*
X499093Y341799D01*
Y342798D01*
X498094Y343798D01*
X496095D01*
X495095Y342798D01*
X40003Y348999D02*
Y343001D01*
X43002D01*
X44001Y344001D01*
Y345000D01*
X43002Y346000D01*
X40003D01*
X43002D01*
X44001Y347000D01*
Y347999D01*
X43002Y348999D01*
X40003D01*
X46001Y343001D02*
Y348999D01*
X49000D01*
X49999Y347999D01*
Y346000D01*
X49000Y345000D01*
X46001D01*
X48000D02*
X49999Y343001D01*
X55997D02*
X51999D01*
X55997Y347000D01*
Y347999D01*
X54998Y348999D01*
X52998D01*
X51999Y347999D01*
X84002Y225999D02*
Y220001D01*
X87001D01*
X88001Y221001D01*
Y222000D01*
X87001Y223000D01*
X84002D01*
X87001D01*
X88001Y224000D01*
Y224999D01*
X87001Y225999D01*
X84002D01*
X90000Y220001D02*
Y225999D01*
X92999D01*
X93999Y224999D01*
Y223000D01*
X92999Y222000D01*
X90000D01*
X92000D02*
X93999Y220001D01*
X95998D02*
X97998D01*
X96998D01*
Y225999D01*
X95998Y224999D01*
D11*
X475638Y280000D02*
G03*
X475638Y280000I-15748J0D01*
G01*
Y318000D02*
G03*
X475638Y318000I-15748J0D01*
G01*
Y244000D02*
G03*
X475638Y244000I-15748J0D01*
G01*
X475858Y208000D02*
G03*
X475858Y208000I-15748J0D01*
G01*
X393843Y219063D02*
G03*
X393843Y219063I-9843J0D01*
G01*
X257906Y149000D02*
G03*
X257906Y149000I-9843J0D01*
G01*
X330000Y87024D02*
G03*
X330000Y87811I0J394D01*
G01*
D02*
G03*
X330000Y87024I0J-394D01*
G01*
X207307Y144315D02*
G03*
X207307Y144315I-43307J0D01*
G01*
X116748Y245110D02*
G03*
X116748Y245110I-15748J0D01*
G01*
X138906Y251000D02*
G03*
X138906Y251000I-9843J0D01*
G01*
X499843Y322937D02*
G03*
X499843Y322937I-9843J0D01*
G01*
X229000Y335933D02*
Y340067D01*
X298071Y39661D02*
X301811D01*
X278189D02*
X281929D01*
X306339Y28638D02*
Y46354D01*
X273661Y28638D02*
Y46354D01*
X301811D02*
X306339D01*
X301811Y39661D02*
Y46354D01*
X278189Y39661D02*
Y46354D01*
X273661D02*
X278189D01*
X280945Y15646D02*
X299055D01*
X504311Y27374D02*
X555689D01*
X504311Y186626D02*
X555689D01*
X504311Y142000D02*
Y186626D01*
X498933Y213000D02*
X503067D01*
X479933Y205000D02*
X484067D01*
X488933Y205260D02*
X493067D01*
X441311Y159000D02*
X487000D01*
X441311D02*
Y179000D01*
X492689D01*
Y174000D02*
Y179000D01*
X487756Y116260D02*
Y123740D01*
X437500Y114882D02*
X487500D01*
X437500Y87323D02*
Y114882D01*
Y87323D02*
X487500D01*
Y114882D01*
X73000Y93933D02*
Y98067D01*
X284933Y134000D02*
X289067D01*
X268000Y131933D02*
Y136067D01*
X293000Y151933D02*
Y156067D01*
X294933Y128000D02*
X299067D01*
X282000Y119933D02*
Y124067D01*
X312000Y103933D02*
Y108067D01*
X255933Y92000D02*
X260067D01*
X255933Y76000D02*
X260067D01*
X264000Y75000D02*
Y103000D01*
X304000Y75000D02*
Y106654D01*
X312000Y94933D02*
Y99067D01*
X311933Y76000D02*
X316067D01*
X299000Y53933D02*
Y58067D01*
X349000Y176933D02*
Y181067D01*
Y167933D02*
Y172067D01*
X325000Y138933D02*
Y143067D01*
X350933Y120000D02*
X355067D01*
X363748Y93421D02*
Y106000D01*
X322252Y93421D02*
X363748D01*
X322252D02*
Y111886D01*
X355071Y40661D02*
X358811D01*
X335189D02*
X338929D01*
X363339Y29638D02*
Y47354D01*
X330661Y29638D02*
Y47354D01*
X358811D02*
X363339D01*
X358811Y40661D02*
Y47354D01*
X335189Y40661D02*
Y47354D01*
X330661D02*
X335189D01*
X337945Y16646D02*
X356055D01*
X406480Y326000D02*
Y347260D01*
X361520D02*
X406480D01*
X361520Y302969D02*
Y347260D01*
Y302969D02*
X399591D01*
X95933Y198740D02*
X100067D01*
X90575Y196638D02*
Y201362D01*
X87425Y194866D02*
Y201362D01*
X86933Y186000D02*
X91067D01*
X14079Y150315D02*
X33921D01*
X14079Y139685D02*
X36205D01*
X8000Y159748D02*
X58000D01*
Y273921D01*
X8000D02*
X58000D01*
X8000Y159748D02*
Y273921D01*
X143984Y301886D02*
Y307673D01*
X102016Y301886D02*
X143984D01*
X102016D02*
Y307673D01*
X64638Y334984D02*
Y342406D01*
X78142D01*
Y255594D02*
Y342406D01*
X64638Y255594D02*
X78142D01*
X64638D02*
Y265693D01*
X78362Y159594D02*
Y167016D01*
X64858Y159594D02*
X78362D01*
X64858D02*
Y246406D01*
X78362D01*
Y236307D02*
Y246406D01*
X32661Y96189D02*
Y99929D01*
Y116071D02*
Y119811D01*
X21638Y91661D02*
X39354D01*
X21638Y124339D02*
X39354D01*
Y91661D02*
Y96189D01*
X32661D02*
X39354D01*
X32661Y119811D02*
X39354D01*
Y124339D01*
X8646Y98945D02*
Y117055D01*
X28661Y312189D02*
Y315929D01*
Y332071D02*
Y335811D01*
X17638Y307661D02*
X35354D01*
X17638Y340339D02*
X35354D01*
Y307661D02*
Y312189D01*
X28661D02*
X35354D01*
X28661Y335811D02*
X35354D01*
Y340339D01*
X4646Y314945D02*
Y333055D01*
X332764Y201354D02*
X353236D01*
X332764Y220646D02*
X353236D01*
X373748Y236000D02*
Y294000D01*
X164252Y232295D02*
Y294000D01*
X181933Y213000D02*
X186067D01*
X269000Y303000D02*
X294000D01*
X269000D02*
Y323000D01*
X299000D01*
Y318000D02*
Y323000D01*
X223933Y326000D02*
X228067D01*
X247626Y306000D02*
Y309937D01*
X222626D02*
X247626D01*
X222626Y302063D02*
Y309937D01*
Y302063D02*
X243000D01*
X196500Y224000D02*
Y227937D01*
X171500D02*
X196500D01*
X171500Y220063D02*
Y227937D01*
Y220063D02*
X191874D01*
X168311Y337000D02*
X214000D01*
X168311Y317000D02*
Y337000D01*
Y317000D02*
X219689D01*
Y322000D01*
X324000Y313000D02*
X359000D01*
Y303000D02*
Y313000D01*
X319000Y303000D02*
X359000D01*
X319000D02*
Y308000D01*
X288378Y225937D02*
X323811D01*
Y218063D02*
Y225937D01*
X284441Y218063D02*
X323811D01*
X284441D02*
Y222000D01*
X229224Y215390D02*
X244000D01*
X229224D02*
Y226610D01*
X248772D01*
Y221000D02*
Y226610D01*
X73000Y130933D02*
Y135067D01*
D12*
X281437Y43992D02*
G03*
X281437Y43992I-492J0D01*
G01*
X338437Y44992D02*
G03*
X338437Y44992I-492J0D01*
G01*
X37484Y117055D02*
G03*
X37484Y117055I-492J0D01*
G01*
X33484Y333055D02*
G03*
X33484Y333055I-492J0D01*
G01*
D13*
X338273Y130143D02*
G03*
X321720Y130128I-8273J-4143D01*
G01*
X352509Y159143D02*
G03*
X335956Y159128I-8273J-4143D01*
G01*
X368653Y127701D02*
G03*
X368653Y128094I0J197D01*
G01*
D02*
G03*
X368653Y127701I0J-197D01*
G01*
X112764Y275783D02*
G03*
X112764Y275390I0J-197D01*
G01*
D02*
G03*
X112764Y275783I0J197D01*
G01*
X63095Y329000D02*
G03*
X62701Y329000I-197J0D01*
G01*
D02*
G03*
X63095Y329000I197J0D01*
G01*
X79905Y173000D02*
G03*
X80299Y173000I197J0D01*
G01*
D02*
G03*
X79905Y173000I-197J0D01*
G01*
X77273Y121143D02*
G03*
X60720Y121128I-8273J-4143D01*
G01*
X322394Y120732D02*
X337606D01*
X336630Y149732D02*
X351842D01*
X362551Y131913D02*
Y146087D01*
X322598Y83402D02*
X367402D01*
X322598Y58598D02*
Y83402D01*
Y58598D02*
X367402D01*
Y83402D01*
X61394Y111732D02*
X76606D01*
X260150Y312425D02*
Y315575D01*
X253850Y312425D02*
Y315575D01*
D14*
X50212Y155035D02*
G03*
X50212Y155035I-495J0D01*
G01*
D15*
X39500Y58492D02*
Y33500D01*
X56161D01*
X64492Y58492D02*
X81153D01*
X72823D01*
Y33500D01*
X114476D02*
X122806D01*
X118641D01*
Y58492D01*
X114476Y54327D01*
X151964Y58492D02*
X135302D01*
Y33500D01*
X151964D01*
X135302Y45996D02*
X143633D01*
X160294Y33500D02*
Y50161D01*
X168625Y58492D01*
X176956Y50161D01*
Y33500D01*
Y45996D01*
X160294D01*
X185286Y58492D02*
X193617D01*
X189452D01*
Y33500D01*
X185286D01*
X193617D01*
X210278Y50161D02*
X218609D01*
X222774Y45996D01*
Y33500D01*
X210278D01*
X206113Y37665D01*
X210278Y41831D01*
X222774D01*
M02*
