G04*
G04 #@! TF.GenerationSoftware,Altium Limited,Altium Designer,22.4.2 (48)*
G04*
G04 Layer_Physical_Order=1*
G04 Layer_Color=255*
%FSLAX25Y25*%
%MOIN*%
G70*
G04*
G04 #@! TF.SameCoordinates,783B880F-F190-4A79-90E1-06678E82802B*
G04*
G04*
G04 #@! TF.FilePolarity,Positive*
G04*
G01*
G75*
%ADD15C,0.04500*%
%ADD16R,0.04134X0.05709*%
%ADD17R,0.05512X0.12205*%
%ADD18R,0.05906X0.13386*%
%ADD19R,0.05709X0.04134*%
%ADD20R,0.02756X0.07480*%
%ADD21R,0.03780X0.05472*%
%ADD22R,0.05472X0.03780*%
%ADD23R,0.01654X0.02165*%
%ADD24R,0.08661X0.08268*%
%ADD25R,0.42126X0.33858*%
%ADD26R,0.03937X0.13386*%
%ADD27R,0.12205X0.05512*%
%ADD28R,0.13386X0.05906*%
%ADD29R,0.06693X0.11024*%
%ADD30R,0.07087X0.05276*%
%ADD80C,0.02500*%
%ADD81C,0.03500*%
%ADD82C,0.05000*%
%ADD83C,0.18898*%
%ADD84C,0.07087*%
%ADD85C,0.04331*%
%ADD86R,0.04331X0.04331*%
%ADD87R,0.05610X0.05610*%
%ADD88C,0.05610*%
%ADD89C,0.06496*%
%ADD90R,0.06496X0.06496*%
%ADD91R,0.04331X0.04331*%
%ADD92C,0.04661*%
%ADD93C,0.05669*%
%ADD94C,0.04559*%
%ADD95R,0.04559X0.04559*%
%ADD96C,0.05315*%
%ADD97C,0.07559*%
%ADD98R,0.07559X0.07559*%
%ADD99C,0.10630*%
%ADD100R,0.10630X0.10630*%
%ADD101C,0.07500*%
%ADD102C,0.05906*%
%ADD103R,0.05906X0.05906*%
%ADD104C,0.08268*%
%ADD105C,0.08799*%
%ADD106R,0.08799X0.08799*%
%ADD107R,0.04661X0.04661*%
%ADD108R,0.04724X0.04724*%
%ADD109C,0.04724*%
%ADD110R,0.05315X0.05315*%
%ADD111C,0.06791*%
%ADD112R,0.06791X0.06791*%
%ADD113C,0.15748*%
%ADD114C,0.03000*%
%ADD115C,0.03500*%
%ADD116C,0.05000*%
G36*
X562000Y257820D02*
X561500Y257686D01*
X560995Y258561D01*
X559963Y259593D01*
X558699Y260323D01*
X557289Y260701D01*
X555829D01*
X554419Y260323D01*
X553155Y259593D01*
X552123Y258561D01*
X551394Y257297D01*
X551016Y255887D01*
Y254428D01*
X551394Y253018D01*
X552123Y251754D01*
X553155Y250722D01*
X554419Y249992D01*
X555829Y249614D01*
X557289D01*
X558699Y249992D01*
X559963Y250722D01*
X560995Y251754D01*
X561500Y252629D01*
X562000Y252495D01*
Y4000D01*
X553902D01*
X553853Y4500D01*
X553880Y4505D01*
X555677Y5250D01*
X557294Y6330D01*
X558670Y7706D01*
X559750Y9323D01*
X560495Y11120D01*
X560874Y13027D01*
Y14973D01*
X560495Y16880D01*
X559750Y18677D01*
X558670Y20294D01*
X557294Y21670D01*
X555677Y22750D01*
X553880Y23495D01*
X551972Y23874D01*
X550028D01*
X548120Y23495D01*
X546323Y22750D01*
X544706Y21670D01*
X543330Y20294D01*
X542250Y18677D01*
X541505Y16880D01*
X541126Y14973D01*
Y13027D01*
X541505Y11120D01*
X542250Y9323D01*
X543330Y7706D01*
X544706Y6330D01*
X546323Y5250D01*
X548120Y4505D01*
X548147Y4500D01*
X548098Y4000D01*
X435902D01*
X435853Y4500D01*
X435880Y4505D01*
X437677Y5250D01*
X439294Y6330D01*
X440670Y7706D01*
X441750Y9323D01*
X442495Y11120D01*
X442874Y13027D01*
Y14973D01*
X442495Y16880D01*
X441750Y18677D01*
X440670Y20294D01*
X439294Y21670D01*
X437677Y22750D01*
X435880Y23495D01*
X433973Y23874D01*
X432027D01*
X430120Y23495D01*
X428323Y22750D01*
X426706Y21670D01*
X425330Y20294D01*
X424250Y18677D01*
X423505Y16880D01*
X423126Y14973D01*
Y13027D01*
X423505Y11120D01*
X424250Y9323D01*
X425330Y7706D01*
X426706Y6330D01*
X428323Y5250D01*
X430120Y4505D01*
X430147Y4500D01*
X430098Y4000D01*
X421000D01*
Y348000D01*
X562000D01*
Y257820D01*
D02*
G37*
G36*
X411000Y3000D02*
X2000D01*
Y351000D01*
X411000D01*
Y3000D01*
D02*
G37*
%LPC*%
G36*
X490500Y330017D02*
Y327374D01*
X493143D01*
X492950Y328096D01*
X492533Y328818D01*
X491944Y329407D01*
X491222Y329824D01*
X490500Y330017D01*
D02*
G37*
G36*
X489500D02*
X488778Y329824D01*
X488056Y329407D01*
X487467Y328818D01*
X487050Y328096D01*
X486857Y327374D01*
X489500D01*
Y330017D01*
D02*
G37*
G36*
X551972Y344874D02*
X550028D01*
X548120Y344495D01*
X546323Y343750D01*
X544706Y342670D01*
X543330Y341294D01*
X542250Y339677D01*
X541505Y337880D01*
X541126Y335972D01*
Y334028D01*
X541505Y332120D01*
X542250Y330323D01*
X543330Y328706D01*
X544706Y327330D01*
X546323Y326250D01*
X548120Y325505D01*
X550028Y325126D01*
X551972D01*
X553880Y325505D01*
X555677Y326250D01*
X557294Y327330D01*
X558670Y328706D01*
X559750Y330323D01*
X560495Y332120D01*
X560874Y334028D01*
Y335972D01*
X560495Y337880D01*
X559750Y339677D01*
X558670Y341294D01*
X557294Y342670D01*
X555677Y343750D01*
X553880Y344495D01*
X551972Y344874D01*
D02*
G37*
G36*
X433973D02*
X432027D01*
X430120Y344495D01*
X428323Y343750D01*
X426706Y342670D01*
X425330Y341294D01*
X424250Y339677D01*
X423505Y337880D01*
X423126Y335972D01*
Y334028D01*
X423505Y332120D01*
X424250Y330323D01*
X425330Y328706D01*
X426706Y327330D01*
X428323Y326250D01*
X430120Y325505D01*
X432027Y325126D01*
X433973D01*
X435880Y325505D01*
X437677Y326250D01*
X439294Y327330D01*
X440670Y328706D01*
X441750Y330323D01*
X442495Y332120D01*
X442874Y334028D01*
Y335972D01*
X442495Y337880D01*
X441750Y339677D01*
X440670Y341294D01*
X439294Y342670D01*
X437677Y343750D01*
X435880Y344495D01*
X433973Y344874D01*
D02*
G37*
G36*
X493143Y326374D02*
X490500D01*
Y323731D01*
X491222Y323924D01*
X491944Y324341D01*
X492533Y324930D01*
X492950Y325652D01*
X493143Y326374D01*
D02*
G37*
G36*
X489500D02*
X486857D01*
X487050Y325652D01*
X487467Y324930D01*
X488056Y324341D01*
X488778Y323924D01*
X489500Y323731D01*
Y326374D01*
D02*
G37*
G36*
X453500Y321143D02*
Y318500D01*
X456143D01*
X455950Y319222D01*
X455533Y319944D01*
X454944Y320533D01*
X454222Y320950D01*
X453500Y321143D01*
D02*
G37*
G36*
X452500D02*
X451778Y320950D01*
X451056Y320533D01*
X450467Y319944D01*
X450050Y319222D01*
X449857Y318500D01*
X452500D01*
Y321143D01*
D02*
G37*
G36*
X456143Y317500D02*
X453500D01*
Y314857D01*
X454222Y315050D01*
X454944Y315467D01*
X455533Y316056D01*
X455950Y316778D01*
X456143Y317500D01*
D02*
G37*
G36*
X452500D02*
X449857D01*
X450050Y316778D01*
X450467Y316056D01*
X451056Y315467D01*
X451778Y315050D01*
X452500Y314857D01*
Y317500D01*
D02*
G37*
G36*
X494165Y323165D02*
X485835D01*
Y322782D01*
X467780D01*
X466801Y322654D01*
X465888Y322276D01*
X465745Y322165D01*
X462614D01*
Y313835D01*
X462997D01*
Y284165D01*
X462614D01*
Y275835D01*
X462997D01*
Y248165D01*
X462614D01*
Y239835D01*
X463107D01*
Y212165D01*
X462835D01*
Y204442D01*
X462335Y204235D01*
X457153Y209416D01*
X457102Y209608D01*
X456554Y210558D01*
X455778Y211333D01*
X454828Y211881D01*
X453769Y212165D01*
X452672D01*
X451613Y211881D01*
X450663Y211333D01*
X449887Y210558D01*
X449339Y209608D01*
X449055Y208548D01*
Y207452D01*
X449339Y206392D01*
X449887Y205442D01*
X450663Y204667D01*
X451613Y204118D01*
X451804Y204067D01*
X463218Y192654D01*
Y177639D01*
X462801Y177222D01*
X462289Y176336D01*
X461711D01*
X461200Y177222D01*
X460222Y178200D01*
X459026Y178890D01*
X457691Y179248D01*
X456309D01*
X454974Y178890D01*
X453778Y178200D01*
X452801Y177222D01*
X452289Y176336D01*
X451711D01*
X451199Y177222D01*
X450222Y178200D01*
X449026Y178890D01*
X447691Y179248D01*
X446309D01*
X444974Y178890D01*
X443778Y178200D01*
X442801Y177222D01*
X442110Y176026D01*
X441752Y174691D01*
Y173309D01*
X442110Y171974D01*
X442801Y170778D01*
X443778Y169800D01*
X444974Y169110D01*
X446309Y168752D01*
X447691D01*
X449026Y169110D01*
X450222Y169800D01*
X451199Y170778D01*
X451711Y171664D01*
X452289D01*
X452801Y170778D01*
X453778Y169800D01*
X454664Y169289D01*
Y168711D01*
X453778Y168200D01*
X452801Y167222D01*
X452110Y166026D01*
X451752Y164691D01*
Y163309D01*
X452110Y161974D01*
X452801Y160778D01*
X453778Y159801D01*
X454974Y159110D01*
X456309Y158752D01*
X457691D01*
X459026Y159110D01*
X460222Y159801D01*
X461200Y160778D01*
X461711Y161664D01*
X462289D01*
X462801Y160778D01*
X463778Y159801D01*
X464974Y159110D01*
X466309Y158752D01*
X467691D01*
X469026Y159110D01*
X470222Y159801D01*
X471200Y160778D01*
X471711Y161664D01*
X472289D01*
X472800Y160778D01*
X473778Y159801D01*
X474974Y159110D01*
X476309Y158752D01*
X477691D01*
X479026Y159110D01*
X480222Y159801D01*
X481200Y160778D01*
X481711Y161664D01*
X482289D01*
X482800Y160778D01*
X483778Y159801D01*
X484974Y159110D01*
X486309Y158752D01*
X487691D01*
X489026Y159110D01*
X490222Y159801D01*
X491199Y160778D01*
X491890Y161974D01*
X492248Y163309D01*
Y164691D01*
X491890Y166026D01*
X491199Y167222D01*
X490222Y168200D01*
X490102Y168269D01*
X490231Y168752D01*
X492248D01*
Y173899D01*
X496756Y178407D01*
X497218Y178215D01*
Y153782D01*
X428050D01*
X427071Y153654D01*
X426159Y153276D01*
X425376Y152674D01*
X423325Y150624D01*
X422724Y149841D01*
X422346Y148929D01*
X422218Y147950D01*
Y99000D01*
X422346Y98021D01*
X422724Y97109D01*
X423325Y96325D01*
X429325Y90325D01*
X430109Y89724D01*
X431021Y89346D01*
X432000Y89218D01*
X461218D01*
Y87945D01*
X436622D01*
Y76465D01*
X441218D01*
Y66050D01*
X441347Y65071D01*
X441724Y64159D01*
X442325Y63376D01*
X444376Y61326D01*
X445159Y60724D01*
X446071Y60347D01*
X447050Y60218D01*
X502000D01*
X502979Y60347D01*
X503891Y60724D01*
X504674Y61326D01*
X510544Y67195D01*
X510633D01*
X511855Y67522D01*
X512950Y68155D01*
X513845Y69050D01*
X514478Y70145D01*
X514805Y71367D01*
Y72633D01*
X514478Y73855D01*
X513845Y74950D01*
X512950Y75845D01*
X511855Y76478D01*
X510871Y76741D01*
Y77259D01*
X511855Y77522D01*
X512950Y78155D01*
X513845Y79050D01*
X514478Y80145D01*
X514805Y81367D01*
Y81938D01*
X515305Y82309D01*
X516000Y82218D01*
X516979Y82346D01*
X517891Y82724D01*
X518675Y83325D01*
X518744Y83416D01*
X519218Y83255D01*
Y76407D01*
X519347Y75428D01*
X519724Y74516D01*
X520326Y73733D01*
X521109Y73132D01*
X522021Y72754D01*
X523000Y72625D01*
X523979Y72754D01*
X524891Y73132D01*
X525674Y73733D01*
X526276Y74516D01*
X526653Y75428D01*
X526782Y76407D01*
Y112215D01*
X527244Y112407D01*
X530326Y109326D01*
X531109Y108724D01*
X532021Y108346D01*
X533000Y108218D01*
X546987D01*
X547050Y108155D01*
X548145Y107522D01*
X549129Y107259D01*
Y106741D01*
X548145Y106478D01*
X547050Y105845D01*
X546155Y104950D01*
X545522Y103855D01*
X545195Y102633D01*
Y101367D01*
X545522Y100145D01*
X546155Y99050D01*
X547050Y98155D01*
X548145Y97522D01*
X549129Y97259D01*
Y96741D01*
X548145Y96478D01*
X547050Y95845D01*
X546155Y94950D01*
X545522Y93855D01*
X545195Y92633D01*
Y91367D01*
X545522Y90145D01*
X546155Y89050D01*
X547050Y88155D01*
X548145Y87522D01*
X549129Y87259D01*
Y86741D01*
X548145Y86478D01*
X547050Y85845D01*
X546155Y84950D01*
X545522Y83855D01*
X545195Y82633D01*
Y81367D01*
X545522Y80145D01*
X546155Y79050D01*
X547050Y78155D01*
X548145Y77522D01*
X549129Y77259D01*
Y76741D01*
X548145Y76478D01*
X547050Y75845D01*
X546155Y74950D01*
X545522Y73855D01*
X545195Y72633D01*
Y71367D01*
X545522Y70145D01*
X546155Y69050D01*
X547050Y68155D01*
X548145Y67522D01*
X549367Y67195D01*
X550633D01*
X551855Y67522D01*
X552950Y68155D01*
X553845Y69050D01*
X554478Y70145D01*
X554805Y71367D01*
Y72633D01*
X554478Y73855D01*
X553845Y74950D01*
X552950Y75845D01*
X551855Y76478D01*
X550871Y76741D01*
Y77259D01*
X551855Y77522D01*
X552950Y78155D01*
X553845Y79050D01*
X554478Y80145D01*
X554805Y81367D01*
Y82633D01*
X554478Y83855D01*
X553845Y84950D01*
X552950Y85845D01*
X551855Y86478D01*
X550871Y86741D01*
Y87259D01*
X551855Y87522D01*
X552950Y88155D01*
X553845Y89050D01*
X554478Y90145D01*
X554805Y91367D01*
Y92633D01*
X554478Y93855D01*
X553845Y94950D01*
X552950Y95845D01*
X551855Y96478D01*
X550871Y96741D01*
Y97259D01*
X551855Y97522D01*
X552950Y98155D01*
X553845Y99050D01*
X554478Y100145D01*
X554805Y101367D01*
Y102633D01*
X554478Y103855D01*
X553845Y104950D01*
X552950Y105845D01*
X551855Y106478D01*
X550871Y106741D01*
Y107259D01*
X551855Y107522D01*
X552950Y108155D01*
X553845Y109050D01*
X554478Y110145D01*
X554805Y111367D01*
Y112633D01*
X554478Y113855D01*
X553845Y114950D01*
X552950Y115845D01*
X551855Y116478D01*
X550871Y116741D01*
Y117259D01*
X551855Y117522D01*
X552950Y118155D01*
X553845Y119050D01*
X554478Y120145D01*
X554805Y121367D01*
Y122633D01*
X554478Y123855D01*
X553845Y124950D01*
X552950Y125845D01*
X551855Y126478D01*
X550871Y126741D01*
Y127259D01*
X551855Y127522D01*
X552950Y128155D01*
X553845Y129050D01*
X554478Y130145D01*
X554805Y131367D01*
Y132633D01*
X554478Y133855D01*
X553845Y134950D01*
X552950Y135845D01*
X551855Y136478D01*
X550871Y136741D01*
Y137259D01*
X551855Y137522D01*
X552950Y138155D01*
X553845Y139050D01*
X554478Y140145D01*
X554805Y141367D01*
Y142633D01*
X554478Y143855D01*
X553845Y144950D01*
X552950Y145845D01*
X551855Y146478D01*
X550633Y146805D01*
X549367D01*
X548145Y146478D01*
X547050Y145845D01*
X546155Y144950D01*
X545522Y143855D01*
X545195Y142633D01*
Y141367D01*
X545522Y140145D01*
X546155Y139050D01*
X547050Y138155D01*
X548145Y137522D01*
X549129Y137259D01*
Y136741D01*
X548145Y136478D01*
X547050Y135845D01*
X546155Y134950D01*
X545522Y133855D01*
X545195Y132633D01*
Y131367D01*
X545522Y130145D01*
X546155Y129050D01*
X547050Y128155D01*
X548145Y127522D01*
X549129Y127259D01*
Y126741D01*
X548145Y126478D01*
X547050Y125845D01*
X546987Y125782D01*
X535567D01*
X531674Y129674D01*
X530891Y130276D01*
X529979Y130654D01*
X529000Y130782D01*
X528021Y130654D01*
X527109Y130276D01*
X527081Y130254D01*
X526872Y130251D01*
X526472Y130417D01*
X526276Y130891D01*
X525674Y131675D01*
X514805Y142544D01*
Y146805D01*
X505195D01*
Y137195D01*
X508890D01*
X508956Y136695D01*
X508145Y136478D01*
X507050Y135845D01*
X506155Y134950D01*
X505522Y133855D01*
X505195Y132633D01*
Y131367D01*
X505522Y130145D01*
X506155Y129050D01*
X507050Y128155D01*
X508145Y127522D01*
X509129Y127259D01*
Y126741D01*
X508145Y126478D01*
X507050Y125845D01*
X506987Y125782D01*
X502567D01*
X489675Y138674D01*
X488891Y139276D01*
X487979Y139654D01*
X487000Y139782D01*
X467050D01*
X466071Y139654D01*
X465159Y139276D01*
X464376Y138674D01*
X462325Y136624D01*
X461724Y135841D01*
X461346Y134929D01*
X461218Y133950D01*
Y125740D01*
X436622D01*
Y114260D01*
X441722D01*
Y102464D01*
X441778Y102040D01*
X441834Y101616D01*
X442161Y100826D01*
X442682Y100147D01*
X444146Y98682D01*
X444826Y98161D01*
X445616Y97834D01*
X446464Y97722D01*
X466204D01*
X466482Y97306D01*
X466347Y96979D01*
X466218Y96000D01*
Y95735D01*
X465756Y95543D01*
X465624Y95675D01*
X464841Y96276D01*
X463929Y96653D01*
X462950Y96782D01*
X433567D01*
X429782Y100567D01*
Y146218D01*
X498950D01*
X499929Y146346D01*
X500841Y146724D01*
X501624Y147326D01*
X503675Y149376D01*
X504276Y150159D01*
X504654Y151071D01*
X504782Y152050D01*
Y188000D01*
Y205193D01*
X505854D01*
Y212673D01*
Y220807D01*
X504782D01*
Y252659D01*
X504703Y253261D01*
X505016Y254428D01*
Y255887D01*
X504638Y257297D01*
X503908Y258561D01*
X502876Y259593D01*
X501612Y260323D01*
X501507Y260351D01*
X501436Y260888D01*
X502262Y261365D01*
X503108Y262210D01*
X503706Y263246D01*
X504016Y264402D01*
Y264500D01*
X499472D01*
X494929D01*
Y264402D01*
X495239Y263246D01*
X495837Y262210D01*
X496683Y261365D01*
X497509Y260888D01*
X497438Y260351D01*
X497333Y260323D01*
X496069Y259593D01*
X495037Y258561D01*
X494307Y257297D01*
X493929Y255887D01*
Y254428D01*
X494307Y253018D01*
X495037Y251754D01*
X496069Y250722D01*
X497218Y250058D01*
Y220807D01*
X496146D01*
Y220523D01*
X473295D01*
X472979Y220654D01*
X472000Y220782D01*
X471172Y220673D01*
X470672Y220986D01*
Y239835D01*
X470945D01*
Y248165D01*
X470562D01*
Y275835D01*
X470945D01*
Y276218D01*
X491778D01*
X493946Y274049D01*
X494307Y272703D01*
X495037Y271439D01*
X496069Y270407D01*
X497333Y269677D01*
X497438Y269649D01*
X497509Y269112D01*
X496683Y268636D01*
X495837Y267790D01*
X495239Y266754D01*
X494929Y265598D01*
Y265500D01*
X499472D01*
X504016D01*
Y265598D01*
X503706Y266754D01*
X503108Y267790D01*
X502262Y268636D01*
X501436Y269112D01*
X501507Y269649D01*
X501612Y269677D01*
X502876Y270407D01*
X503908Y271439D01*
X504638Y272703D01*
X505016Y274113D01*
Y275572D01*
X504638Y276982D01*
X503908Y278246D01*
X502876Y279278D01*
X501612Y280008D01*
X500202Y280386D01*
X498743D01*
X498399Y280294D01*
X496019Y282675D01*
X495236Y283276D01*
X494323Y283653D01*
X493344Y283782D01*
X470945D01*
Y284165D01*
X470562D01*
Y313835D01*
X470945D01*
Y315218D01*
X485835D01*
Y314835D01*
X494165D01*
Y323165D01*
D02*
G37*
G36*
X453548Y284165D02*
X452452D01*
X451392Y283881D01*
X450442Y283333D01*
X449667Y282558D01*
X449119Y281608D01*
X448835Y280548D01*
Y279452D01*
X449119Y278392D01*
X449667Y277442D01*
X450442Y276667D01*
X451392Y276118D01*
X452452Y275835D01*
X453548D01*
X454608Y276118D01*
X455558Y276667D01*
X456333Y277442D01*
X456882Y278392D01*
X457165Y279452D01*
Y280548D01*
X456882Y281608D01*
X456333Y282558D01*
X455558Y283333D01*
X454608Y283881D01*
X453548Y284165D01*
D02*
G37*
G36*
X529901Y298496D02*
X528099D01*
X526319Y298214D01*
X524605Y297657D01*
X522999Y296839D01*
X521542Y295780D01*
X520267Y294506D01*
X519208Y293048D01*
X518390Y291442D01*
X517833Y289728D01*
X517551Y287948D01*
Y286146D01*
X517833Y284366D01*
X518390Y282652D01*
X519208Y281047D01*
X520267Y279589D01*
X521542Y278314D01*
X522999Y277255D01*
X524605Y276437D01*
X526319Y275880D01*
X528099Y275598D01*
X529901D01*
X531681Y275880D01*
X533395Y276437D01*
X535001Y277255D01*
X536458Y278314D01*
X537733Y279589D01*
X538792Y281047D01*
X539610Y282652D01*
X540167Y284366D01*
X540449Y286146D01*
Y287948D01*
X540167Y289728D01*
X539610Y291442D01*
X538792Y293048D01*
X537733Y294506D01*
X536458Y295780D01*
X535001Y296839D01*
X533395Y297657D01*
X531681Y298214D01*
X529901Y298496D01*
D02*
G37*
G36*
X557157Y279386D02*
X557059D01*
Y275343D01*
X561102D01*
Y275441D01*
X560793Y276596D01*
X560194Y277632D01*
X559349Y278478D01*
X558313Y279076D01*
X557157Y279386D01*
D02*
G37*
G36*
X453548Y248165D02*
X452452D01*
X451392Y247882D01*
X450442Y247333D01*
X449667Y246558D01*
X449119Y245608D01*
X448835Y244548D01*
Y243452D01*
X449119Y242392D01*
X449667Y241442D01*
X450442Y240667D01*
X451392Y240119D01*
X452452Y239835D01*
X453548D01*
X454608Y240119D01*
X455558Y240667D01*
X456333Y241442D01*
X456882Y242392D01*
X457165Y243452D01*
Y244548D01*
X456882Y245608D01*
X456333Y246558D01*
X455558Y247333D01*
X454608Y247882D01*
X453548Y248165D01*
D02*
G37*
G36*
X529901Y254402D02*
X528099D01*
X526319Y254120D01*
X524605Y253563D01*
X522999Y252745D01*
X521542Y251686D01*
X520267Y250411D01*
X519208Y248953D01*
X518390Y247348D01*
X517833Y245634D01*
X517551Y243854D01*
Y242052D01*
X517833Y240272D01*
X518390Y238558D01*
X519208Y236952D01*
X520267Y235494D01*
X521542Y234220D01*
X522999Y233161D01*
X524605Y232343D01*
X526319Y231786D01*
X528099Y231504D01*
X529901D01*
X531681Y231786D01*
X533395Y232343D01*
X535001Y233161D01*
X536458Y234220D01*
X537733Y235494D01*
X538792Y236952D01*
X539610Y238558D01*
X540167Y240272D01*
X540449Y242052D01*
Y243854D01*
X540167Y245634D01*
X539610Y247348D01*
X538792Y248953D01*
X537733Y250411D01*
X536458Y251686D01*
X535001Y252745D01*
X533395Y253563D01*
X531681Y254120D01*
X529901Y254402D01*
D02*
G37*
G36*
X447559Y168248D02*
X447500D01*
Y164500D01*
X451248D01*
Y164559D01*
X450958Y165640D01*
X450399Y166608D01*
X449608Y167399D01*
X448640Y167958D01*
X447559Y168248D01*
D02*
G37*
G36*
X446500D02*
X446441D01*
X445360Y167958D01*
X444392Y167399D01*
X443601Y166608D01*
X443042Y165640D01*
X442752Y164559D01*
Y164500D01*
X446500D01*
Y168248D01*
D02*
G37*
G36*
X451248Y163500D02*
X447500D01*
Y159752D01*
X447559D01*
X448640Y160041D01*
X449608Y160601D01*
X450399Y161392D01*
X450958Y162360D01*
X451248Y163441D01*
Y163500D01*
D02*
G37*
G36*
X446500D02*
X442752D01*
Y163441D01*
X443042Y162360D01*
X443601Y161392D01*
X444392Y160601D01*
X445360Y160041D01*
X446441Y159752D01*
X446500D01*
Y163500D01*
D02*
G37*
G36*
X556059Y279386D02*
X555961D01*
X554805Y279076D01*
X553769Y278478D01*
X552923Y277632D01*
X552325Y276596D01*
X552016Y275441D01*
Y274935D01*
X544682Y267601D01*
X544161Y266923D01*
X543834Y266132D01*
X543778Y265708D01*
X543722Y265284D01*
Y235358D01*
X517682Y209318D01*
X517161Y208639D01*
X516834Y207848D01*
X516778Y207424D01*
X516722Y207000D01*
Y148000D01*
X516834Y147152D01*
X517161Y146361D01*
X517682Y145682D01*
X518361Y145161D01*
X519152Y144834D01*
X520000Y144722D01*
X520848Y144834D01*
X521639Y145161D01*
X522318Y145682D01*
X522839Y146361D01*
X523166Y147152D01*
X523278Y148000D01*
Y205642D01*
X549318Y231682D01*
X549839Y232361D01*
X550166Y233152D01*
X550278Y234000D01*
Y263926D01*
X556652Y270299D01*
X557157D01*
X558313Y270609D01*
X559349Y271207D01*
X560194Y272053D01*
X560793Y273089D01*
X561102Y274244D01*
Y274343D01*
X556559D01*
Y274843D01*
X556059D01*
Y279386D01*
D02*
G37*
%LPD*%
G36*
X477146Y201754D02*
X475325Y199934D01*
X474724Y199151D01*
X474346Y198239D01*
X474218Y197260D01*
Y189000D01*
X474346Y188021D01*
X474724Y187109D01*
X475325Y186326D01*
X476109Y185724D01*
X477021Y185346D01*
X478000Y185218D01*
X478979Y185346D01*
X479891Y185724D01*
X480675Y186326D01*
X481276Y187109D01*
X481653Y188021D01*
X481782Y189000D01*
Y195693D01*
X483282Y197193D01*
X486854D01*
X487218Y196863D01*
Y189567D01*
X476899Y179248D01*
X476309D01*
X474974Y178890D01*
X473778Y178200D01*
X472800Y177222D01*
X472289Y176336D01*
X471711D01*
X471200Y177222D01*
X470782Y177639D01*
Y194220D01*
X470653Y195199D01*
X470276Y196112D01*
X469674Y196895D01*
X463235Y203335D01*
X463442Y203835D01*
X471165D01*
Y204633D01*
X473571D01*
X474550Y204762D01*
X475023Y204958D01*
X477146D01*
Y201754D01*
D02*
G37*
G36*
X533021Y118347D02*
X534000Y118218D01*
X546987D01*
X547050Y118155D01*
X548145Y117522D01*
X549129Y117259D01*
Y116741D01*
X548145Y116478D01*
X547050Y115845D01*
X546987Y115782D01*
X534567D01*
X532206Y118143D01*
X532489Y118567D01*
X533021Y118347D01*
D02*
G37*
G36*
X498325Y119325D02*
X499109Y118724D01*
X500021Y118347D01*
X501000Y118218D01*
X506987D01*
X507050Y118155D01*
X508145Y117522D01*
X509129Y117259D01*
Y116741D01*
X508145Y116478D01*
X507050Y115845D01*
X506155Y114950D01*
X505522Y113855D01*
X505195Y112633D01*
Y111367D01*
X505522Y110145D01*
X506155Y109050D01*
X507050Y108155D01*
X508145Y107522D01*
X509129Y107259D01*
Y106741D01*
X508145Y106478D01*
X507050Y105845D01*
X506483Y105278D01*
X504358D01*
X499318Y110318D01*
X498639Y110839D01*
X497848Y111166D01*
X497424Y111222D01*
X497000Y111278D01*
X474066D01*
X473737Y111654D01*
X473782Y112000D01*
Y114260D01*
X483378D01*
Y115260D01*
X484500D01*
Y120000D01*
X485500D01*
Y115260D01*
X487378D01*
Y117760D01*
X487839Y118361D01*
X488166Y119152D01*
X488278Y120000D01*
Y128720D01*
X488740Y128911D01*
X498325Y119325D01*
D02*
G37*
G36*
X494747Y93617D02*
Y83289D01*
X494525Y82461D01*
Y81539D01*
X494764Y80649D01*
X495225Y79851D01*
X495876Y79199D01*
X496674Y78738D01*
X497565Y78500D01*
X498218D01*
Y72782D01*
X463500D01*
Y73461D01*
X463278Y74289D01*
Y76465D01*
X488378D01*
Y87945D01*
X478782D01*
Y94000D01*
X478653Y94979D01*
X478276Y95891D01*
X477674Y96675D01*
X476961Y97222D01*
X476987Y97481D01*
X477098Y97722D01*
X490642D01*
X494747Y93617D01*
D02*
G37*
%LPC*%
G36*
X17957Y341248D02*
X2752D01*
Y332736D01*
X17957D01*
Y341248D01*
D02*
G37*
G36*
X174559Y336248D02*
X174500D01*
Y332500D01*
X178248D01*
Y332559D01*
X177959Y333640D01*
X177399Y334608D01*
X176608Y335399D01*
X175640Y335959D01*
X174559Y336248D01*
D02*
G37*
G36*
X173500D02*
X173441D01*
X172360Y335959D01*
X171392Y335399D01*
X170601Y334608D01*
X170042Y333640D01*
X169752Y332559D01*
Y332500D01*
X173500D01*
Y336248D01*
D02*
G37*
G36*
X178248Y331500D02*
X174500D01*
Y327752D01*
X174559D01*
X175640Y328042D01*
X176608Y328601D01*
X177399Y329392D01*
X177959Y330360D01*
X178248Y331441D01*
Y331500D01*
D02*
G37*
G36*
X173500D02*
X169752D01*
Y331441D01*
X170042Y330360D01*
X170601Y329392D01*
X171392Y328601D01*
X172360Y328042D01*
X173441Y327752D01*
X173500D01*
Y331500D01*
D02*
G37*
G36*
X194625Y336748D02*
X193375D01*
X192167Y336424D01*
X191085Y335799D01*
X190201Y334915D01*
X189576Y333833D01*
X189252Y332625D01*
Y331375D01*
X189576Y330167D01*
X190201Y329085D01*
X191085Y328201D01*
X192167Y327575D01*
X193375Y327252D01*
X194625D01*
X195833Y327575D01*
X196915Y328201D01*
X197799Y329085D01*
X198424Y330167D01*
X198748Y331375D01*
Y332625D01*
X198424Y333833D01*
X197799Y334915D01*
X196915Y335799D01*
X195833Y336424D01*
X194625Y336748D01*
D02*
G37*
G36*
X184625D02*
X183375D01*
X182167Y336424D01*
X181085Y335799D01*
X180201Y334915D01*
X179576Y333833D01*
X179252Y332625D01*
Y331375D01*
X179576Y330167D01*
X180201Y329085D01*
X181085Y328201D01*
X182167Y327575D01*
X183375Y327252D01*
X184625D01*
X185833Y327575D01*
X186915Y328201D01*
X187799Y329085D01*
X188425Y330167D01*
X188748Y331375D01*
Y332625D01*
X188425Y333833D01*
X187799Y334915D01*
X186915Y335799D01*
X185833Y336424D01*
X184625Y336748D01*
D02*
G37*
G36*
X145063Y343929D02*
X123500D01*
Y326500D01*
X145063D01*
Y343929D01*
D02*
G37*
G36*
X122500D02*
X100937D01*
Y326500D01*
X122500D01*
Y343929D01*
D02*
G37*
G36*
X324923Y342374D02*
X323077D01*
X321266Y342014D01*
X319560Y341307D01*
X318024Y340281D01*
X316719Y338976D01*
X315693Y337440D01*
X314986Y335734D01*
X314626Y333923D01*
Y332077D01*
X314986Y330266D01*
X315693Y328560D01*
X316719Y327024D01*
X318024Y325719D01*
X319560Y324693D01*
X321266Y323986D01*
X323077Y323626D01*
X324923D01*
X326734Y323986D01*
X328440Y324693D01*
X329976Y325719D01*
X331281Y327024D01*
X332307Y328560D01*
X333014Y330266D01*
X333374Y332077D01*
Y333923D01*
X333014Y335734D01*
X332307Y337440D01*
X331281Y338976D01*
X329976Y340281D01*
X328440Y341307D01*
X326734Y342014D01*
X324923Y342374D01*
D02*
G37*
G36*
X328248Y312248D02*
X324500D01*
Y308500D01*
X328248D01*
Y312248D01*
D02*
G37*
G36*
X323500D02*
X319752D01*
Y308500D01*
X323500D01*
Y312248D01*
D02*
G37*
G36*
X246862Y309862D02*
X239138D01*
Y307776D01*
X238638Y307642D01*
X238216Y308371D01*
X237497Y309090D01*
X236617Y309599D01*
X235634Y309862D01*
X234617D01*
X233635Y309599D01*
X232755Y309090D01*
X232035Y308371D01*
X231527Y307491D01*
X231264Y306508D01*
Y305491D01*
X231368Y305104D01*
X231321Y304990D01*
X231321Y304990D01*
X231321Y304990D01*
X231271Y304610D01*
X231226Y304272D01*
X231226Y304272D01*
X231226Y304272D01*
Y298018D01*
X230935Y297726D01*
X230430Y296853D01*
X230169Y295878D01*
Y294870D01*
X230430Y293895D01*
X230935Y293022D01*
X231648Y292309D01*
X232521Y291804D01*
X233496Y291543D01*
X234504D01*
X235479Y291804D01*
X236352Y292309D01*
X237065Y293022D01*
X237570Y293895D01*
X237831Y294870D01*
Y295878D01*
X237570Y296853D01*
X237065Y297726D01*
X236774Y298018D01*
Y302492D01*
X237497Y302909D01*
X238216Y303628D01*
X238638Y304358D01*
X239138Y304224D01*
Y302138D01*
X240813D01*
Y297515D01*
X240430Y296853D01*
X240169Y295878D01*
Y294870D01*
X240430Y293895D01*
X240935Y293022D01*
X241648Y292309D01*
X242521Y291804D01*
X243496Y291543D01*
X244504D01*
X245479Y291804D01*
X246352Y292309D01*
X247065Y293022D01*
X247570Y293895D01*
X247831Y294870D01*
Y295878D01*
X247570Y296853D01*
X247065Y297726D01*
X246360Y298431D01*
Y302138D01*
X246862D01*
Y309862D01*
D02*
G37*
G36*
X17957Y315264D02*
X2752D01*
Y306752D01*
X17957D01*
Y315264D01*
D02*
G37*
G36*
X227752Y309347D02*
Y306500D01*
X230599D01*
X230385Y307298D01*
X229942Y308064D01*
X229316Y308690D01*
X228550Y309133D01*
X227752Y309347D01*
D02*
G37*
G36*
X226752D02*
X225954Y309133D01*
X225188Y308690D01*
X224562Y308064D01*
X224119Y307298D01*
X223905Y306500D01*
X226752D01*
Y309347D01*
D02*
G37*
G36*
X328248Y307500D02*
X324500D01*
Y303752D01*
X328248D01*
Y307500D01*
D02*
G37*
G36*
X323500D02*
X319752D01*
Y303752D01*
X323500D01*
Y307500D01*
D02*
G37*
G36*
X40791Y332390D02*
X24406D01*
Y323484D01*
Y315610D01*
X28816D01*
Y306437D01*
X7326Y284946D01*
X6724Y284163D01*
X6346Y283250D01*
X6218Y282271D01*
Y264000D01*
X6346Y263021D01*
X6724Y262109D01*
X7326Y261326D01*
X14454Y254197D01*
Y253106D01*
X13728Y252380D01*
X12986Y251096D01*
X12602Y249663D01*
Y248180D01*
X12986Y246747D01*
X13728Y245462D01*
X14777Y244413D01*
X16062Y243671D01*
X17494Y243287D01*
X18978D01*
X20411Y243671D01*
X21696Y244413D01*
X22744Y245462D01*
X23486Y246747D01*
X23870Y248180D01*
Y249663D01*
X23486Y251096D01*
X22744Y252380D01*
X22019Y253106D01*
Y255764D01*
X21890Y256743D01*
X21512Y257655D01*
X20911Y258438D01*
X16459Y262890D01*
X16718Y263338D01*
X17494Y263130D01*
X18978D01*
X19180Y263184D01*
X30722Y251642D01*
Y233000D01*
X30778Y232576D01*
X30834Y232152D01*
X31161Y231361D01*
X31682Y230682D01*
X35603Y226761D01*
X36282Y226240D01*
X37073Y225912D01*
X37921Y225801D01*
X43151D01*
X43256Y225620D01*
X44304Y224571D01*
X45589Y223829D01*
X47022Y223445D01*
X48505D01*
X49938Y223829D01*
X51223Y224571D01*
X52272Y225620D01*
X53014Y226904D01*
X53398Y228337D01*
Y229820D01*
X53014Y231253D01*
X52272Y232538D01*
X51223Y233587D01*
X49938Y234329D01*
X48505Y234713D01*
X47022D01*
X45589Y234329D01*
X44304Y233587D01*
X43256Y232538D01*
X43151Y232357D01*
X39279D01*
X37278Y234358D01*
Y253000D01*
X37222Y253424D01*
X37166Y253848D01*
X36839Y254639D01*
X36318Y255318D01*
X23816Y267820D01*
X23870Y268022D01*
Y269506D01*
X23486Y270938D01*
X22744Y272223D01*
X21696Y273272D01*
X20411Y274014D01*
X18978Y274398D01*
X17494D01*
X16062Y274014D01*
X14777Y273272D01*
X14244Y272739D01*
X13782Y272931D01*
Y280705D01*
X35273Y302196D01*
X35874Y302979D01*
X36252Y303891D01*
X36381Y304870D01*
Y315610D01*
X37041D01*
X63100Y289550D01*
Y288419D01*
X63327Y287279D01*
X63772Y286206D01*
X64417Y285239D01*
X65239Y284418D01*
X66206Y283772D01*
X67279Y283327D01*
X68419Y283100D01*
X69581D01*
X70721Y283327D01*
X71794Y283772D01*
X72761Y284418D01*
X73583Y285239D01*
X74228Y286206D01*
X74673Y287279D01*
X74900Y288419D01*
Y289581D01*
X74673Y290721D01*
X74228Y291794D01*
X73583Y292761D01*
X72761Y293583D01*
X71794Y294228D01*
X70721Y294673D01*
X69581Y294900D01*
X68449D01*
X40791Y322558D01*
Y324218D01*
X51218D01*
Y323000D01*
X51346Y322021D01*
X51724Y321109D01*
X52325Y320325D01*
X63100Y309550D01*
Y308419D01*
X63327Y307279D01*
X63772Y306206D01*
X64417Y305239D01*
X65239Y304417D01*
X66206Y303772D01*
X67279Y303327D01*
X68419Y303100D01*
X69581D01*
X70721Y303327D01*
X71794Y303772D01*
X72761Y304417D01*
X73583Y305239D01*
X74228Y306206D01*
X74673Y307279D01*
X74900Y308419D01*
Y309581D01*
X74673Y310721D01*
X74228Y311794D01*
X73583Y312761D01*
X72761Y313582D01*
X71794Y314228D01*
X70721Y314673D01*
X69581Y314900D01*
X68449D01*
X58782Y324567D01*
Y328000D01*
X58653Y328979D01*
X58276Y329891D01*
X57674Y330675D01*
X56891Y331276D01*
X55979Y331653D01*
X55000Y331782D01*
X40791D01*
Y332390D01*
D02*
G37*
G36*
X230599Y305500D02*
X227752D01*
Y302653D01*
X228550Y302867D01*
X229316Y303310D01*
X229942Y303936D01*
X230385Y304702D01*
X230599Y305500D01*
D02*
G37*
G36*
X226752D02*
X223905D01*
X224119Y304702D01*
X224562Y303936D01*
X225188Y303310D01*
X225954Y302867D01*
X226752Y302653D01*
Y305500D01*
D02*
G37*
G36*
X254500Y298688D02*
Y295874D01*
X257314D01*
X257104Y296660D01*
X256665Y297419D01*
X256045Y298039D01*
X255286Y298478D01*
X254500Y298688D01*
D02*
G37*
G36*
X253500D02*
X252714Y298478D01*
X251955Y298039D01*
X251335Y297419D01*
X250896Y296660D01*
X250686Y295874D01*
X253500D01*
Y298688D01*
D02*
G37*
G36*
X257314Y294874D02*
X254500D01*
Y292060D01*
X255286Y292270D01*
X256045Y292709D01*
X256665Y293329D01*
X257104Y294088D01*
X257314Y294874D01*
D02*
G37*
G36*
X253500D02*
X250686D01*
X250896Y294088D01*
X251335Y293329D01*
X251955Y292709D01*
X252714Y292270D01*
X253500Y292060D01*
Y294874D01*
D02*
G37*
G36*
X334625Y312748D02*
X333375D01*
X332167Y312424D01*
X331085Y311799D01*
X330201Y310915D01*
X329575Y309833D01*
X329252Y308625D01*
Y307375D01*
X329575Y306167D01*
X330201Y305085D01*
X330722Y304563D01*
Y297358D01*
X330430Y296853D01*
X330169Y295878D01*
Y294870D01*
X330430Y293895D01*
X330935Y293022D01*
X331648Y292309D01*
X332521Y291804D01*
X333496Y291543D01*
X334504D01*
X335479Y291804D01*
X336352Y292309D01*
X337065Y293022D01*
X337570Y293895D01*
X337831Y294870D01*
Y295878D01*
X337570Y296853D01*
X337278Y297358D01*
Y304563D01*
X337799Y305085D01*
X338424Y306167D01*
X338748Y307375D01*
Y308625D01*
X338424Y309833D01*
X337799Y310915D01*
X336915Y311799D01*
X335833Y312424D01*
X334625Y312748D01*
D02*
G37*
G36*
X324504Y299205D02*
X323496D01*
X322521Y298944D01*
X321648Y298439D01*
X320935Y297726D01*
X320430Y296853D01*
X320169Y295878D01*
Y294870D01*
X320430Y293895D01*
X320935Y293022D01*
X321648Y292309D01*
X322521Y291804D01*
X323496Y291543D01*
X324504D01*
X325479Y291804D01*
X326352Y292309D01*
X327065Y293022D01*
X327570Y293895D01*
X327831Y294870D01*
Y295878D01*
X327570Y296853D01*
X327065Y297726D01*
X326352Y298439D01*
X325479Y298944D01*
X324504Y299205D01*
D02*
G37*
G36*
X314504D02*
X313496D01*
X312521Y298944D01*
X311648Y298439D01*
X310935Y297726D01*
X310430Y296853D01*
X310169Y295878D01*
Y294870D01*
X310430Y293895D01*
X310935Y293022D01*
X311648Y292309D01*
X312521Y291804D01*
X313496Y291543D01*
X314504D01*
X315479Y291804D01*
X316352Y292309D01*
X317065Y293022D01*
X317570Y293895D01*
X317831Y294870D01*
Y295878D01*
X317570Y296853D01*
X317065Y297726D01*
X316352Y298439D01*
X315479Y298944D01*
X314504Y299205D01*
D02*
G37*
G36*
X224504D02*
X223496D01*
X222521Y298944D01*
X221648Y298439D01*
X220935Y297726D01*
X220430Y296853D01*
X220169Y295878D01*
Y294870D01*
X220430Y293895D01*
X220935Y293022D01*
X221648Y292309D01*
X222521Y291804D01*
X223496Y291543D01*
X224504D01*
X225479Y291804D01*
X226352Y292309D01*
X227065Y293022D01*
X227570Y293895D01*
X227831Y294870D01*
Y295878D01*
X227570Y296853D01*
X227065Y297726D01*
X226352Y298439D01*
X225479Y298944D01*
X224504Y299205D01*
D02*
G37*
G36*
X194625Y326748D02*
X193375D01*
X192167Y326425D01*
X191085Y325799D01*
X190201Y324915D01*
X189576Y323833D01*
X189252Y322625D01*
Y321375D01*
X189576Y320167D01*
X190201Y319085D01*
X190722Y318563D01*
Y297358D01*
X190430Y296853D01*
X190169Y295878D01*
Y294870D01*
X190430Y293895D01*
X190935Y293022D01*
X191648Y292309D01*
X192521Y291804D01*
X193496Y291543D01*
X194504D01*
X195479Y291804D01*
X196352Y292309D01*
X197065Y293022D01*
X197570Y293895D01*
X197831Y294870D01*
Y295878D01*
X197570Y296853D01*
X197278Y297358D01*
Y318563D01*
X197799Y319085D01*
X198424Y320167D01*
X198748Y321375D01*
Y322625D01*
X198424Y323833D01*
X197799Y324915D01*
X196915Y325799D01*
X195833Y326425D01*
X194625Y326748D01*
D02*
G37*
G36*
X184625D02*
X183375D01*
X182167Y326425D01*
X181085Y325799D01*
X180201Y324915D01*
X179576Y323833D01*
X179252Y322625D01*
Y321375D01*
X179576Y320167D01*
X180201Y319085D01*
X180722Y318563D01*
Y297358D01*
X180430Y296853D01*
X180169Y295878D01*
Y294870D01*
X180430Y293895D01*
X180935Y293022D01*
X181648Y292309D01*
X182521Y291804D01*
X183496Y291543D01*
X184504D01*
X185479Y291804D01*
X186352Y292309D01*
X187065Y293022D01*
X187570Y293895D01*
X187831Y294870D01*
Y295878D01*
X187570Y296853D01*
X187278Y297358D01*
Y318563D01*
X187799Y319085D01*
X188425Y320167D01*
X188748Y321375D01*
Y322625D01*
X188425Y323833D01*
X187799Y324915D01*
X186915Y325799D01*
X185833Y326425D01*
X184625Y326748D01*
D02*
G37*
G36*
X174625D02*
X173375D01*
X172167Y326425D01*
X171085Y325799D01*
X170201Y324915D01*
X169576Y323833D01*
X169252Y322625D01*
Y321375D01*
X169576Y320167D01*
X170201Y319085D01*
X170722Y318563D01*
Y297358D01*
X170430Y296853D01*
X170169Y295878D01*
Y294870D01*
X170430Y293895D01*
X170935Y293022D01*
X171648Y292309D01*
X172521Y291804D01*
X173496Y291543D01*
X174504D01*
X175479Y291804D01*
X176352Y292309D01*
X177065Y293022D01*
X177570Y293895D01*
X177831Y294870D01*
Y295878D01*
X177570Y296853D01*
X177278Y297358D01*
Y318563D01*
X177799Y319085D01*
X178425Y320167D01*
X178748Y321375D01*
Y322625D01*
X178425Y323833D01*
X177799Y324915D01*
X176915Y325799D01*
X175833Y326425D01*
X174625Y326748D01*
D02*
G37*
G36*
X74900Y334900D02*
X63100D01*
Y323100D01*
X74900D01*
Y325218D01*
X86218D01*
Y306000D01*
X86347Y305021D01*
X86722Y304115D01*
Y276000D01*
X86834Y275152D01*
X87161Y274361D01*
X87682Y273682D01*
X88361Y273161D01*
X89152Y272834D01*
X90000Y272722D01*
X90848Y272834D01*
X91639Y273161D01*
X92318Y273682D01*
X92839Y274361D01*
X93166Y275152D01*
X93278Y276000D01*
Y296720D01*
X93740Y296911D01*
X104615Y286036D01*
X105398Y285435D01*
X106310Y285057D01*
X107289Y284928D01*
X109218D01*
Y284268D01*
X109346Y283289D01*
X109531Y282842D01*
Y276075D01*
X116469D01*
Y282842D01*
X116654Y283289D01*
X116782Y284268D01*
Y288429D01*
X116654Y289408D01*
X116469Y289855D01*
Y292461D01*
X112964D01*
X112719Y292493D01*
X108856D01*
X93782Y307567D01*
Y328000D01*
X93654Y328979D01*
X93276Y329891D01*
X92674Y330675D01*
X92109Y331109D01*
X91675Y331675D01*
X90891Y332276D01*
X89979Y332653D01*
X89000Y332782D01*
X74900D01*
Y334900D01*
D02*
G37*
G36*
X68500Y274400D02*
X68289D01*
X66916Y274032D01*
X65685Y273321D01*
X64679Y272315D01*
X63968Y271084D01*
X63600Y269711D01*
Y269500D01*
X68500D01*
Y274400D01*
D02*
G37*
G36*
X48505Y274398D02*
X47022D01*
X45589Y274014D01*
X44304Y273272D01*
X43256Y272223D01*
X42514Y270938D01*
X42130Y269506D01*
Y268022D01*
X42514Y266589D01*
X43256Y265304D01*
X44304Y264256D01*
X45589Y263514D01*
X47022Y263130D01*
X48505D01*
X49938Y263514D01*
X51223Y264256D01*
X52272Y265304D01*
X53014Y266589D01*
X53398Y268022D01*
Y269506D01*
X53014Y270938D01*
X52272Y272223D01*
X51223Y273272D01*
X49938Y274014D01*
X48505Y274398D01*
D02*
G37*
G36*
X228827Y342354D02*
Y342354D01*
X221693D01*
Y341774D01*
X205464D01*
X204747Y341679D01*
X204078Y341402D01*
X203503Y340961D01*
X202039Y339497D01*
X201598Y338923D01*
X201321Y338253D01*
X201226Y337536D01*
Y335881D01*
X201085Y335799D01*
X200201Y334915D01*
X199575Y333833D01*
X199252Y332625D01*
Y331375D01*
X199575Y330167D01*
X200201Y329085D01*
X201085Y328201D01*
X202167Y327575D01*
X203375Y327252D01*
X204625D01*
X205703Y327541D01*
X206059Y327353D01*
X206203Y327212D01*
Y326723D01*
X205703Y326459D01*
X204625Y326748D01*
X203375D01*
X202167Y326425D01*
X201085Y325799D01*
X200201Y324915D01*
X199575Y323833D01*
X199252Y322625D01*
Y321375D01*
X199575Y320167D01*
X200201Y319085D01*
X200722Y318563D01*
Y297358D01*
X200430Y296853D01*
X200169Y295878D01*
Y294870D01*
X200430Y293895D01*
X200935Y293022D01*
X201648Y292309D01*
X202521Y291804D01*
X203496Y291543D01*
X204504D01*
X205479Y291804D01*
X206352Y292309D01*
X207065Y293022D01*
X207570Y293895D01*
X207831Y294870D01*
Y295878D01*
X207570Y296853D01*
X207278Y297358D01*
Y307415D01*
X207740Y307606D01*
X211226Y304120D01*
Y298018D01*
X210935Y297726D01*
X210430Y296853D01*
X210169Y295878D01*
Y294870D01*
X210430Y293895D01*
X210935Y293022D01*
X211648Y292309D01*
X212521Y291804D01*
X213496Y291543D01*
X214504D01*
X215479Y291804D01*
X216352Y292309D01*
X217065Y293022D01*
X217570Y293895D01*
X217831Y294870D01*
Y295878D01*
X217570Y296853D01*
X217065Y297726D01*
X216774Y298018D01*
Y305269D01*
X216679Y305986D01*
X216402Y306656D01*
X215961Y307230D01*
X211750Y311441D01*
Y317252D01*
X218748D01*
Y319356D01*
X221646D01*
Y318693D01*
X230354D01*
Y319486D01*
X230536D01*
X231254Y319581D01*
X231923Y319858D01*
X232497Y320299D01*
X234701Y322503D01*
X235142Y323078D01*
X235419Y323746D01*
X235514Y324464D01*
Y333646D01*
X236307D01*
Y335226D01*
X242226D01*
Y317000D01*
X242321Y316282D01*
X242598Y315613D01*
X243039Y315039D01*
X251669Y306409D01*
X251957Y306188D01*
Y304232D01*
X254226D01*
Y302374D01*
X254321Y301656D01*
X254598Y300987D01*
X255039Y300413D01*
X260169Y295282D01*
Y294870D01*
X260430Y293895D01*
X260935Y293022D01*
X261226Y292730D01*
Y289464D01*
Y285775D01*
X238369Y262917D01*
X237920Y263176D01*
X238000Y263473D01*
Y264527D01*
X237727Y265544D01*
X237201Y266456D01*
X236456Y267201D01*
X235544Y267727D01*
X234527Y268000D01*
X233473D01*
X232456Y267727D01*
X231544Y267201D01*
X230799Y266456D01*
X230273Y265544D01*
X230040Y264676D01*
X207374Y242010D01*
X182299D01*
X181878Y241954D01*
X181451Y241898D01*
X180660Y241571D01*
X180305Y241299D01*
X179981Y241050D01*
X177388Y238457D01*
X170169D01*
Y234533D01*
X169707Y234341D01*
X151087Y252961D01*
X150513Y253402D01*
X149844Y253679D01*
X149126Y253774D01*
X136278D01*
Y276075D01*
X136469D01*
Y292461D01*
X129532D01*
Y276075D01*
X129722D01*
Y252653D01*
X129584Y252415D01*
X129335Y251483D01*
Y250518D01*
X129584Y249585D01*
X130067Y248749D01*
X130749Y248067D01*
X131585Y247584D01*
X132518Y247335D01*
X133483D01*
X134415Y247584D01*
X135251Y248067D01*
X135410Y248226D01*
X147977D01*
X172264Y223940D01*
Y223492D01*
X172527Y222509D01*
X173036Y221628D01*
X173352Y221312D01*
Y216346D01*
X173447Y215629D01*
X173724Y214960D01*
X174165Y214385D01*
X179646Y208904D01*
Y205693D01*
X188330D01*
X188354Y205693D01*
X188722Y205373D01*
Y193358D01*
X164000Y168636D01*
X127838Y204798D01*
X127159Y205319D01*
X126368Y205647D01*
X125944Y205703D01*
X125520Y205758D01*
X101278D01*
Y233863D01*
X102358Y234942D01*
X112346D01*
X112771Y234998D01*
X113195Y235054D01*
X113985Y235382D01*
X114664Y235903D01*
X126596Y247835D01*
X128291D01*
Y250149D01*
X128292Y250152D01*
X128404Y251000D01*
X128292Y251848D01*
X128291Y251851D01*
Y254165D01*
X126596D01*
X126278Y254484D01*
Y268000D01*
Y284268D01*
Y308071D01*
X145063D01*
Y325500D01*
X100937D01*
Y308071D01*
X119722D01*
Y284268D01*
Y271278D01*
X73920D01*
X73321Y272315D01*
X72315Y273321D01*
X71084Y274032D01*
X69711Y274400D01*
X69500D01*
Y269000D01*
X69000D01*
Y268500D01*
X63600D01*
Y268289D01*
X63968Y266916D01*
X64679Y265685D01*
X65685Y264679D01*
X65722Y264658D01*
Y238000D01*
X65778Y237576D01*
X65834Y237152D01*
X66161Y236361D01*
X66682Y235682D01*
X68612Y233753D01*
X68600Y233711D01*
Y233500D01*
X73500D01*
Y238400D01*
X73289D01*
X73247Y238388D01*
X72278Y239358D01*
Y264658D01*
X72315Y264679D01*
X72358Y264722D01*
X119722D01*
Y253126D01*
X119778Y252702D01*
X119834Y252278D01*
X120161Y251487D01*
X120515Y251025D01*
X110989Y241498D01*
X101000D01*
X100576Y241443D01*
X100152Y241387D01*
X99361Y241059D01*
X98682Y240538D01*
X95682Y237538D01*
X95161Y236859D01*
X94834Y236069D01*
X94778Y235645D01*
X94722Y235220D01*
Y205547D01*
X94146D01*
Y205329D01*
X89000D01*
X88152Y205218D01*
X87361Y204890D01*
X86682Y204369D01*
X86161Y203690D01*
X85834Y202900D01*
X85722Y202051D01*
X85834Y201203D01*
X86161Y200412D01*
X86682Y199733D01*
X87262Y199288D01*
X87309Y199050D01*
Y198950D01*
X87262Y198712D01*
X87027Y198531D01*
X86673D01*
Y198255D01*
X86161Y197588D01*
X85834Y196797D01*
X85722Y195949D01*
X85834Y195100D01*
X85924Y194883D01*
Y193307D01*
X84646D01*
Y186327D01*
X84646Y185827D01*
X84646Y185673D01*
Y182541D01*
X80361Y178257D01*
X79900Y178448D01*
Y178900D01*
X68100D01*
Y167100D01*
X75264D01*
X120052Y122312D01*
X120731Y121791D01*
X121522Y121464D01*
X121946Y121408D01*
X122370Y121352D01*
X160981D01*
X161266Y121067D01*
X162281Y120481D01*
X163414Y120177D01*
X164586D01*
X165719Y120481D01*
X166734Y121067D01*
X167563Y121896D01*
X168149Y122911D01*
X168453Y124044D01*
Y125216D01*
X168149Y126349D01*
X167563Y127364D01*
X166734Y128193D01*
X165719Y128779D01*
X164586Y129083D01*
X163414D01*
X162281Y128779D01*
X161266Y128193D01*
X160981Y127908D01*
X123728D01*
X81701Y169934D01*
X81734Y170433D01*
X82058Y170682D01*
X90069Y178693D01*
X93354D01*
Y185673D01*
X93354Y186173D01*
X93354Y186327D01*
Y191054D01*
X93646Y191433D01*
X102354D01*
Y191722D01*
X112000D01*
X112424Y191778D01*
X112848Y191834D01*
X113639Y192161D01*
X114318Y192682D01*
X115318Y193682D01*
X115839Y194361D01*
X116166Y195152D01*
X116278Y196000D01*
X116166Y196848D01*
X116000Y197250D01*
Y197395D01*
X115796Y198158D01*
X115481Y198702D01*
X115690Y199202D01*
X124162D01*
X160047Y163317D01*
Y160047D01*
X163500D01*
Y164000D01*
X164500D01*
Y160047D01*
X167953D01*
Y163317D01*
X194318Y189682D01*
X194839Y190361D01*
X195166Y191152D01*
X195222Y191576D01*
X195278Y192000D01*
Y204642D01*
X204343Y213707D01*
X204864Y214386D01*
X205192Y215177D01*
X205303Y216025D01*
Y219592D01*
X205433Y219722D01*
X213000D01*
X213424Y219778D01*
X213848Y219834D01*
X214639Y220161D01*
X215318Y220682D01*
X219260Y224624D01*
X219722Y224433D01*
Y107358D01*
X211642Y99278D01*
X80307D01*
Y100354D01*
X73327D01*
X72778Y100354D01*
X72278Y100607D01*
Y114148D01*
X72469Y114339D01*
X73039Y115327D01*
X73335Y116429D01*
Y117571D01*
X73039Y118673D01*
X72469Y119661D01*
X72278Y119852D01*
Y128646D01*
X72827D01*
Y137354D01*
X65693D01*
Y128646D01*
X65722D01*
Y119852D01*
X65531Y119661D01*
X64961Y118673D01*
X64665Y117571D01*
Y116429D01*
X64961Y115327D01*
X65531Y114339D01*
X65722Y114148D01*
Y100354D01*
X65693D01*
Y91646D01*
X72673D01*
X73173Y91646D01*
X73327Y91646D01*
X80307D01*
Y92722D01*
X213000D01*
X213424Y92778D01*
X213848Y92834D01*
X214639Y93161D01*
X215318Y93682D01*
X225318Y103682D01*
X225839Y104361D01*
X226166Y105152D01*
X226278Y106000D01*
Y201541D01*
X226778Y201574D01*
X226834Y201152D01*
X227161Y200361D01*
X227682Y199682D01*
X228361Y199161D01*
X229152Y198834D01*
X230000Y198722D01*
X256000D01*
X256424Y198778D01*
X256848Y198834D01*
X257639Y199161D01*
X258318Y199682D01*
X268538Y209902D01*
X269000Y209711D01*
Y209605D01*
X269204Y208842D01*
X269599Y208158D01*
X270158Y207599D01*
X270842Y207204D01*
X270884Y207193D01*
X284336Y193741D01*
Y174744D01*
X283839Y174639D01*
X283318Y175318D01*
X282639Y175839D01*
X281848Y176166D01*
X281000Y176278D01*
X280152Y176166D01*
X279361Y175839D01*
X278682Y175318D01*
X278161Y174639D01*
X277834Y173848D01*
X277722Y173000D01*
Y167436D01*
X277586Y167332D01*
X273532Y163278D01*
X266050D01*
X265626Y163222D01*
X265202Y163166D01*
X264411Y162839D01*
X263732Y162318D01*
X261682Y160268D01*
X261161Y159589D01*
X260834Y158798D01*
X260778Y158374D01*
X260722Y157950D01*
Y152278D01*
X255278D01*
Y165110D01*
X255166Y165959D01*
X254839Y166749D01*
X254318Y167428D01*
X254000Y167746D01*
Y169736D01*
X251610D01*
Y166000D01*
X250610D01*
Y169736D01*
X248280D01*
Y170236D01*
X245278D01*
Y184000D01*
X245166Y184848D01*
X244839Y185639D01*
X244318Y186318D01*
X243639Y186839D01*
X242848Y187166D01*
X242000Y187278D01*
X241152Y187166D01*
X240361Y186839D01*
X239682Y186318D01*
X239161Y185639D01*
X238834Y184848D01*
X238722Y184000D01*
Y167362D01*
X238778Y166938D01*
X238834Y166514D01*
X239161Y165723D01*
X239682Y165044D01*
X240848Y163878D01*
Y152665D01*
X240461D01*
Y145335D01*
X247791D01*
Y152665D01*
X247404D01*
Y161764D01*
X248280D01*
Y161764D01*
X248722Y161625D01*
Y149000D01*
X248834Y148152D01*
X249161Y147361D01*
X249682Y146682D01*
X250361Y146161D01*
X251152Y145834D01*
X252000Y145722D01*
X260722D01*
Y135260D01*
X260778Y134836D01*
X260834Y134411D01*
X260982Y134054D01*
Y109114D01*
X261038Y108690D01*
X261093Y108266D01*
X261421Y107475D01*
X261604Y107236D01*
X261358Y106736D01*
X260610D01*
Y103000D01*
X259610D01*
Y106736D01*
X257280D01*
Y107236D01*
X257278D01*
Y116642D01*
X259318Y118682D01*
X259839Y119361D01*
X260166Y120152D01*
X260278Y121000D01*
X260166Y121848D01*
X259839Y122639D01*
X259318Y123318D01*
X258639Y123839D01*
X257848Y124166D01*
X257000Y124278D01*
X256152Y124166D01*
X255361Y123839D01*
X254682Y123318D01*
X251682Y120318D01*
X251161Y119639D01*
X250834Y118848D01*
X250778Y118424D01*
X250722Y118000D01*
Y107236D01*
X250500D01*
Y98764D01*
X250612D01*
Y96110D01*
X250668Y95686D01*
X250724Y95262D01*
X251051Y94471D01*
X251572Y93792D01*
X251942Y93422D01*
X252621Y92901D01*
X253411Y92574D01*
X253646Y92543D01*
X253646Y91827D01*
X253646Y91673D01*
Y84693D01*
X254722D01*
Y83307D01*
X253646D01*
Y76173D01*
X253646D01*
Y75827D01*
X253646D01*
Y68693D01*
X259722D01*
Y62000D01*
X259834Y61152D01*
X260161Y60361D01*
X260682Y59682D01*
X261361Y59161D01*
X262152Y58834D01*
X263000Y58722D01*
X266000D01*
X266848Y58834D01*
X267639Y59161D01*
X268318Y59682D01*
X268839Y60361D01*
X269166Y61152D01*
X269278Y62000D01*
X269232Y62351D01*
X269676Y62811D01*
X269837Y62832D01*
X291701D01*
X292034Y62332D01*
X291834Y61848D01*
X291722Y61000D01*
Y60354D01*
X291693D01*
Y51791D01*
X289484D01*
Y51291D01*
X286563D01*
Y43598D01*
X286063D01*
Y43098D01*
X282110D01*
Y35906D01*
X283307D01*
Y34050D01*
X283363Y33626D01*
X283419Y33202D01*
X283746Y32411D01*
X284267Y31732D01*
X286317Y29682D01*
X286996Y29161D01*
X287787Y28834D01*
X288211Y28778D01*
X288635Y28722D01*
X298736D01*
Y13752D01*
X307248D01*
Y28957D01*
X302194D01*
X302024Y29457D01*
X302318Y29682D01*
X311100Y38464D01*
X311621Y39143D01*
X311949Y39934D01*
X312005Y40358D01*
X312060Y40782D01*
Y47019D01*
X315318Y50276D01*
X315621Y50671D01*
X315801Y50851D01*
X316262Y51649D01*
X316490Y52500D01*
X313000D01*
Y53500D01*
X316490D01*
X316278Y54289D01*
Y56722D01*
X319000D01*
X319848Y56834D01*
X320639Y57161D01*
X321318Y57682D01*
X321839Y58361D01*
X322166Y59152D01*
X322278Y60000D01*
Y72000D01*
X322166Y72848D01*
X321839Y73639D01*
X321318Y74318D01*
X321058Y74578D01*
X320379Y75099D01*
X319589Y75426D01*
X319164Y75482D01*
X318740Y75538D01*
X313000D01*
X312152Y75426D01*
X311912Y75327D01*
X310146D01*
Y73861D01*
X309834Y73108D01*
X309722Y72260D01*
X309834Y71411D01*
X310146Y70658D01*
Y69500D01*
X308764D01*
Y69388D01*
X299719D01*
X299654Y69888D01*
X300459Y70104D01*
X301321Y70602D01*
X302024Y71305D01*
X302522Y72167D01*
X302780Y73128D01*
Y74124D01*
X302522Y75085D01*
X302278Y75507D01*
Y81642D01*
X302358Y81722D01*
X304654D01*
X304988Y81222D01*
X304834Y80848D01*
X304722Y80000D01*
X304834Y79152D01*
X305161Y78361D01*
X305682Y77682D01*
X306361Y77161D01*
X307152Y76834D01*
X308000Y76722D01*
X309646D01*
Y76173D01*
X318354D01*
Y81068D01*
X318579Y81361D01*
X318907Y82152D01*
X318962Y82576D01*
X319018Y83000D01*
Y92646D01*
X319307D01*
Y101354D01*
X319307D01*
Y101646D01*
X319307D01*
Y110354D01*
X312173D01*
Y110354D01*
X311827D01*
Y110354D01*
X304693D01*
Y107069D01*
X303241Y105617D01*
X302780Y105809D01*
Y108153D01*
X302278D01*
Y122260D01*
X302166Y123108D01*
X301839Y123899D01*
X301354Y124530D01*
Y127673D01*
X301354Y127827D01*
X301354D01*
Y128173D01*
X301354D01*
Y135307D01*
X300278D01*
Y138654D01*
X300778Y138988D01*
X301152Y138834D01*
X302000Y138722D01*
X317693D01*
Y136646D01*
X317982D01*
Y129976D01*
X317102Y129469D01*
X316295Y128662D01*
X315725Y127673D01*
X315429Y126571D01*
Y125429D01*
X315725Y124327D01*
X316295Y123338D01*
X316486Y123148D01*
Y120236D01*
X316542Y119812D01*
X316597Y119388D01*
X316925Y118597D01*
X317446Y117918D01*
X317682Y117682D01*
X318361Y117161D01*
X319152Y116834D01*
X320000Y116722D01*
X339722D01*
Y110188D01*
X338775Y109242D01*
X338289Y108399D01*
X337711D01*
X337225Y109242D01*
X336242Y110225D01*
X335038Y110920D01*
X333695Y111279D01*
X332305D01*
X330962Y110920D01*
X329758Y110225D01*
X328775Y109242D01*
X328080Y108038D01*
X327720Y106695D01*
Y105305D01*
X328080Y103962D01*
X328775Y102758D01*
X328965Y102568D01*
Y81158D01*
X327974Y80892D01*
X326776Y80201D01*
X325799Y79224D01*
X325108Y78026D01*
X324750Y76691D01*
Y75309D01*
X325108Y73974D01*
X325799Y72776D01*
X326776Y71799D01*
X327660Y71289D01*
Y70711D01*
X326776Y70201D01*
X325799Y69224D01*
X325108Y68026D01*
X324750Y66691D01*
Y65309D01*
X325108Y63974D01*
X325799Y62776D01*
X326776Y61799D01*
X327974Y61108D01*
X329309Y60750D01*
X330614D01*
X338610Y52754D01*
Y36406D01*
X355390D01*
Y52791D01*
X354215D01*
Y55579D01*
X359386Y60750D01*
X360691D01*
X362026Y61108D01*
X363224Y61799D01*
X364201Y62776D01*
X364892Y63974D01*
X365250Y65309D01*
Y66691D01*
X364892Y68026D01*
X364201Y69224D01*
X363224Y70201D01*
X362026Y70892D01*
X361624Y71000D01*
Y71518D01*
X361833Y71574D01*
X362917Y72199D01*
X363801Y73083D01*
X364426Y74167D01*
X364750Y75375D01*
Y75500D01*
X360000D01*
X355250D01*
Y75375D01*
X355574Y74167D01*
X356199Y73083D01*
X357083Y72199D01*
X358167Y71574D01*
X358376Y71518D01*
Y71000D01*
X357974Y70892D01*
X356776Y70201D01*
X355799Y69224D01*
X355108Y68026D01*
X354750Y66691D01*
Y65386D01*
X348619Y59255D01*
X348098Y58576D01*
X347771Y57785D01*
X347715Y57361D01*
X347659Y56937D01*
Y52791D01*
X346341D01*
Y52937D01*
X346285Y53361D01*
X346229Y53785D01*
X345902Y54576D01*
X345381Y55255D01*
X335250Y65386D01*
Y66691D01*
X334892Y68026D01*
X334201Y69224D01*
X333224Y70201D01*
X332340Y70711D01*
Y71289D01*
X333224Y71799D01*
X334201Y72776D01*
X334892Y73974D01*
X335250Y75309D01*
Y75544D01*
X335853Y76147D01*
X336494Y76983D01*
X336897Y77956D01*
X337035Y79000D01*
Y102568D01*
X337225Y102758D01*
X337711Y103601D01*
X338289D01*
X338775Y102758D01*
X339758Y101775D01*
X340962Y101080D01*
X342305Y100721D01*
X343695D01*
X345038Y101080D01*
X346242Y101775D01*
X347220Y102754D01*
X347341Y102753D01*
X347721Y102651D01*
Y100721D01*
X358279D01*
Y111279D01*
X356278D01*
Y112693D01*
X357354D01*
Y119827D01*
X357354D01*
Y119962D01*
X357735Y120462D01*
X358394D01*
X358818Y120518D01*
X359242Y120574D01*
X360033Y120901D01*
X360712Y121422D01*
X369132Y129842D01*
X369201D01*
X370258Y130126D01*
X371206Y130673D01*
X371980Y131447D01*
X372528Y132395D01*
X372811Y133453D01*
Y134547D01*
X372720Y134889D01*
X373605Y135126D01*
X374553Y135673D01*
X375327Y136447D01*
X375874Y137395D01*
X376157Y138453D01*
Y139547D01*
X375874Y140605D01*
X375327Y141553D01*
X374553Y142327D01*
X373605Y142874D01*
X372547Y143157D01*
X372301Y143479D01*
X372306Y143500D01*
X368654D01*
X365001D01*
X365195Y142778D01*
X364901Y142278D01*
X356791D01*
X356622Y142778D01*
X356961Y143039D01*
X362149Y148226D01*
X370276D01*
X370361Y148161D01*
X371152Y147834D01*
X372000Y147722D01*
X372848Y147834D01*
X373639Y148161D01*
X374318Y148682D01*
X374839Y149361D01*
X375166Y150152D01*
X375278Y151000D01*
X375166Y151848D01*
X374839Y152639D01*
X374318Y153318D01*
X364278Y163358D01*
Y197000D01*
X364166Y197848D01*
X363839Y198639D01*
X363318Y199318D01*
X362639Y199839D01*
X361848Y200166D01*
X361000Y200278D01*
X336358D01*
X333110Y203526D01*
X333301Y203988D01*
X340169D01*
Y218012D01*
X339384D01*
Y222264D01*
X341610D01*
Y226000D01*
X342610D01*
Y222264D01*
X345000D01*
Y223226D01*
X357264D01*
Y221280D01*
X356764D01*
Y218540D01*
X353774D01*
X352925Y218428D01*
X352135Y218101D01*
X352019Y218012D01*
X345831D01*
Y203988D01*
X355524D01*
Y211984D01*
X358526D01*
X358950Y212040D01*
X359374Y212095D01*
X360165Y212423D01*
X360843Y212944D01*
X362400Y214500D01*
X368600D01*
X370292Y212808D01*
X370971Y212287D01*
X371762Y211960D01*
X372610Y211848D01*
X380335D01*
Y211461D01*
X387665D01*
Y218791D01*
X380335D01*
Y218404D01*
X373968D01*
X373236Y219136D01*
Y221280D01*
X373713Y221337D01*
X381245D01*
X381387Y221195D01*
X381467Y221056D01*
X382056Y220467D01*
X382778Y220050D01*
X383500Y219857D01*
Y223000D01*
X384000D01*
Y223500D01*
X387143D01*
X386950Y224222D01*
X386533Y224944D01*
X385944Y225533D01*
X385222Y225950D01*
X384417Y226165D01*
X384233D01*
X383781Y226512D01*
X383112Y226789D01*
X382394Y226884D01*
X372736D01*
Y227000D01*
X369500D01*
Y224110D01*
X368500D01*
Y227000D01*
X365264D01*
Y226884D01*
X364736D01*
Y227000D01*
X362187D01*
X361225Y227961D01*
X360651Y228402D01*
X359982Y228679D01*
X359264Y228774D01*
X345000D01*
Y229736D01*
X344884D01*
Y231014D01*
X345538Y231668D01*
X346045Y231961D01*
X346665Y232581D01*
X347104Y233340D01*
X347314Y234126D01*
X344000D01*
Y235126D01*
X347314D01*
X347104Y235912D01*
X346665Y236671D01*
X346114Y237222D01*
X346212Y237722D01*
X350722D01*
Y236610D01*
X350430Y236105D01*
X350169Y235130D01*
Y234122D01*
X350430Y233147D01*
X350935Y232274D01*
X351648Y231561D01*
X352521Y231056D01*
X353496Y230795D01*
X354504D01*
X355479Y231056D01*
X356352Y231561D01*
X357065Y232274D01*
X357570Y233147D01*
X357831Y234122D01*
Y235130D01*
X357570Y236105D01*
X357278Y236610D01*
Y241000D01*
X357166Y241848D01*
X356839Y242639D01*
X356318Y243318D01*
X355639Y243839D01*
X354848Y244166D01*
X354000Y244278D01*
X230000D01*
X229152Y244166D01*
X228361Y243839D01*
X227682Y243318D01*
X226682Y242318D01*
X226161Y241639D01*
X225834Y240848D01*
X225778Y240424D01*
X225722Y240000D01*
Y237978D01*
X225577Y237894D01*
X225222Y237747D01*
X224500Y237940D01*
Y234626D01*
X223500D01*
Y237940D01*
X222714Y237730D01*
X221955Y237291D01*
X221335Y236671D01*
X220896Y235912D01*
X220757Y235393D01*
X217649Y232285D01*
X217249Y232592D01*
X217570Y233147D01*
X217831Y234122D01*
Y234534D01*
X265961Y282665D01*
X266402Y283239D01*
X266679Y283908D01*
X266774Y284626D01*
Y285226D01*
X345536D01*
X346253Y285321D01*
X346922Y285598D01*
X347497Y286039D01*
X350961Y289503D01*
X351402Y290077D01*
X351679Y290746D01*
X351774Y291464D01*
Y291736D01*
X352207Y291986D01*
X352521Y291804D01*
X353496Y291543D01*
X354504D01*
X355479Y291804D01*
X356352Y292309D01*
X357065Y293022D01*
X357570Y293895D01*
X357721Y294459D01*
X359839Y296577D01*
X360287Y296318D01*
X360169Y295878D01*
Y294870D01*
X360430Y293895D01*
X360935Y293022D01*
X361648Y292309D01*
X362521Y291804D01*
X363496Y291543D01*
X364504D01*
X365479Y291804D01*
X365745Y291381D01*
X361682Y287318D01*
X361161Y286639D01*
X360834Y285848D01*
X360778Y285424D01*
X360722Y285000D01*
Y236610D01*
X360430Y236105D01*
X360169Y235130D01*
Y234122D01*
X360430Y233147D01*
X360935Y232274D01*
X361648Y231561D01*
X362521Y231056D01*
X363496Y230795D01*
X364504D01*
X365479Y231056D01*
X366352Y231561D01*
X367065Y232274D01*
X367570Y233147D01*
X367831Y234122D01*
Y235130D01*
X367570Y236105D01*
X367278Y236610D01*
Y283642D01*
X401318Y317682D01*
X401839Y318361D01*
X402166Y319152D01*
X402171Y319185D01*
X406406D01*
Y332815D01*
X392776D01*
Y319185D01*
X392896D01*
X393087Y318723D01*
X367993Y293629D01*
X367570Y293895D01*
X367721Y294459D01*
X386318Y313056D01*
X386839Y313735D01*
X387166Y314526D01*
X387222Y314950D01*
X387278Y315374D01*
Y319994D01*
X388344Y320707D01*
X389294Y321656D01*
X390039Y322772D01*
X390553Y324012D01*
X390815Y325329D01*
Y326671D01*
X390553Y327988D01*
X390039Y329228D01*
X389294Y330344D01*
X388344Y331294D01*
X387228Y332039D01*
X385988Y332553D01*
X384671Y332815D01*
X383329D01*
X382012Y332553D01*
X380772Y332039D01*
X379656Y331294D01*
X378707Y330344D01*
X377961Y329228D01*
X377447Y327988D01*
X377185Y326671D01*
Y325329D01*
X377447Y324012D01*
X377961Y322772D01*
X378707Y321656D01*
X379656Y320707D01*
X380722Y319994D01*
Y316732D01*
X363430Y299439D01*
X363411Y299442D01*
X363232Y299970D01*
X370727Y307466D01*
X371248Y308144D01*
X371576Y308935D01*
X371632Y309359D01*
X371687Y309783D01*
Y319994D01*
X372754Y320707D01*
X373703Y321656D01*
X374449Y322772D01*
X374962Y324012D01*
X375224Y325329D01*
Y326671D01*
X374962Y327988D01*
X374449Y329228D01*
X373703Y330344D01*
X372754Y331294D01*
X371638Y332039D01*
X370397Y332553D01*
X369081Y332815D01*
X367738D01*
X366422Y332553D01*
X365181Y332039D01*
X364065Y331294D01*
X363116Y330344D01*
X362370Y329228D01*
X361856Y327988D01*
X361594Y326671D01*
Y325329D01*
X361856Y324012D01*
X362370Y322772D01*
X363116Y321656D01*
X364065Y320707D01*
X365131Y319994D01*
Y311141D01*
X353085Y299095D01*
X352521Y298944D01*
X352207Y298762D01*
X351774Y299012D01*
Y301851D01*
X353217Y303294D01*
X353375Y303252D01*
X354625D01*
X355833Y303575D01*
X356915Y304201D01*
X357799Y305085D01*
X358424Y306167D01*
X358748Y307375D01*
Y308625D01*
X358424Y309833D01*
X357799Y310915D01*
X356915Y311799D01*
X355833Y312424D01*
X354625Y312748D01*
X353375D01*
X352167Y312424D01*
X351085Y311799D01*
X350201Y310915D01*
X349575Y309833D01*
X349252Y308625D01*
Y307628D01*
X349248Y307625D01*
X348768Y307853D01*
X348748Y307887D01*
Y308625D01*
X348425Y309833D01*
X347799Y310915D01*
X346915Y311799D01*
X345833Y312424D01*
X344625Y312748D01*
X343375D01*
X342167Y312424D01*
X341085Y311799D01*
X340201Y310915D01*
X339576Y309833D01*
X339252Y308625D01*
Y307375D01*
X339576Y306167D01*
X340201Y305085D01*
X340722Y304563D01*
Y297358D01*
X340430Y296853D01*
X340169Y295878D01*
Y294870D01*
X340430Y293895D01*
X340935Y293022D01*
X341648Y292309D01*
X342521Y291804D01*
X343496Y291543D01*
X344449D01*
X344647Y291297D01*
X344743Y291130D01*
X344387Y290774D01*
X302774D01*
Y291326D01*
X303170Y291630D01*
X303496Y291543D01*
X304504D01*
X305479Y291804D01*
X306352Y292309D01*
X307065Y293022D01*
X307570Y293895D01*
X307831Y294870D01*
Y295878D01*
X307570Y296853D01*
X307278Y297358D01*
Y315950D01*
X307222Y316374D01*
X307166Y316798D01*
X306839Y317589D01*
X306318Y318268D01*
X304268Y320318D01*
X303589Y320839D01*
X302798Y321166D01*
X302374Y321222D01*
X301950Y321278D01*
X298748D01*
Y322748D01*
X289252D01*
Y313252D01*
X298748D01*
Y314722D01*
X300592D01*
X300722Y314592D01*
Y305854D01*
X300260Y305663D01*
X298706Y307217D01*
X298748Y307375D01*
Y308625D01*
X298425Y309833D01*
X297799Y310915D01*
X296915Y311799D01*
X295833Y312424D01*
X294625Y312748D01*
X293375D01*
X292167Y312424D01*
X291085Y311799D01*
X290201Y310915D01*
X289576Y309833D01*
X289252Y308625D01*
Y307375D01*
X289576Y306167D01*
X290201Y305085D01*
X291085Y304201D01*
X292167Y303575D01*
X293375Y303252D01*
X294625D01*
X294783Y303294D01*
X297226Y300851D01*
Y298272D01*
X296726Y298065D01*
X296352Y298439D01*
X295479Y298944D01*
X294504Y299205D01*
X293496D01*
X292521Y298944D01*
X291648Y298439D01*
X290935Y297726D01*
X290430Y296853D01*
X290169Y295878D01*
Y294870D01*
X290430Y293895D01*
X290935Y293022D01*
X291648Y292309D01*
X292521Y291804D01*
X293496Y291543D01*
X294504D01*
X295479Y291804D01*
X296352Y292309D01*
X296726Y292683D01*
X297226Y292476D01*
Y290774D01*
X266774D01*
Y292730D01*
X267065Y293022D01*
X267570Y293895D01*
X267831Y294870D01*
Y295878D01*
X267713Y296318D01*
X268161Y296577D01*
X270279Y294459D01*
X270430Y293895D01*
X270935Y293022D01*
X271648Y292309D01*
X272521Y291804D01*
X273496Y291543D01*
X274504D01*
X275479Y291804D01*
X276352Y292309D01*
X277065Y293022D01*
X277570Y293895D01*
X277831Y294870D01*
Y295878D01*
X277570Y296853D01*
X277065Y297726D01*
X276352Y298439D01*
X275479Y298944D01*
X274915Y299095D01*
X270278Y303732D01*
Y305007D01*
X270778Y305214D01*
X271392Y304601D01*
X272360Y304042D01*
X273441Y303752D01*
X273500D01*
Y308000D01*
X274500D01*
Y303752D01*
X274559D01*
X275640Y304042D01*
X275793Y304130D01*
X276226Y303880D01*
Y300688D01*
X276321Y299971D01*
X276598Y299302D01*
X277039Y298727D01*
X280169Y295597D01*
Y294870D01*
X280430Y293895D01*
X280935Y293022D01*
X281648Y292309D01*
X282521Y291804D01*
X283496Y291543D01*
X284504D01*
X285479Y291804D01*
X286352Y292309D01*
X287065Y293022D01*
X287570Y293895D01*
X287831Y294870D01*
Y295878D01*
X287570Y296853D01*
X287065Y297726D01*
X286352Y298439D01*
X285479Y298944D01*
X284504Y299205D01*
X284406D01*
X281774Y301837D01*
Y303295D01*
X282274Y303547D01*
X283375Y303252D01*
X284625D01*
X285833Y303575D01*
X286915Y304201D01*
X287799Y305085D01*
X288424Y306167D01*
X288748Y307375D01*
Y308625D01*
X288424Y309833D01*
X287799Y310915D01*
X286915Y311799D01*
X285833Y312424D01*
X284625Y312748D01*
X283375D01*
X282274Y312453D01*
X281774Y312705D01*
Y313295D01*
X282274Y313547D01*
X283375Y313252D01*
X284625D01*
X285833Y313576D01*
X286915Y314201D01*
X287799Y315085D01*
X288424Y316167D01*
X288748Y317375D01*
Y318625D01*
X288424Y319833D01*
X287799Y320915D01*
X287044Y321671D01*
Y326498D01*
X286932Y327346D01*
X286605Y328137D01*
X286500Y328274D01*
Y332236D01*
X273500D01*
Y331278D01*
X266276D01*
X265427Y331166D01*
X264637Y330839D01*
X263958Y330318D01*
X257407Y323768D01*
X251957D01*
Y315492D01*
X262043D01*
Y319132D01*
X267633Y324722D01*
X273500D01*
Y323764D01*
X274712D01*
Y323514D01*
X274750Y323230D01*
X274736Y323176D01*
X274309Y322748D01*
X273375D01*
X272167Y322425D01*
X271085Y321799D01*
X270201Y320915D01*
X270051Y320655D01*
X269578Y320593D01*
X268788Y320266D01*
X268109Y319745D01*
X264682Y316318D01*
X264161Y315639D01*
X263834Y314848D01*
X263778Y314424D01*
X263722Y314000D01*
Y302374D01*
X263778Y301950D01*
X263834Y301526D01*
X264161Y300735D01*
X264682Y300056D01*
X265203Y299535D01*
X264944Y299087D01*
X264504Y299205D01*
X264092D01*
X259774Y303523D01*
Y304232D01*
X262043D01*
Y312508D01*
X253415D01*
X247774Y318149D01*
Y338000D01*
X247679Y338718D01*
X247402Y339387D01*
X246961Y339961D01*
X246387Y340402D01*
X245718Y340679D01*
X245000Y340774D01*
X236307D01*
Y342354D01*
X229173D01*
Y342354D01*
X228827D01*
D02*
G37*
G36*
X397923Y276374D02*
X396077D01*
X394266Y276014D01*
X392560Y275307D01*
X391024Y274281D01*
X389719Y272976D01*
X388693Y271440D01*
X387986Y269734D01*
X387626Y267923D01*
Y266077D01*
X387986Y264266D01*
X388693Y262560D01*
X389719Y261024D01*
X391024Y259719D01*
X392560Y258693D01*
X394266Y257986D01*
X396077Y257626D01*
X397923D01*
X399734Y257986D01*
X401440Y258693D01*
X402976Y259719D01*
X404281Y261024D01*
X405307Y262560D01*
X406014Y264266D01*
X406374Y266077D01*
Y267923D01*
X406014Y269734D01*
X405307Y271440D01*
X404281Y272976D01*
X402976Y274281D01*
X401440Y275307D01*
X399734Y276014D01*
X397923Y276374D01*
D02*
G37*
G36*
X104665Y255665D02*
X97335D01*
Y248335D01*
X104665D01*
Y255665D01*
D02*
G37*
G36*
X74711Y238400D02*
X74500D01*
Y233500D01*
X79400D01*
Y233711D01*
X79032Y235084D01*
X78321Y236315D01*
X77315Y237321D01*
X76084Y238032D01*
X74711Y238400D01*
D02*
G37*
G36*
X79400Y232500D02*
X74500D01*
Y227600D01*
X74711D01*
X76084Y227968D01*
X77315Y228679D01*
X78321Y229685D01*
X79032Y230916D01*
X79400Y232289D01*
Y232500D01*
D02*
G37*
G36*
X73500D02*
X68600D01*
Y232289D01*
X68968Y230916D01*
X69679Y229685D01*
X70685Y228679D01*
X71916Y227968D01*
X73289Y227600D01*
X73500D01*
Y232500D01*
D02*
G37*
G36*
X387143Y222500D02*
X384500D01*
Y219857D01*
X385222Y220050D01*
X385944Y220467D01*
X386533Y221056D01*
X386950Y221778D01*
X387143Y222500D01*
D02*
G37*
G36*
X144923Y235374D02*
X143077D01*
X141266Y235014D01*
X139560Y234307D01*
X138024Y233281D01*
X136719Y231976D01*
X135693Y230440D01*
X134986Y228734D01*
X134626Y226923D01*
Y225077D01*
X134986Y223266D01*
X135693Y221560D01*
X136719Y220024D01*
X138024Y218719D01*
X139560Y217693D01*
X141266Y216986D01*
X143077Y216626D01*
X144923D01*
X146734Y216986D01*
X148440Y217693D01*
X149976Y218719D01*
X151281Y220024D01*
X152307Y221560D01*
X153014Y223266D01*
X153374Y225077D01*
Y226923D01*
X153014Y228734D01*
X152307Y230440D01*
X151281Y231976D01*
X149976Y233281D01*
X148440Y234307D01*
X146734Y235014D01*
X144923Y235374D01*
D02*
G37*
G36*
X48505Y254555D02*
X47022D01*
X45589Y254171D01*
X44304Y253429D01*
X43256Y252380D01*
X42514Y251096D01*
X42130Y249663D01*
Y248180D01*
X42514Y246747D01*
X43256Y245462D01*
X44304Y244413D01*
X45589Y243671D01*
X47022Y243287D01*
X48505D01*
X48708Y243341D01*
X51045Y241004D01*
Y238677D01*
X51157Y237829D01*
X51484Y237038D01*
X52005Y236359D01*
X70236Y218128D01*
X70239Y217711D01*
X70203Y217547D01*
X69418Y216761D01*
X68772Y215794D01*
X68327Y214721D01*
X68100Y213581D01*
Y212419D01*
X68327Y211279D01*
X68772Y210206D01*
X69418Y209239D01*
X70239Y208418D01*
X71206Y207772D01*
X72279Y207327D01*
X73419Y207100D01*
X74581D01*
X75721Y207327D01*
X76794Y207772D01*
X77761Y208418D01*
X78583Y209239D01*
X79228Y210206D01*
X79673Y211279D01*
X79900Y212419D01*
Y213581D01*
X79673Y214721D01*
X79228Y215794D01*
X78583Y216761D01*
X77761Y217583D01*
X76955Y218121D01*
Y219323D01*
X76843Y220172D01*
X76516Y220962D01*
X75995Y221641D01*
X57601Y240035D01*
Y242362D01*
X57489Y243211D01*
X57162Y244001D01*
X56641Y244680D01*
X53343Y247977D01*
X53398Y248180D01*
Y249663D01*
X53014Y251096D01*
X52272Y252380D01*
X51223Y253429D01*
X49938Y254171D01*
X48505Y254555D01*
D02*
G37*
G36*
X103923Y180374D02*
X102077D01*
X100266Y180014D01*
X98560Y179307D01*
X97024Y178281D01*
X95719Y176976D01*
X94693Y175440D01*
X93986Y173734D01*
X93626Y171923D01*
Y170077D01*
X93986Y168266D01*
X94693Y166560D01*
X95719Y165024D01*
X97024Y163719D01*
X98560Y162693D01*
X100266Y161986D01*
X102077Y161626D01*
X103923D01*
X105734Y161986D01*
X107440Y162693D01*
X108976Y163719D01*
X110281Y165024D01*
X111307Y166560D01*
X112014Y168266D01*
X112374Y170077D01*
Y171923D01*
X112014Y173734D01*
X111307Y175440D01*
X110281Y176976D01*
X108976Y178281D01*
X107440Y179307D01*
X105734Y180014D01*
X103923Y180374D01*
D02*
G37*
G36*
X369154Y147652D02*
Y144500D01*
X372306D01*
X372062Y145412D01*
X371580Y146246D01*
X370899Y146927D01*
X370065Y147408D01*
X369154Y147652D01*
D02*
G37*
G36*
X368154D02*
X367242Y147408D01*
X366408Y146927D01*
X365727Y146246D01*
X365245Y145412D01*
X365001Y144500D01*
X368154D01*
Y147652D01*
D02*
G37*
G36*
X79807Y136854D02*
X77240D01*
Y133000D01*
X76240D01*
Y136854D01*
X73673D01*
Y134088D01*
X73574Y133848D01*
X73462Y133000D01*
X73574Y132152D01*
X73673Y131912D01*
Y129146D01*
X75958D01*
Y118992D01*
X75663Y118480D01*
X75402Y117505D01*
Y117500D01*
X79236D01*
X83071D01*
Y117505D01*
X82810Y118480D01*
X82514Y118992D01*
Y130504D01*
X82402Y131352D01*
X82075Y132143D01*
X81554Y132822D01*
X79807Y134569D01*
Y136854D01*
D02*
G37*
G36*
X83071Y116500D02*
X79736D01*
Y113165D01*
X79741D01*
X80716Y113427D01*
X81591Y113932D01*
X82305Y114646D01*
X82810Y115520D01*
X83071Y116495D01*
Y116500D01*
D02*
G37*
G36*
X78736D02*
X75402D01*
Y116495D01*
X75663Y115520D01*
X76168Y114646D01*
X76882Y113932D01*
X77756Y113427D01*
X78731Y113165D01*
X78736D01*
Y116500D01*
D02*
G37*
G36*
X59334Y121335D02*
X58193D01*
X57091Y121039D01*
X56102Y120469D01*
X55295Y119661D01*
X54725Y118673D01*
X54429Y117571D01*
Y116429D01*
X54725Y115327D01*
X55295Y114339D01*
X56102Y113531D01*
X57091Y112961D01*
X58193Y112665D01*
X59334D01*
X60437Y112961D01*
X61425Y113531D01*
X62232Y114339D01*
X62803Y115327D01*
X63098Y116429D01*
Y117571D01*
X62803Y118673D01*
X62232Y119661D01*
X61425Y120469D01*
X60437Y121039D01*
X59334Y121335D01*
D02*
G37*
G36*
X18978Y234713D02*
X17494D01*
X16062Y234329D01*
X14777Y233587D01*
X13728Y232538D01*
X12986Y231253D01*
X12602Y229820D01*
Y228337D01*
X12986Y226904D01*
X13728Y225620D01*
X14777Y224571D01*
X16062Y223829D01*
X17494Y223445D01*
X18978D01*
X19180Y223499D01*
X51997Y190682D01*
X52676Y190161D01*
X53467Y189834D01*
X54315Y189722D01*
X60720D01*
X60911Y189260D01*
X58325Y186674D01*
X57724Y185891D01*
X57346Y184979D01*
X57218Y184000D01*
Y137905D01*
X35702Y116390D01*
X28405D01*
Y107341D01*
X27278D01*
Y139366D01*
X37901D01*
Y146195D01*
X50082Y158375D01*
X50603Y159054D01*
X50930Y159845D01*
X51042Y160693D01*
Y164387D01*
X51223Y164492D01*
X52272Y165541D01*
X53014Y166825D01*
X53398Y168258D01*
Y169742D01*
X53014Y171175D01*
X52272Y172459D01*
X51223Y173508D01*
X49938Y174250D01*
X48505Y174634D01*
X47022D01*
X45589Y174250D01*
X44304Y173508D01*
X43256Y172459D01*
X42514Y171175D01*
X42130Y169742D01*
Y168258D01*
X42514Y166825D01*
X43256Y165541D01*
X44304Y164492D01*
X44486Y164387D01*
Y162051D01*
X33069Y150634D01*
X27278D01*
Y152642D01*
X35318Y160682D01*
X35839Y161361D01*
X36166Y162152D01*
X36278Y163000D01*
Y191678D01*
X36727Y192456D01*
X37000Y193473D01*
Y194527D01*
X36727Y195544D01*
X36201Y196456D01*
X35456Y197201D01*
X34544Y197727D01*
X33527Y198000D01*
X32473D01*
X31456Y197727D01*
X30544Y197201D01*
X29799Y196456D01*
X29273Y195544D01*
X29000Y194527D01*
Y193473D01*
X29273Y192456D01*
X29722Y191678D01*
Y164358D01*
X22014Y156650D01*
X21514Y156857D01*
Y164387D01*
X21696Y164492D01*
X22744Y165541D01*
X23486Y166825D01*
X23870Y168258D01*
Y169742D01*
X23486Y171175D01*
X22744Y172459D01*
X21696Y173508D01*
X20411Y174250D01*
X18978Y174634D01*
X17494D01*
X16062Y174250D01*
X14777Y173508D01*
X13728Y172459D01*
X12986Y171175D01*
X12602Y169742D01*
Y168258D01*
X12986Y166825D01*
X13728Y165541D01*
X14777Y164492D01*
X14958Y164387D01*
Y150634D01*
X10098D01*
Y139366D01*
X20722D01*
Y125248D01*
X6752D01*
Y116736D01*
X20722D01*
Y104000D01*
X20778Y103576D01*
X20834Y103152D01*
X21161Y102361D01*
X21682Y101682D01*
X22361Y101161D01*
X23152Y100834D01*
X23576Y100778D01*
X24000Y100722D01*
X24478Y100785D01*
X28405D01*
Y99610D01*
X44791D01*
Y107484D01*
Y114781D01*
X63674Y133664D01*
X64276Y134447D01*
X64653Y135360D01*
X64782Y136339D01*
Y182433D01*
X70555Y188206D01*
X71206Y187772D01*
X72279Y187327D01*
X73419Y187100D01*
X74581D01*
X75721Y187327D01*
X76794Y187772D01*
X77761Y188417D01*
X78583Y189239D01*
X79228Y190206D01*
X79673Y191279D01*
X79900Y192419D01*
Y193581D01*
X79673Y194721D01*
X79228Y195794D01*
X78583Y196761D01*
X77761Y197582D01*
X76794Y198228D01*
X75721Y198673D01*
X74581Y198900D01*
X73419D01*
X72279Y198673D01*
X71206Y198228D01*
X70239Y197582D01*
X69418Y196761D01*
X69377Y196700D01*
X69021Y196653D01*
X68115Y196278D01*
X55673D01*
X23816Y228135D01*
X23870Y228337D01*
Y229820D01*
X23486Y231253D01*
X22744Y232538D01*
X21696Y233587D01*
X20411Y234329D01*
X18978Y234713D01*
D02*
G37*
G36*
X21957Y99264D02*
X6752D01*
Y90752D01*
X21957D01*
Y99264D01*
D02*
G37*
G36*
X360625Y80750D02*
X360500D01*
Y76500D01*
X364750D01*
Y76625D01*
X364426Y77833D01*
X363801Y78917D01*
X362917Y79801D01*
X361833Y80426D01*
X360625Y80750D01*
D02*
G37*
G36*
X359500D02*
X359375D01*
X358167Y80426D01*
X357083Y79801D01*
X356199Y78917D01*
X355574Y77833D01*
X355250Y76625D01*
Y76500D01*
X359500D01*
Y80750D01*
D02*
G37*
G36*
X285563Y51291D02*
X282110D01*
Y44098D01*
X285563D01*
Y51291D01*
D02*
G37*
G36*
X364248Y29957D02*
X355736D01*
Y14752D01*
X364248D01*
Y29957D01*
D02*
G37*
G36*
X338264D02*
X329752D01*
Y14752D01*
X338264D01*
Y29957D01*
D02*
G37*
G36*
X281264Y28957D02*
X272752D01*
Y13752D01*
X281264D01*
Y28957D01*
D02*
G37*
G36*
X397923Y31374D02*
X396077D01*
X394266Y31014D01*
X392560Y30307D01*
X391024Y29281D01*
X389719Y27976D01*
X388693Y26440D01*
X387986Y24734D01*
X387626Y22923D01*
Y21077D01*
X387986Y19266D01*
X388693Y17560D01*
X389719Y16024D01*
X391024Y14719D01*
X392560Y13693D01*
X394266Y12986D01*
X396077Y12626D01*
X397923D01*
X399734Y12986D01*
X401440Y13693D01*
X402976Y14719D01*
X404281Y16024D01*
X405307Y17560D01*
X406014Y19266D01*
X406374Y21077D01*
Y22923D01*
X406014Y24734D01*
X405307Y26440D01*
X404281Y27976D01*
X402976Y29281D01*
X401440Y30307D01*
X399734Y31014D01*
X397923Y31374D01*
D02*
G37*
G36*
X21923Y26374D02*
X20077D01*
X18266Y26014D01*
X16560Y25307D01*
X15024Y24281D01*
X13719Y22976D01*
X12693Y21440D01*
X11986Y19734D01*
X11626Y17923D01*
Y16077D01*
X11986Y14266D01*
X12693Y12560D01*
X13719Y11024D01*
X15024Y9719D01*
X16560Y8693D01*
X18266Y7986D01*
X20077Y7626D01*
X21923D01*
X23734Y7986D01*
X25440Y8693D01*
X26976Y9719D01*
X28281Y11024D01*
X29307Y12560D01*
X30014Y14266D01*
X30374Y16077D01*
Y17923D01*
X30014Y19734D01*
X29307Y21440D01*
X28281Y22976D01*
X26976Y24281D01*
X25440Y25307D01*
X23734Y26014D01*
X21923Y26374D01*
D02*
G37*
%LPD*%
G36*
X210173Y235358D02*
X210211Y235286D01*
X210169Y235130D01*
Y234122D01*
X210430Y233147D01*
X210813Y232485D01*
Y231200D01*
X209387Y229774D01*
X202528D01*
X201810Y229679D01*
X201141Y229402D01*
X200566Y228961D01*
X195698Y224093D01*
X195236Y224285D01*
Y227362D01*
X192374D01*
Y224000D01*
X191874D01*
Y223500D01*
X188512D01*
Y220742D01*
X188455Y220587D01*
X188149Y220307D01*
X186774D01*
Y221312D01*
X187091Y221628D01*
X187599Y222509D01*
X187862Y223492D01*
Y224509D01*
X187599Y225491D01*
X187091Y226372D01*
X186774Y226688D01*
Y231982D01*
X187065Y232274D01*
X187570Y233147D01*
X187831Y234122D01*
Y235130D01*
X188079Y235454D01*
X189921D01*
X190169Y235130D01*
Y234122D01*
X190430Y233147D01*
X190935Y232274D01*
X191648Y231561D01*
X192521Y231056D01*
X193496Y230795D01*
X194504D01*
X195479Y231056D01*
X196352Y231561D01*
X197065Y232274D01*
X197570Y233147D01*
X197831Y234122D01*
Y235130D01*
X198079Y235454D01*
X199921D01*
X200169Y235130D01*
Y234122D01*
X200430Y233147D01*
X200935Y232274D01*
X201648Y231561D01*
X202521Y231056D01*
X203496Y230795D01*
X204504D01*
X205479Y231056D01*
X206352Y231561D01*
X207065Y232274D01*
X207570Y233147D01*
X207831Y234122D01*
Y235130D01*
X208079Y235454D01*
X208732D01*
X209156Y235510D01*
X209580Y235566D01*
X209792Y235653D01*
X210173Y235358D01*
D02*
G37*
G36*
X321179Y237222D02*
X320935Y236978D01*
X320430Y236105D01*
X320169Y235130D01*
Y234122D01*
X320430Y233147D01*
X320722Y232642D01*
Y227358D01*
X319522Y226157D01*
X319327D01*
X318269Y225874D01*
X317778Y225590D01*
X317278Y225879D01*
Y232642D01*
X317570Y233147D01*
X317831Y234122D01*
Y235130D01*
X317570Y236105D01*
X317065Y236978D01*
X316822Y237222D01*
X317029Y237722D01*
X320971D01*
X321179Y237222D01*
D02*
G37*
G36*
X181226Y231907D02*
Y226688D01*
X180910Y226372D01*
X180401Y225491D01*
X180322Y225195D01*
X179804D01*
X179725Y225491D01*
X179217Y226372D01*
X178498Y227091D01*
X177617Y227599D01*
X176635Y227862D01*
X176186D01*
X173715Y230333D01*
X173907Y230795D01*
X177831D01*
Y231348D01*
X178193D01*
X178628Y231405D01*
X179041Y231460D01*
X179832Y231787D01*
X180187Y232060D01*
X180391Y232216D01*
X180843Y232264D01*
X181226Y231907D01*
D02*
G37*
G36*
X311178Y237222D02*
X310935Y236978D01*
X310430Y236105D01*
X310169Y235130D01*
Y234122D01*
X310430Y233147D01*
X310722Y232642D01*
Y225962D01*
X310395Y225874D01*
X309447Y225327D01*
X308673Y224553D01*
X308352Y223996D01*
X307774D01*
X307453Y224553D01*
X307341Y224664D01*
Y232751D01*
X307570Y233147D01*
X307831Y234122D01*
Y235130D01*
X307570Y236105D01*
X307065Y236978D01*
X306821Y237222D01*
X307029Y237722D01*
X310971D01*
X311178Y237222D01*
D02*
G37*
G36*
X301179D02*
X300935Y236978D01*
X300430Y236105D01*
X300169Y235130D01*
Y234122D01*
X300430Y233147D01*
X300785Y232533D01*
Y224528D01*
X300478Y223996D01*
X299900D01*
X299579Y224553D01*
X298805Y225327D01*
X297857Y225874D01*
X297376Y226003D01*
X297278Y226101D01*
Y232642D01*
X297570Y233147D01*
X297831Y234122D01*
Y235130D01*
X297570Y236105D01*
X297065Y236978D01*
X296821Y237222D01*
X297029Y237722D01*
X300971D01*
X301179Y237222D01*
D02*
G37*
G36*
X241178D02*
X240935Y236978D01*
X240430Y236105D01*
X240169Y235130D01*
Y234122D01*
X240430Y233147D01*
X240722Y232642D01*
Y225896D01*
X239104D01*
Y222798D01*
X238604Y222732D01*
X238562Y222890D01*
X237917Y224006D01*
X237278Y224645D01*
Y232642D01*
X237570Y233147D01*
X237831Y234122D01*
Y235130D01*
X237570Y236105D01*
X237065Y236978D01*
X236822Y237222D01*
X237029Y237722D01*
X240971D01*
X241178Y237222D01*
D02*
G37*
G36*
X331178D02*
X330935Y236978D01*
X330430Y236105D01*
X330169Y235130D01*
Y234122D01*
X330430Y233147D01*
X330935Y232274D01*
X331648Y231561D01*
X332521Y231056D01*
X333116Y230897D01*
Y230236D01*
X332500D01*
Y221764D01*
X332828D01*
Y218012D01*
X330476D01*
Y206813D01*
X330014Y206621D01*
X328318Y208318D01*
X327639Y208839D01*
X326848Y209166D01*
X326424Y209222D01*
X326000Y209278D01*
X291358D01*
X283278Y217358D01*
Y229000D01*
X283166Y229848D01*
X282977Y230306D01*
X283401Y230590D01*
X284192Y229798D01*
Y222907D01*
X284192Y222907D01*
X284192Y222907D01*
X284221Y222693D01*
Y217843D01*
X292535D01*
Y219181D01*
X293036Y219337D01*
X293699Y218673D01*
X294647Y218126D01*
X295705Y217843D01*
X296799D01*
X297857Y218126D01*
X298805Y218673D01*
X299579Y219447D01*
X299900Y220004D01*
X300478D01*
X300799Y219447D01*
X301573Y218673D01*
X302521Y218126D01*
X303579Y217843D01*
X304673D01*
X305731Y218126D01*
X306679Y218673D01*
X307453Y219447D01*
X307774Y220004D01*
X308352D01*
X308673Y219447D01*
X309447Y218673D01*
X310395Y218126D01*
X311453Y217843D01*
X312547D01*
X313605Y218126D01*
X314553Y218673D01*
X315327Y219447D01*
X315648Y220004D01*
X316226D01*
X316547Y219447D01*
X317321Y218673D01*
X318269Y218126D01*
X319327Y217843D01*
X320421D01*
X321479Y218126D01*
X322427Y218673D01*
X323201Y219447D01*
X323748Y220395D01*
X324011Y221375D01*
X326318Y223682D01*
X326839Y224361D01*
X327166Y225152D01*
X327278Y226000D01*
Y232642D01*
X327570Y233147D01*
X327831Y234122D01*
Y235130D01*
X327570Y236105D01*
X327065Y236978D01*
X326821Y237222D01*
X327029Y237722D01*
X330971D01*
X331178Y237222D01*
D02*
G37*
G36*
X251179D02*
X250935Y236978D01*
X250430Y236105D01*
X250169Y235130D01*
Y234122D01*
X250430Y233147D01*
X250722Y232642D01*
Y230000D01*
X250778Y229576D01*
X250834Y229152D01*
X251161Y228361D01*
X251682Y227682D01*
X252682Y226682D01*
X253361Y226161D01*
X254152Y225834D01*
X255000Y225722D01*
X276722D01*
Y222542D01*
X276222Y222392D01*
X275639Y222839D01*
X274848Y223166D01*
X274000Y223278D01*
X273152Y223166D01*
X272361Y222839D01*
X271682Y222318D01*
X254642Y205278D01*
X230000D01*
X229152Y205166D01*
X228361Y204839D01*
X227682Y204318D01*
X227161Y203639D01*
X226834Y202848D01*
X226778Y202426D01*
X226278Y202459D01*
Y224642D01*
X230260Y228624D01*
X230722Y228433D01*
Y224645D01*
X230083Y224006D01*
X229438Y222890D01*
X229104Y221644D01*
Y220356D01*
X229438Y219110D01*
X230083Y217994D01*
X230994Y217083D01*
X232110Y216438D01*
X233355Y216104D01*
X234645D01*
X235890Y216438D01*
X237006Y217083D01*
X237917Y217994D01*
X238562Y219110D01*
X238604Y219268D01*
X239104Y219202D01*
Y216104D01*
X248896D01*
Y225896D01*
X247278D01*
Y232642D01*
X247570Y233147D01*
X247831Y234122D01*
Y235130D01*
X247570Y236105D01*
X247065Y236978D01*
X246821Y237222D01*
X247029Y237722D01*
X250971D01*
X251179Y237222D01*
D02*
G37*
G36*
X276722Y217450D02*
Y216000D01*
X276778Y215576D01*
X276834Y215152D01*
X277161Y214361D01*
X277682Y213682D01*
X287682Y203682D01*
X288361Y203161D01*
X289152Y202834D01*
X290000Y202722D01*
X324642D01*
X332682Y194682D01*
X333361Y194161D01*
X334152Y193834D01*
X335000Y193722D01*
X357722D01*
Y162000D01*
X357778Y161576D01*
X357834Y161152D01*
X358161Y160361D01*
X358682Y159682D01*
X364128Y154236D01*
X363937Y153774D01*
X361000D01*
X360282Y153679D01*
X359613Y153402D01*
X359039Y152961D01*
X353851Y147774D01*
X341724D01*
X341639Y147839D01*
X340848Y148166D01*
X340000Y148278D01*
X339152Y148166D01*
X338361Y147839D01*
X337778Y147392D01*
X337278Y147542D01*
Y152148D01*
X337469Y152339D01*
X338039Y153327D01*
X338335Y154429D01*
Y155571D01*
X338039Y156673D01*
X337469Y157661D01*
X336662Y158469D01*
X335673Y159039D01*
X334571Y159335D01*
X333429D01*
X332327Y159039D01*
X331339Y158469D01*
X330531Y157661D01*
X329961Y156673D01*
X329665Y155571D01*
Y154429D01*
X329961Y153327D01*
X330531Y152339D01*
X330722Y152148D01*
Y147618D01*
X328459Y145354D01*
X325173D01*
Y145354D01*
X324827D01*
Y145354D01*
X317693D01*
Y145278D01*
X302000D01*
X301152Y145166D01*
X300778Y145012D01*
X300278Y145346D01*
Y149646D01*
X300307D01*
Y158354D01*
X293173D01*
Y158354D01*
X292827D01*
Y158354D01*
X289797D01*
X289502Y158854D01*
X289679Y159282D01*
X289774Y160000D01*
Y161764D01*
X290500D01*
Y170236D01*
X289884D01*
Y194890D01*
X289789Y195608D01*
X289512Y196277D01*
X289071Y196851D01*
X274807Y211116D01*
X274796Y211158D01*
X274401Y211842D01*
X273842Y212401D01*
X273158Y212796D01*
X272395Y213000D01*
X272289D01*
X272098Y213462D01*
X276222Y217586D01*
X276722Y217450D01*
D02*
G37*
G36*
X334951Y141868D02*
X335161Y141361D01*
X335682Y140682D01*
X336361Y140161D01*
X337152Y139834D01*
X338000Y139722D01*
X338437Y139779D01*
X338670Y139306D01*
X332480Y133116D01*
X332018Y133307D01*
Y136646D01*
X332307D01*
Y139931D01*
X334372Y141996D01*
X334951Y141868D01*
D02*
G37*
G36*
X285693Y149646D02*
X292827D01*
Y149646D01*
X293173D01*
Y149646D01*
X293722D01*
Y135307D01*
X292646D01*
Y129190D01*
X292184Y128999D01*
X291354Y129828D01*
Y133673D01*
X291354Y134173D01*
X291354Y134327D01*
Y141307D01*
X290278D01*
Y145525D01*
X290166Y146374D01*
X289839Y147164D01*
X289318Y147843D01*
X288639Y148364D01*
X287848Y148692D01*
X287000Y148803D01*
X286152Y148692D01*
X285361Y148364D01*
X284682Y147843D01*
X284161Y147164D01*
X283834Y146374D01*
X283722Y145525D01*
Y141307D01*
X282646D01*
Y134327D01*
X282646Y133827D01*
X282646Y133673D01*
Y129930D01*
X282184Y129739D01*
X281774Y130149D01*
Y151226D01*
X285693D01*
Y149646D01*
D02*
G37*
G36*
X364677Y135222D02*
X364496Y134547D01*
Y134478D01*
X357325Y127307D01*
X354069D01*
X353058Y128318D01*
X352379Y128839D01*
X351589Y129166D01*
X351164Y129222D01*
X350740Y129278D01*
X343088D01*
X342898Y129469D01*
X341909Y130039D01*
X340807Y130335D01*
X339678D01*
X339599Y130417D01*
X339399Y130763D01*
X344358Y135722D01*
X364293D01*
X364677Y135222D01*
D02*
G37*
G36*
X279157Y159019D02*
X279204Y158842D01*
X279599Y158158D01*
X280158Y157599D01*
X280722Y157274D01*
X280588Y156774D01*
X280464D01*
X279747Y156679D01*
X279078Y156402D01*
X278503Y155961D01*
X277039Y154497D01*
X276598Y153922D01*
X276321Y153253D01*
X276226Y152536D01*
Y129000D01*
X276321Y128282D01*
X276598Y127613D01*
X277039Y127039D01*
X277761Y126316D01*
X277570Y125854D01*
X275406D01*
X275278Y126000D01*
Y129646D01*
X275307D01*
Y138354D01*
X268173D01*
Y129646D01*
X268722D01*
Y126000D01*
X268834Y125152D01*
X269161Y124361D01*
X269682Y123682D01*
X270361Y123161D01*
X271152Y122834D01*
X272000Y122722D01*
X272848Y122834D01*
X273639Y123161D01*
X274318Y123682D01*
X274644Y124107D01*
X275112Y123950D01*
X275160Y123536D01*
X273572Y121948D01*
X273051Y121269D01*
X272724Y120478D01*
X272668Y120054D01*
X272612Y119630D01*
Y114000D01*
Y112622D01*
X269000Y109010D01*
X267538Y110472D01*
Y134000D01*
Y135000D01*
X267426Y135848D01*
X267327Y136088D01*
Y137854D01*
X267278D01*
Y149000D01*
Y156592D01*
X267408Y156722D01*
X274890D01*
X275314Y156778D01*
X275738Y156834D01*
X276529Y157161D01*
X277208Y157682D01*
X278674Y159148D01*
X279157Y159019D01*
D02*
G37*
G36*
X348646Y120173D02*
X348646D01*
Y119827D01*
X348646D01*
Y112693D01*
X349722D01*
Y111279D01*
X347721D01*
Y109349D01*
X347341Y109247D01*
X347220Y109246D01*
X346278Y110188D01*
Y120000D01*
X346166Y120848D01*
X345839Y121639D01*
X345392Y122222D01*
X345542Y122722D01*
X348646D01*
Y120173D01*
D02*
G37*
G36*
X291039Y122299D02*
X291613Y121858D01*
X292282Y121581D01*
X292646Y121533D01*
Y120693D01*
X295722D01*
Y108153D01*
X295220D01*
Y102278D01*
X292654D01*
X292404Y102711D01*
X292522Y102915D01*
X292779Y103876D01*
Y104872D01*
X292522Y105833D01*
X292278Y106255D01*
Y117000D01*
X292166Y117848D01*
X291839Y118639D01*
X291318Y119318D01*
X289307Y121329D01*
Y123377D01*
X289769Y123568D01*
X291039Y122299D01*
D02*
G37*
G36*
X275360Y105391D02*
X275220Y104872D01*
Y103876D01*
X275478Y102915D01*
X275722Y102493D01*
Y99000D01*
X275834Y98152D01*
X276161Y97361D01*
X276682Y96682D01*
X277361Y96161D01*
X278152Y95834D01*
X279000Y95722D01*
X301260D01*
X301684Y95778D01*
X302108Y95834D01*
X302899Y96161D01*
X303578Y96682D01*
X304231Y97335D01*
X304693Y97144D01*
Y92646D01*
X304982D01*
Y88278D01*
X300358D01*
X298318Y90318D01*
X297639Y90839D01*
X296848Y91166D01*
X296424Y91222D01*
X296000Y91278D01*
X279358D01*
X272318Y98318D01*
X271639Y98839D01*
X270848Y99166D01*
X270000Y99278D01*
X269152Y99166D01*
X268361Y98839D01*
X267682Y98318D01*
X267161Y97639D01*
X266834Y96848D01*
X266722Y96000D01*
X266834Y95152D01*
X267161Y94361D01*
X267682Y93682D01*
X275682Y85682D01*
X276361Y85161D01*
X277152Y84834D01*
X277576Y84778D01*
X278000Y84722D01*
X294642D01*
X295797Y83568D01*
X295722Y83000D01*
Y75507D01*
X295478Y75085D01*
X295220Y74124D01*
Y73128D01*
X295478Y72167D01*
X295976Y71305D01*
X296679Y70602D01*
X297541Y70104D01*
X298346Y69888D01*
X298281Y69388D01*
X289719D01*
X289653Y69888D01*
X290459Y70104D01*
X291321Y70602D01*
X292024Y71305D01*
X292522Y72167D01*
X292779Y73128D01*
Y74124D01*
X292522Y75085D01*
X292278Y75507D01*
Y77690D01*
X292222Y78114D01*
X292166Y78538D01*
X291839Y79329D01*
X291318Y80008D01*
X289268Y82058D01*
X288589Y82579D01*
X287798Y82907D01*
X287374Y82962D01*
X286950Y83018D01*
X262354D01*
Y83307D01*
X261278D01*
Y84693D01*
X262354D01*
Y91673D01*
X262354Y92173D01*
X262354Y92327D01*
Y99264D01*
X263000D01*
Y99722D01*
X267626D01*
X268050Y99778D01*
X268474Y99834D01*
X269265Y100161D01*
X269944Y100682D01*
X271009Y101747D01*
X271014Y101750D01*
X271624Y102360D01*
X271627Y102365D01*
X274911Y105649D01*
X275360Y105391D01*
D02*
G37*
G36*
X285722Y76332D02*
Y75507D01*
X285478Y75085D01*
X285221Y74124D01*
Y73128D01*
X285478Y72167D01*
X285976Y71305D01*
X286679Y70602D01*
X287541Y70104D01*
X288347Y69888D01*
X288281Y69388D01*
X279719D01*
X279654Y69888D01*
X280459Y70104D01*
X281321Y70602D01*
X282024Y71305D01*
X282522Y72167D01*
X282780Y73128D01*
Y74124D01*
X282522Y75085D01*
X282024Y75947D01*
X281971Y76000D01*
X282162Y76462D01*
X285592D01*
X285722Y76332D01*
D02*
G37*
G36*
X276029Y76000D02*
X275976Y75947D01*
X275478Y75085D01*
X275220Y74124D01*
Y73128D01*
X275478Y72167D01*
X275976Y71305D01*
X276679Y70602D01*
X277541Y70104D01*
X278346Y69888D01*
X278281Y69388D01*
X272278D01*
Y71745D01*
X272522Y72167D01*
X272779Y73128D01*
Y74124D01*
X272522Y75085D01*
X272024Y75947D01*
X271971Y76000D01*
X272162Y76462D01*
X275838D01*
X276029Y76000D01*
D02*
G37*
G36*
X308764Y62720D02*
X309264D01*
Y60390D01*
X313000D01*
Y59390D01*
X309264D01*
Y57000D01*
X309722D01*
Y54289D01*
X309599Y53829D01*
X306465Y50695D01*
X305943Y50016D01*
X305616Y49225D01*
X305560Y48801D01*
X305504Y48377D01*
Y42140D01*
X298890Y35526D01*
X298390Y35733D01*
Y43985D01*
X298426Y44073D01*
X298482Y44497D01*
X298538Y44921D01*
Y51265D01*
X298827Y51646D01*
X299173D01*
Y51646D01*
X306307D01*
Y60354D01*
X306278D01*
Y62832D01*
X308764D01*
Y62720D01*
D02*
G37*
%LPC*%
G36*
X191374Y227362D02*
X188512D01*
Y224500D01*
X191374D01*
Y227362D01*
D02*
G37*
G36*
X353000Y191278D02*
X352787Y191250D01*
X352572D01*
X352365Y191194D01*
X352152Y191166D01*
X351953Y191084D01*
X351746Y191028D01*
X351559Y190921D01*
X351361Y190839D01*
X351190Y190708D01*
X351005Y190601D01*
X350853Y190449D01*
X350682Y190318D01*
X350422Y190058D01*
X349901Y189379D01*
X349574Y188589D01*
X349518Y188164D01*
X349462Y187740D01*
Y183708D01*
X349109Y183354D01*
X348827D01*
X348673Y183354D01*
X341693D01*
Y174646D01*
X341693D01*
Y174354D01*
X341693D01*
Y171001D01*
X341397Y170615D01*
X341070Y169825D01*
X341014Y169401D01*
X340958Y168976D01*
Y157852D01*
X340768Y157661D01*
X340197Y156673D01*
X339902Y155571D01*
Y154429D01*
X340197Y153327D01*
X340768Y152339D01*
X341575Y151531D01*
X342563Y150961D01*
X343666Y150665D01*
X344807D01*
X345909Y150961D01*
X346898Y151531D01*
X347705Y152339D01*
X348275Y153327D01*
X348571Y154429D01*
Y155571D01*
X348275Y156673D01*
X347705Y157661D01*
X347514Y157852D01*
Y165646D01*
X348827D01*
Y174289D01*
X349077Y174546D01*
X349206Y174646D01*
X349327Y174646D01*
X356307D01*
Y183354D01*
X356018D01*
Y186728D01*
X356029Y186746D01*
X356084Y186953D01*
X356166Y187152D01*
X356194Y187365D01*
X356250Y187572D01*
Y187787D01*
X356278Y188000D01*
X356250Y188213D01*
Y188428D01*
X356194Y188635D01*
X356166Y188848D01*
X356084Y189047D01*
X356029Y189254D01*
X355921Y189441D01*
X355839Y189639D01*
X355708Y189810D01*
X355601Y189996D01*
X355449Y190147D01*
X355318Y190318D01*
X355148Y190449D01*
X354995Y190601D01*
X354809Y190708D01*
X354639Y190839D01*
X354440Y190921D01*
X354254Y191028D01*
X354047Y191084D01*
X353848Y191166D01*
X353635Y191194D01*
X353428Y191250D01*
X353213D01*
X353000Y191278D01*
D02*
G37*
G36*
X355807Y173854D02*
X353240D01*
Y170000D01*
X352240D01*
Y173854D01*
X349673D01*
Y171088D01*
X349574Y170848D01*
X349462Y170000D01*
Y156732D01*
X349518Y156308D01*
X349574Y155884D01*
X349901Y155093D01*
X350422Y154414D01*
X350746Y154090D01*
X350899Y153520D01*
X351404Y152646D01*
X352118Y151932D01*
X352992Y151427D01*
X353968Y151165D01*
X353972D01*
Y155000D01*
X354472D01*
Y155500D01*
X358307D01*
Y155505D01*
X358046Y156480D01*
X357541Y157354D01*
X356827Y158069D01*
X356018Y158535D01*
Y170000D01*
X355907Y170848D01*
X355807Y171088D01*
Y173854D01*
D02*
G37*
G36*
X358307Y154500D02*
X354972D01*
Y151165D01*
X354977D01*
X355953Y151427D01*
X356827Y151932D01*
X357541Y152646D01*
X358046Y153520D01*
X358307Y154495D01*
Y154500D01*
D02*
G37*
%LPD*%
D15*
X18236Y248921D02*
Y255764D01*
X61000Y184000D02*
X70000Y193000D01*
X61000Y136339D02*
Y184000D01*
X36598Y111937D02*
X61000Y136339D01*
X10000Y264000D02*
X18236Y255764D01*
X10000Y282271D02*
X32598Y304870D01*
X10000Y264000D02*
Y282271D01*
X107289Y288711D02*
X112719D01*
X90000Y306000D02*
X107289Y288711D01*
X113000Y284268D02*
Y288429D01*
X112719Y288711D02*
X113000Y288429D01*
X69000Y329000D02*
X89000D01*
X90000Y306000D02*
Y328000D01*
X32598Y304870D02*
Y320063D01*
X37937D02*
X69000Y289000D01*
X32661Y328000D02*
X55000D01*
Y323000D02*
Y328000D01*
Y323000D02*
X69000Y309000D01*
D16*
X232740Y338000D02*
D03*
X225260D02*
D03*
X69260Y96000D02*
D03*
X76740D02*
D03*
X271740Y134000D02*
D03*
X264260D02*
D03*
X296740Y154000D02*
D03*
X289260D02*
D03*
X285740Y122000D02*
D03*
X278260D02*
D03*
X308260Y106000D02*
D03*
X315740D02*
D03*
X308260Y97000D02*
D03*
X315740D02*
D03*
X302740Y56000D02*
D03*
X295260D02*
D03*
X345260Y179000D02*
D03*
X352740D02*
D03*
X345260Y170000D02*
D03*
X352740D02*
D03*
X321260Y141000D02*
D03*
X328740D02*
D03*
X76740Y133000D02*
D03*
X69260D02*
D03*
D17*
X277008Y21354D02*
D03*
X302992D02*
D03*
X334008Y22354D02*
D03*
X359992D02*
D03*
D18*
X286063Y43598D02*
D03*
X293937D02*
D03*
X343063Y44598D02*
D03*
X350937D02*
D03*
D19*
X501000Y209260D02*
D03*
Y216740D02*
D03*
X482000Y208740D02*
D03*
Y201260D02*
D03*
X491000Y209000D02*
D03*
Y201520D02*
D03*
X287000Y130260D02*
D03*
Y137740D02*
D03*
X297000Y124260D02*
D03*
Y131740D02*
D03*
X258000Y95740D02*
D03*
Y88260D02*
D03*
Y79740D02*
D03*
Y72260D02*
D03*
X314000Y79740D02*
D03*
Y72260D02*
D03*
X353000Y123740D02*
D03*
Y116260D02*
D03*
X98000Y195000D02*
D03*
Y202480D02*
D03*
X89000Y182260D02*
D03*
Y189740D02*
D03*
X184000Y216740D02*
D03*
Y209260D02*
D03*
X226000Y322260D02*
D03*
Y329740D02*
D03*
D20*
X485000Y82205D02*
D03*
X480000D02*
D03*
X475000D02*
D03*
X470000D02*
D03*
X465000D02*
D03*
X460000D02*
D03*
X455000D02*
D03*
X450000D02*
D03*
X445000D02*
D03*
X440000D02*
D03*
Y120000D02*
D03*
X445000D02*
D03*
X450000D02*
D03*
X455000D02*
D03*
X460000D02*
D03*
X465000D02*
D03*
X470000D02*
D03*
X475000D02*
D03*
X480000D02*
D03*
X485000D02*
D03*
D21*
X244890Y166000D02*
D03*
X251110D02*
D03*
X287110D02*
D03*
X280890D02*
D03*
X282110Y114000D02*
D03*
X275890D02*
D03*
X253890Y103000D02*
D03*
X260110D02*
D03*
X335890Y226000D02*
D03*
X342110D02*
D03*
X276890Y328000D02*
D03*
X283110D02*
D03*
D22*
X313000Y66110D02*
D03*
Y59890D02*
D03*
X369000Y217890D02*
D03*
Y224110D02*
D03*
X361000Y217890D02*
D03*
Y224110D02*
D03*
D23*
X89000Y202051D02*
D03*
Y195949D02*
D03*
D24*
X15929Y145000D02*
D03*
X32071D02*
D03*
D25*
X123000Y326000D02*
D03*
D26*
X133000Y284268D02*
D03*
X123000D02*
D03*
X113000D02*
D03*
D27*
X14354Y120992D02*
D03*
Y95008D02*
D03*
X10354Y336992D02*
D03*
Y311008D02*
D03*
D28*
X36598Y111937D02*
D03*
Y104063D02*
D03*
X32598Y327937D02*
D03*
Y320063D02*
D03*
D29*
X350677Y211000D02*
D03*
X335323D02*
D03*
D30*
X257000Y319630D02*
D03*
Y308370D02*
D03*
D80*
X547000Y234000D02*
Y265284D01*
X556559Y274843D01*
X520000Y207000D02*
X547000Y234000D01*
X520000Y148000D02*
Y207000D01*
X485000Y120000D02*
Y131000D01*
X455000Y108050D02*
X459050Y104000D01*
X495000D01*
X502000Y97000D01*
X465050Y108000D02*
X497000D01*
X503000Y102000D01*
X460000Y113050D02*
X465050Y108000D01*
X450000Y111000D02*
Y120000D01*
X503000Y102000D02*
X510000D01*
X502000Y97000D02*
X506000D01*
X460000Y113050D02*
Y120000D01*
X455000Y108050D02*
Y120000D01*
X446464Y101000D02*
X492000D01*
X498025Y94975D01*
X445000Y102464D02*
X446464Y101000D01*
X445000Y102464D02*
Y120000D01*
X498025Y82000D02*
Y94975D01*
X455000Y79843D02*
X456888Y77954D01*
Y76096D02*
X456984Y76000D01*
X455000Y79843D02*
Y82205D01*
X456888Y76096D02*
Y77954D01*
X460000Y73000D02*
Y82205D01*
X351677Y211000D02*
Y213165D01*
X133000Y251000D02*
X149126D01*
X176126Y216346D02*
Y224000D01*
X149126Y251000D02*
X176126Y224000D01*
X359264Y226000D02*
X361154Y224110D01*
X272000Y210000D02*
X287110Y194890D01*
Y166000D02*
Y194890D01*
X184000Y209260D02*
X184787D01*
X183213D02*
X184000D01*
X184787D02*
X202528Y227000D01*
X210536D01*
X213586Y230051D01*
Y234212D01*
X214000Y234626D02*
X264000Y284626D01*
X213586Y234212D02*
X214000Y234626D01*
X277486Y323514D02*
Y327404D01*
X279000Y300688D02*
Y322000D01*
X277486Y323514D02*
X279000Y322000D01*
X361000Y151000D02*
X372000D01*
X355000Y145000D02*
X361000Y151000D01*
X340000Y145000D02*
X355000D01*
X282135Y160000D02*
X287000D01*
Y165890D01*
X279000Y152536D02*
X280464Y154000D01*
X279000Y129000D02*
Y152536D01*
X280464Y154000D02*
X289260D01*
X279000Y129000D02*
X285740Y122260D01*
X287000Y130260D02*
X293000Y124260D01*
X297000D01*
X264000Y284626D02*
Y289464D01*
X232740Y338000D02*
X245000D01*
Y317000D02*
Y338000D01*
Y317000D02*
X253630Y308370D01*
X257000D01*
X69000Y269000D02*
X70000Y268000D01*
X361154Y217890D02*
X362000D01*
X383505Y223000D02*
X384000D01*
X369000Y224110D02*
X382394D01*
X383505Y223000D01*
X361154Y224110D02*
X369000D01*
X342110Y226000D02*
X359264D01*
X344000Y234053D02*
Y234626D01*
Y234041D02*
Y234053D01*
X336106Y211217D02*
X336323Y211000D01*
X335890Y226000D02*
X336106Y225783D01*
X342110Y232163D02*
X344000Y234053D01*
X342110Y226000D02*
Y232163D01*
X334000Y234053D02*
X335890Y232163D01*
Y226000D02*
Y232163D01*
X334000Y234053D02*
Y234626D01*
X334191Y234435D01*
X176126Y216346D02*
X183213Y209260D01*
X184000Y216740D02*
Y224000D01*
X349000Y303000D02*
X354000Y308000D01*
X345536Y288000D02*
X349000Y291464D01*
Y303000D01*
X298536Y288000D02*
X345536D01*
X276890Y328000D02*
X277486Y327404D01*
X279000Y300688D02*
X284000Y295688D01*
X257000Y302374D02*
Y308370D01*
Y302374D02*
X264000Y295374D01*
X294000Y308000D02*
X300000Y302000D01*
X265464Y288000D02*
X298536D01*
X300000Y289464D02*
Y302000D01*
X298536Y288000D02*
X300000Y289464D01*
X264000D02*
X265464Y288000D01*
X264000Y289464D02*
Y295374D01*
X230536Y322260D02*
X232740Y324464D01*
X226000Y322260D02*
X230536D01*
X232740Y324464D02*
Y338000D01*
X204000Y332000D02*
Y337536D01*
X205464Y339000D01*
X224443D01*
X225260Y338000D02*
Y338183D01*
X224443Y339000D02*
X225260Y338183D01*
X243586Y295788D02*
Y305414D01*
X243000Y306000D02*
X243586Y305414D01*
Y295788D02*
X244000Y295374D01*
X235126Y305398D02*
Y306000D01*
X234000Y295374D02*
Y304272D01*
X235126Y305398D01*
X184000Y224000D02*
Y234626D01*
X214130Y322130D02*
X225870D01*
X226000Y322260D01*
X214000Y322000D02*
X214130Y322130D01*
X208977Y310292D02*
Y327787D01*
X213189Y332000D01*
X208977Y310292D02*
X214000Y305269D01*
Y295374D02*
Y305269D01*
D81*
X480000Y120000D02*
Y127000D01*
X467050Y136000D02*
X487000D01*
X465000Y133950D02*
X467050Y136000D01*
X487000D02*
X501000Y122000D01*
X465000Y120000D02*
Y133950D01*
X470000Y112000D02*
Y120000D01*
X533000Y112000D02*
X550000D01*
X529000Y116000D02*
X533000Y112000D01*
X534000Y122000D02*
X550000D01*
X529000Y127000D02*
X534000Y122000D01*
X475000Y120000D02*
Y128000D01*
X501000Y122000D02*
X510000D01*
X470000Y82205D02*
Y96000D01*
X475000Y82205D02*
Y94000D01*
X426000Y99000D02*
X432000Y93000D01*
X428050Y150000D02*
X498950D01*
X426000Y147950D02*
X428050Y150000D01*
X426000Y99000D02*
Y147950D01*
X501000Y152050D02*
Y188000D01*
X498950Y150000D02*
X501000Y152050D01*
X432000Y93000D02*
X462950D01*
X465000Y90950D01*
Y82205D02*
Y90950D01*
X510000Y142000D02*
X523000Y129000D01*
Y76407D02*
Y129000D01*
X516000Y86000D02*
Y126000D01*
X510000Y132000D02*
X516000Y126000D01*
X509596Y91596D02*
X510000Y92000D01*
X502000Y89950D02*
X503647Y91596D01*
X502000Y71050D02*
Y89950D01*
X503647Y91596D02*
X509596D01*
X452050Y69000D02*
X499950D01*
X502000Y71050D01*
X450000D02*
X452050Y69000D01*
X450000Y71050D02*
Y82205D01*
X502000Y64000D02*
X510000Y72000D01*
X447050Y64000D02*
X502000D01*
X445000Y66050D02*
Y82205D01*
Y66050D02*
X447050Y64000D01*
X480896Y200943D02*
X481213Y201260D01*
X480896Y200155D02*
Y200943D01*
X478000Y189000D02*
Y197260D01*
X481213Y201260D02*
X482000D01*
X478000Y197260D02*
X480896Y200155D01*
X472260Y216740D02*
X501000D01*
X472000Y217000D02*
X472260Y216740D01*
X467000Y174000D02*
Y194220D01*
X453220Y208000D02*
X467000Y194220D01*
X491000Y201520D02*
X491787D01*
X496000Y197307D01*
Y196000D02*
Y197307D01*
X477000Y174000D02*
X491000Y188000D01*
Y201520D01*
X487000Y174000D02*
X501000Y188000D01*
Y209260D01*
X499472Y254187D02*
X501000Y252659D01*
X499472Y254187D02*
Y255157D01*
X501000Y216740D02*
Y252659D01*
X491130Y209130D02*
X500870D01*
X491000Y209000D02*
X491130Y209130D01*
X500870D02*
X501000Y209260D01*
X482130Y208870D02*
X490870D01*
X491000Y209000D01*
X482000Y208740D02*
X482130Y208870D01*
X473571Y208415D02*
X473896Y208740D01*
X482000D01*
X467000Y208000D02*
X467415Y208415D01*
X473571D01*
X466890Y208110D02*
Y243890D01*
X466780Y244000D02*
X466890Y243890D01*
Y208110D02*
X467000Y208000D01*
X466780Y244000D02*
Y280000D01*
X493344D02*
X498502Y274843D01*
X499472D01*
X466780Y280000D02*
X493344D01*
X466780D02*
Y318000D01*
X467780Y319000D02*
X490000D01*
X466780Y318000D02*
X467780Y319000D01*
X358526Y215262D02*
X361154Y217890D01*
X242000Y167362D02*
X244126Y165236D01*
X263000Y62000D02*
Y72000D01*
X272000Y126000D02*
Y134740D01*
X89949Y195000D02*
X112000D01*
X89000Y195949D02*
X89949Y195000D01*
X89202Y190057D02*
Y195051D01*
X89000Y195949D02*
X89202Y195747D01*
Y195051D02*
Y195747D01*
X312740Y80000D02*
X315740Y83000D01*
X18027Y268973D02*
X34000Y253000D01*
X281000Y165264D02*
Y173000D01*
X361000Y162000D02*
X372000Y151000D01*
X361000Y162000D02*
Y197000D01*
X352740Y179000D02*
Y187740D01*
X353000Y188000D01*
X242000Y167362D02*
Y184000D01*
X230000Y202000D02*
X256000D01*
X223000Y106000D02*
Y226000D01*
X213000Y96000D02*
X223000Y106000D01*
Y226000D02*
X229000Y232000D01*
X287000Y137740D02*
Y145525D01*
X164000Y124630D02*
X164102D01*
X122370D02*
X164000D01*
X74000Y173000D02*
X122370Y124630D01*
X164000Y164000D02*
X192000Y192000D01*
X125520Y202480D02*
X164000Y164000D01*
X98000Y202480D02*
X125520D01*
X192000Y192000D02*
Y206000D01*
X76740Y96000D02*
X213000D01*
X89000Y189740D02*
Y189855D01*
X89202Y190057D01*
X273427Y317427D02*
X274000Y318000D01*
X267000Y314000D02*
X270427Y317427D01*
X267000Y302374D02*
Y314000D01*
X270427Y317427D02*
X273427D01*
X313000Y52594D02*
Y53000D01*
Y59890D01*
Y72260D02*
X314000D01*
X318740D01*
X286063Y43598D02*
X286585Y43076D01*
X288635Y32000D02*
X300000D01*
X286585Y34050D02*
Y43076D01*
X300000Y32000D02*
X308782Y40782D01*
X286585Y34050D02*
X288635Y32000D01*
X308782Y40782D02*
Y48377D01*
X296000Y88000D02*
X299000Y85000D01*
Y83000D02*
X301000Y85000D01*
X278000Y88000D02*
X296000D01*
X299000Y85000D02*
X301000D01*
X335000Y197000D02*
X361000D01*
X280750Y165014D02*
X281000Y165264D01*
X264000Y149000D02*
Y157950D01*
X274890Y160000D02*
X279904Y165014D01*
X266050Y160000D02*
X274890D01*
X264000Y157950D02*
X266050Y160000D01*
X279904Y165014D02*
X280750D01*
X287000Y165890D02*
X287110Y166000D01*
X54323Y238677D02*
X73677Y219323D01*
Y213323D02*
X74000Y213000D01*
X73677Y213323D02*
Y219323D01*
X47764Y248921D02*
X54323Y242362D01*
Y238677D02*
Y242362D01*
X308000Y80000D02*
X312740D01*
X308782Y48377D02*
X313000Y52594D01*
X320943Y142000D02*
X321260Y141683D01*
X302000Y142000D02*
X320943D01*
X321260Y141000D02*
Y141683D01*
X326000Y206000D02*
X335000Y197000D01*
X34000Y233000D02*
Y253000D01*
X18236Y147307D02*
Y169000D01*
X15929Y145000D02*
X18236Y147307D01*
X280000Y216000D02*
X290000Y206000D01*
X326000D01*
X202025Y216025D02*
Y220950D01*
X192000Y206000D02*
X202025Y216025D01*
X256000Y202000D02*
X274000Y220000D01*
X254000Y230000D02*
Y234626D01*
Y230000D02*
X255000Y229000D01*
X280000D01*
Y216000D02*
Y229000D01*
X270000Y96000D02*
X278000Y88000D01*
X264000Y135260D02*
Y149000D01*
X252000D02*
X264000D01*
X264260Y109114D02*
Y134000D01*
Y135000D01*
X264000Y135260D02*
X264260Y135000D01*
X285740Y122000D02*
Y122260D01*
X296740Y154000D02*
X297000Y153740D01*
Y131740D02*
Y153740D01*
Y124260D02*
X299000Y122260D01*
Y104374D02*
Y122260D01*
X264260Y109114D02*
X269000Y104374D01*
X271740Y135000D02*
X272000Y134740D01*
X275890Y119630D02*
X278260Y122000D01*
X275890Y114000D02*
Y119630D01*
X289000Y104374D02*
Y117000D01*
X285740Y120260D02*
X289000Y117000D01*
X285740Y120260D02*
Y122000D01*
X269000Y104374D02*
X275890Y111264D01*
Y114000D01*
X279000Y104374D02*
X282110Y107484D01*
Y114000D01*
X279000Y99000D02*
Y104374D01*
Y99000D02*
X301260D01*
X308260Y106000D01*
X315740Y97000D02*
Y106000D01*
X299000Y73626D02*
Y83000D01*
X301000Y85000D02*
X307000D01*
X308260Y86260D01*
Y97000D01*
X315740Y83000D02*
Y97000D01*
X313000Y59890D02*
X313110Y60000D01*
X319000D01*
Y72000D01*
X318740Y72260D02*
X319000Y72000D01*
X253890Y103000D02*
X254000Y103110D01*
Y118000D01*
X257000Y121000D01*
X267626Y103000D02*
X269000Y104374D01*
X260110Y103000D02*
X267626D01*
X253890Y96110D02*
Y103000D01*
Y96110D02*
X254260Y95740D01*
X258000D01*
X263000Y62000D02*
X266000D01*
X262740Y72260D02*
X263000Y72000D01*
X258000Y72260D02*
X262740D01*
X269000Y66000D02*
Y73626D01*
Y66000D02*
X269110Y66110D01*
X304110D01*
X204076Y223000D02*
X213000D01*
X202025Y220950D02*
X204076Y223000D01*
X354000Y234626D02*
Y241000D01*
X230000D02*
X354000D01*
X229000Y240000D02*
X230000Y241000D01*
X229000Y232000D02*
Y240000D01*
X69000Y117000D02*
Y132740D01*
Y96260D02*
Y117000D01*
Y96260D02*
X69260Y96000D01*
X284000Y234626D02*
X287470Y231156D01*
Y222907D02*
Y231156D01*
X184000Y295374D02*
Y322000D01*
X174000Y295374D02*
Y322000D01*
X213000Y223000D02*
X224000Y234000D01*
Y234626D01*
X287470Y222907D02*
X288378Y222000D01*
X251110Y166000D02*
X252000Y165110D01*
Y149000D02*
Y165110D01*
X244126Y149000D02*
Y165236D01*
X295000Y56260D02*
X295260Y56000D01*
X295000Y56260D02*
Y61000D01*
X338000Y143000D02*
X340000Y145000D01*
X286950Y79740D02*
X289000Y77690D01*
Y73626D02*
Y77690D01*
X258000Y79740D02*
X286950D01*
X258000D02*
Y88260D01*
X302740Y56000D02*
X303000Y56260D01*
Y65000D01*
X304110Y66110D01*
X313000D01*
X293937Y43598D02*
X295260Y44921D01*
Y56000D01*
X208732Y238732D02*
X234000Y264000D01*
X182299Y238732D02*
X208732D01*
X178193Y234626D02*
X182299Y238732D01*
X174000Y234626D02*
X178193D01*
X345260Y170000D02*
Y179000D01*
X352740Y156732D02*
X354472Y155000D01*
X352740Y156732D02*
Y170000D01*
X344236Y155000D02*
Y168976D01*
X345260Y170000D01*
X328740Y141000D02*
X334000Y146260D01*
Y155000D01*
X319764Y126000D02*
X321260Y127496D01*
Y141000D01*
X328740Y127260D02*
X330000Y126000D01*
X328740Y127260D02*
Y141000D01*
X350740Y126000D02*
X353000Y123740D01*
X340236Y126000D02*
X350740D01*
X319764Y120236D02*
Y126000D01*
Y120236D02*
X320000Y120000D01*
X343000D01*
Y106000D02*
Y120000D01*
X330000Y126000D02*
X343000Y139000D01*
X372000D01*
X353000Y123740D02*
X358394D01*
X368654Y134000D01*
X353000Y106000D02*
Y116260D01*
X330000Y66000D02*
X343063Y52937D01*
Y44598D02*
Y52937D01*
X350937Y44598D02*
Y56937D01*
X360000Y66000D01*
X112000Y195000D02*
X113000Y196000D01*
X74000Y173000D02*
X79740D01*
X89000Y182260D01*
X97571Y202051D02*
X98000Y202480D01*
X89000Y202051D02*
X97571D01*
X98000Y235220D02*
X101000Y238220D01*
X98000Y202480D02*
Y235220D01*
X76740Y133000D02*
X79236Y130504D01*
Y117000D02*
Y130504D01*
X69000Y132740D02*
X69260Y133000D01*
X32071Y145000D02*
X47764Y160693D01*
Y169000D01*
X90000Y276000D02*
Y306000D01*
X133000Y251000D02*
Y284268D01*
X112346Y238220D02*
X125126Y251000D01*
X101000Y238220D02*
X112346D01*
X123000Y253126D02*
X125126Y251000D01*
X123000Y253126D02*
Y268000D01*
X54315Y193000D02*
X70000D01*
X74000D01*
X33000Y163000D02*
Y194000D01*
X24000Y154000D02*
X33000Y163000D01*
X24000Y104000D02*
Y154000D01*
Y104000D02*
X24063Y104063D01*
X36598D01*
X123000Y284268D02*
Y326000D01*
X70000Y268000D02*
X123000D01*
Y284268D01*
X89000Y329000D02*
X90000Y328000D01*
X18236Y229079D02*
X54315Y193000D01*
X37921Y229079D02*
X47764D01*
X34000Y233000D02*
X37921Y229079D01*
X69000Y238000D02*
X74000Y233000D01*
X69000Y238000D02*
Y269000D01*
X32598Y320063D02*
X37937D01*
X32598Y327937D02*
X32661Y328000D01*
X362000Y217890D02*
X369000D01*
X369846D02*
X372610Y215126D01*
X384000D01*
X369000Y217890D02*
X369846D01*
X351677Y213165D02*
X353774Y215262D01*
X358526D01*
X336106Y211217D02*
Y225783D01*
X399000Y325409D02*
X399591Y326000D01*
X399000Y320000D02*
Y325409D01*
X364000Y285000D02*
X399000Y320000D01*
X364000Y234626D02*
Y285000D01*
Y295374D02*
X384000Y315374D01*
Y326000D01*
X354000Y295374D02*
X368409Y309783D01*
Y326000D01*
X284000Y295374D02*
Y295688D01*
X267000Y302374D02*
X274000Y295374D01*
X266276Y328000D02*
X276890D01*
X257906Y319630D02*
X266276Y328000D01*
X257000Y319630D02*
X257906D01*
X283766Y318234D02*
Y326498D01*
X283110Y327154D02*
X283766Y326498D01*
Y318234D02*
X284000Y318000D01*
X283110Y327154D02*
Y328000D01*
X282970Y328140D02*
X283110Y328000D01*
X294000Y318000D02*
X301950D01*
X304000Y295374D02*
Y315950D01*
X301950Y318000D02*
X304000Y315950D01*
X284000Y308000D02*
X284573Y307427D01*
X225740Y330000D02*
X226000Y329740D01*
X216811Y330000D02*
X225740D01*
X214811Y332000D02*
X216811Y330000D01*
X214000Y332000D02*
X214811D01*
X213189D02*
X214000D01*
X204000Y295374D02*
Y322000D01*
X194000Y295374D02*
Y322000D01*
X344000Y295374D02*
Y308000D01*
X334000Y295374D02*
Y308000D01*
X324000Y226000D02*
Y234626D01*
X319874Y222000D02*
X320000D01*
X324000Y226000D01*
X319874Y222000D02*
X320221Y222347D01*
X314000Y224491D02*
Y234626D01*
X312000Y222491D02*
X314000Y224491D01*
X312000Y222000D02*
Y222491D01*
X304000Y234626D02*
X304063Y234563D01*
Y222063D02*
X304126Y222000D01*
X304063Y222063D02*
Y234563D01*
X294000Y224743D02*
X296252Y222491D01*
X294000Y224743D02*
Y234626D01*
X296252Y222000D02*
Y222491D01*
X244000Y221000D02*
Y234626D01*
X234000Y221000D02*
Y234626D01*
D82*
X330000Y76000D02*
X333000Y79000D01*
Y106000D01*
D83*
X529000Y287047D02*
D03*
Y242953D02*
D03*
D84*
X556559Y255157D02*
D03*
Y274843D02*
D03*
X499472Y265000D02*
D03*
Y255157D02*
D03*
Y274843D02*
D03*
D85*
X453000Y280000D02*
D03*
Y318000D02*
D03*
Y244000D02*
D03*
X453220Y208000D02*
D03*
X384000Y223000D02*
D03*
X252000Y149000D02*
D03*
X101000Y238220D02*
D03*
X133000Y251000D02*
D03*
X490000Y326874D02*
D03*
D86*
X466780Y280000D02*
D03*
Y318000D02*
D03*
Y244000D02*
D03*
X467000Y208000D02*
D03*
X244126Y149000D02*
D03*
X125126Y251000D02*
D03*
D87*
X510000Y142000D02*
D03*
D88*
Y132000D02*
D03*
Y122000D02*
D03*
Y112000D02*
D03*
Y102000D02*
D03*
Y92000D02*
D03*
Y82000D02*
D03*
Y72000D02*
D03*
X550000D02*
D03*
Y82000D02*
D03*
Y92000D02*
D03*
Y102000D02*
D03*
Y112000D02*
D03*
Y122000D02*
D03*
Y132000D02*
D03*
Y142000D02*
D03*
D89*
X447000Y164000D02*
D03*
Y174000D02*
D03*
X457000Y164000D02*
D03*
Y174000D02*
D03*
X467000Y164000D02*
D03*
Y174000D02*
D03*
X477000Y164000D02*
D03*
Y174000D02*
D03*
X487000Y164000D02*
D03*
X274000Y308000D02*
D03*
Y318000D02*
D03*
X284000Y308000D02*
D03*
Y318000D02*
D03*
X294000Y308000D02*
D03*
X174000Y332000D02*
D03*
Y322000D02*
D03*
X184000Y332000D02*
D03*
Y322000D02*
D03*
X194000Y332000D02*
D03*
Y322000D02*
D03*
X204000Y332000D02*
D03*
Y322000D02*
D03*
X214000Y332000D02*
D03*
X354000Y308000D02*
D03*
X344000D02*
D03*
X334000D02*
D03*
D90*
X487000Y174000D02*
D03*
X294000Y318000D02*
D03*
X214000Y322000D02*
D03*
X324000Y308000D02*
D03*
D91*
X384000Y215126D02*
D03*
X101000Y252000D02*
D03*
X490000Y319000D02*
D03*
D92*
X354000Y234626D02*
D03*
X174000Y295374D02*
D03*
X184000D02*
D03*
X194000D02*
D03*
X204000D02*
D03*
X214000D02*
D03*
X224000D02*
D03*
X234000D02*
D03*
X244000D02*
D03*
X254000D02*
D03*
X264000D02*
D03*
X274000D02*
D03*
X284000D02*
D03*
X294000D02*
D03*
X304000D02*
D03*
X314000D02*
D03*
X324000D02*
D03*
X334000D02*
D03*
X344000D02*
D03*
X354000D02*
D03*
X364000D02*
D03*
Y234626D02*
D03*
X344000D02*
D03*
X334000D02*
D03*
X324000D02*
D03*
X314000D02*
D03*
X304000D02*
D03*
X294000D02*
D03*
X284000D02*
D03*
X274000D02*
D03*
X264000D02*
D03*
X254000D02*
D03*
X244000D02*
D03*
X234000D02*
D03*
X224000D02*
D03*
X214000D02*
D03*
X204000D02*
D03*
X194000D02*
D03*
X184000D02*
D03*
D93*
X340236Y126000D02*
D03*
X330000D02*
D03*
X319764D02*
D03*
X354472Y155000D02*
D03*
X344236D02*
D03*
X334000D02*
D03*
X58764Y117000D02*
D03*
X69000D02*
D03*
X79236D02*
D03*
D94*
X299000Y73626D02*
D03*
X289000D02*
D03*
X279000D02*
D03*
X269000D02*
D03*
Y104374D02*
D03*
X279000D02*
D03*
X289000D02*
D03*
D95*
X299000D02*
D03*
D96*
X368654Y134000D02*
D03*
X372000Y139000D02*
D03*
X368654Y144000D02*
D03*
X319874Y222000D02*
D03*
X312000D02*
D03*
X304126D02*
D03*
X296252D02*
D03*
D97*
X333000Y106000D02*
D03*
X343000D02*
D03*
D98*
X353000D02*
D03*
D99*
X368409Y326000D02*
D03*
X384000D02*
D03*
D100*
X399591D02*
D03*
D101*
X360000Y76000D02*
D03*
Y66000D02*
D03*
X330000D02*
D03*
Y76000D02*
D03*
D102*
X164000Y124630D02*
D03*
D103*
Y164000D02*
D03*
D104*
X18236Y169000D02*
D03*
Y229079D02*
D03*
Y248921D02*
D03*
Y268764D02*
D03*
X47764D02*
D03*
Y248921D02*
D03*
Y229079D02*
D03*
Y169000D02*
D03*
D105*
X69000Y269000D02*
D03*
Y289000D02*
D03*
Y309000D02*
D03*
X74000Y233000D02*
D03*
Y213000D02*
D03*
Y193000D02*
D03*
D106*
X69000Y329000D02*
D03*
X74000Y173000D02*
D03*
D107*
X174000Y234626D02*
D03*
D108*
X243000Y306000D02*
D03*
X191874Y224000D02*
D03*
D109*
X235126Y306000D02*
D03*
X227252D02*
D03*
X184000Y224000D02*
D03*
X176126D02*
D03*
D110*
X288378Y222000D02*
D03*
D111*
X234000Y221000D02*
D03*
D112*
X244000D02*
D03*
D113*
X103000Y171000D02*
D03*
X144000Y226000D02*
D03*
X21000Y17000D02*
D03*
X397000Y22000D02*
D03*
X324000Y333000D02*
D03*
X397000Y267000D02*
D03*
X433000Y14000D02*
D03*
X551000D02*
D03*
X433000Y335000D02*
D03*
X551000D02*
D03*
D114*
X520000Y148000D02*
D03*
X480000Y127000D02*
D03*
X485000Y131000D02*
D03*
X470000Y112000D02*
D03*
X529000Y116000D02*
D03*
Y127000D02*
D03*
X475000Y128000D02*
D03*
X450000Y111000D02*
D03*
X506000Y97000D02*
D03*
X470000Y96000D02*
D03*
X475000Y94000D02*
D03*
X498025Y82000D02*
D03*
X456984Y76000D02*
D03*
X460000Y73000D02*
D03*
X523000Y76407D02*
D03*
X516000Y86000D02*
D03*
X478000Y189000D02*
D03*
X472000Y217000D02*
D03*
X496000Y196000D02*
D03*
X272000Y210000D02*
D03*
X242000Y184000D02*
D03*
X230000Y202000D02*
D03*
X287000Y145525D02*
D03*
X281000Y173000D02*
D03*
X282000Y160000D02*
D03*
X308000Y80000D02*
D03*
X302000Y142000D02*
D03*
X274000Y220000D02*
D03*
X270000Y96000D02*
D03*
X272000Y126000D02*
D03*
X257000Y121000D02*
D03*
X266000Y62000D02*
D03*
X295000Y61000D02*
D03*
X338000Y143000D02*
D03*
X113000Y197000D02*
D03*
X90000Y276000D02*
D03*
D115*
X353000Y188000D02*
D03*
D116*
X313000Y53000D02*
D03*
X234000Y264000D02*
D03*
X33000Y194000D02*
D03*
M02*
