G04*
G04 #@! TF.GenerationSoftware,Altium Limited,Altium Designer,22.4.2 (48)*
G04*
G04 Layer_Color=16711935*
%FSLAX25Y25*%
%MOIN*%
G70*
G04*
G04 #@! TF.SameCoordinates,783B880F-F190-4A79-90E1-06678E82802B*
G04*
G04*
G04 #@! TF.FilePolarity,Negative*
G04*
G01*
G75*
%ADD46C,0.19698*%
%ADD47C,0.07887*%
%ADD48C,0.05131*%
%ADD49R,0.05131X0.05131*%
%ADD50R,0.06410X0.06410*%
%ADD51C,0.06410*%
%ADD52C,0.07296*%
%ADD53R,0.07296X0.07296*%
%ADD54R,0.05131X0.05131*%
%ADD55C,0.05461*%
%ADD56C,0.06469*%
%ADD57C,0.05359*%
%ADD58R,0.05359X0.05359*%
%ADD59C,0.06115*%
%ADD60C,0.08359*%
%ADD61R,0.08359X0.08359*%
%ADD62C,0.11430*%
%ADD63R,0.11430X0.11430*%
%ADD64C,0.08300*%
%ADD65C,0.06706*%
%ADD66R,0.06706X0.06706*%
%ADD67C,0.09068*%
%ADD68C,0.09599*%
%ADD69R,0.09599X0.09599*%
%ADD70R,0.05461X0.05461*%
%ADD71R,0.05524X0.05524*%
%ADD72C,0.05524*%
%ADD73R,0.06115X0.06115*%
%ADD74C,0.07591*%
%ADD75R,0.07591X0.07591*%
%ADD76C,0.16548*%
%ADD77C,0.03800*%
%ADD78C,0.04300*%
%ADD79C,0.05800*%
D46*
X529000Y287047D02*
D03*
Y242953D02*
D03*
D47*
X556559Y255157D02*
D03*
Y274843D02*
D03*
X499472Y265000D02*
D03*
Y255157D02*
D03*
Y274843D02*
D03*
D48*
X453000Y280000D02*
D03*
Y318000D02*
D03*
Y244000D02*
D03*
X453220Y208000D02*
D03*
X384000Y223000D02*
D03*
X252000Y149000D02*
D03*
X101000Y238220D02*
D03*
X133000Y251000D02*
D03*
X490000Y326874D02*
D03*
D49*
X466780Y280000D02*
D03*
Y318000D02*
D03*
Y244000D02*
D03*
X467000Y208000D02*
D03*
X244126Y149000D02*
D03*
X125126Y251000D02*
D03*
D50*
X510000Y142000D02*
D03*
D51*
Y132000D02*
D03*
Y122000D02*
D03*
Y112000D02*
D03*
Y102000D02*
D03*
Y92000D02*
D03*
Y82000D02*
D03*
Y72000D02*
D03*
X550000D02*
D03*
Y82000D02*
D03*
Y92000D02*
D03*
Y102000D02*
D03*
Y112000D02*
D03*
Y122000D02*
D03*
Y132000D02*
D03*
Y142000D02*
D03*
D52*
X447000Y164000D02*
D03*
Y174000D02*
D03*
X457000Y164000D02*
D03*
Y174000D02*
D03*
X467000Y164000D02*
D03*
Y174000D02*
D03*
X477000Y164000D02*
D03*
Y174000D02*
D03*
X487000Y164000D02*
D03*
X274000Y308000D02*
D03*
Y318000D02*
D03*
X284000Y308000D02*
D03*
Y318000D02*
D03*
X294000Y308000D02*
D03*
X174000Y332000D02*
D03*
Y322000D02*
D03*
X184000Y332000D02*
D03*
Y322000D02*
D03*
X194000Y332000D02*
D03*
Y322000D02*
D03*
X204000Y332000D02*
D03*
Y322000D02*
D03*
X214000Y332000D02*
D03*
X354000Y308000D02*
D03*
X344000D02*
D03*
X334000D02*
D03*
D53*
X487000Y174000D02*
D03*
X294000Y318000D02*
D03*
X214000Y322000D02*
D03*
X324000Y308000D02*
D03*
D54*
X384000Y215126D02*
D03*
X101000Y252000D02*
D03*
X490000Y319000D02*
D03*
D55*
X354000Y234626D02*
D03*
X174000Y295374D02*
D03*
X184000D02*
D03*
X194000D02*
D03*
X204000D02*
D03*
X214000D02*
D03*
X224000D02*
D03*
X234000D02*
D03*
X244000D02*
D03*
X254000D02*
D03*
X264000D02*
D03*
X274000D02*
D03*
X284000D02*
D03*
X294000D02*
D03*
X304000D02*
D03*
X314000D02*
D03*
X324000D02*
D03*
X334000D02*
D03*
X344000D02*
D03*
X354000D02*
D03*
X364000D02*
D03*
Y234626D02*
D03*
X344000D02*
D03*
X334000D02*
D03*
X324000D02*
D03*
X314000D02*
D03*
X304000D02*
D03*
X294000D02*
D03*
X284000D02*
D03*
X274000D02*
D03*
X264000D02*
D03*
X254000D02*
D03*
X244000D02*
D03*
X234000D02*
D03*
X224000D02*
D03*
X214000D02*
D03*
X204000D02*
D03*
X194000D02*
D03*
X184000D02*
D03*
D56*
X340236Y126000D02*
D03*
X330000D02*
D03*
X319764D02*
D03*
X354472Y155000D02*
D03*
X344236D02*
D03*
X334000D02*
D03*
X58764Y117000D02*
D03*
X69000D02*
D03*
X79236D02*
D03*
D57*
X299000Y73626D02*
D03*
X289000D02*
D03*
X279000D02*
D03*
X269000D02*
D03*
Y104374D02*
D03*
X279000D02*
D03*
X289000D02*
D03*
D58*
X299000D02*
D03*
D59*
X368654Y134000D02*
D03*
X372000Y139000D02*
D03*
X368654Y144000D02*
D03*
X319874Y222000D02*
D03*
X312000D02*
D03*
X304126D02*
D03*
X296252D02*
D03*
D60*
X333000Y106000D02*
D03*
X343000D02*
D03*
D61*
X353000D02*
D03*
D62*
X368409Y326000D02*
D03*
X384000D02*
D03*
D63*
X399591D02*
D03*
D64*
X360000Y76000D02*
D03*
Y66000D02*
D03*
X330000D02*
D03*
Y76000D02*
D03*
D65*
X164000Y124630D02*
D03*
D66*
Y164000D02*
D03*
D67*
X18236Y169000D02*
D03*
Y229079D02*
D03*
Y248921D02*
D03*
Y268764D02*
D03*
X47764D02*
D03*
Y248921D02*
D03*
Y229079D02*
D03*
Y169000D02*
D03*
D68*
X69000Y269000D02*
D03*
Y289000D02*
D03*
Y309000D02*
D03*
X74000Y233000D02*
D03*
Y213000D02*
D03*
Y193000D02*
D03*
D69*
X69000Y329000D02*
D03*
X74000Y173000D02*
D03*
D70*
X174000Y234626D02*
D03*
D71*
X243000Y306000D02*
D03*
X191874Y224000D02*
D03*
D72*
X235126Y306000D02*
D03*
X227252D02*
D03*
X184000Y224000D02*
D03*
X176126D02*
D03*
D73*
X288378Y222000D02*
D03*
D74*
X234000Y221000D02*
D03*
D75*
X244000D02*
D03*
D76*
X103000Y171000D02*
D03*
X144000Y226000D02*
D03*
X21000Y17000D02*
D03*
X397000Y22000D02*
D03*
X324000Y333000D02*
D03*
X397000Y267000D02*
D03*
X433000Y14000D02*
D03*
X551000D02*
D03*
X433000Y335000D02*
D03*
X551000D02*
D03*
D77*
X520000Y148000D02*
D03*
X480000Y127000D02*
D03*
X485000Y131000D02*
D03*
X470000Y112000D02*
D03*
X529000Y116000D02*
D03*
Y127000D02*
D03*
X475000Y128000D02*
D03*
X450000Y111000D02*
D03*
X506000Y97000D02*
D03*
X470000Y96000D02*
D03*
X475000Y94000D02*
D03*
X498025Y82000D02*
D03*
X456984Y76000D02*
D03*
X460000Y73000D02*
D03*
X523000Y76407D02*
D03*
X516000Y86000D02*
D03*
X478000Y189000D02*
D03*
X472000Y217000D02*
D03*
X496000Y196000D02*
D03*
X272000Y210000D02*
D03*
X242000Y184000D02*
D03*
X230000Y202000D02*
D03*
X287000Y145525D02*
D03*
X281000Y173000D02*
D03*
X282000Y160000D02*
D03*
X308000Y80000D02*
D03*
X302000Y142000D02*
D03*
X274000Y220000D02*
D03*
X270000Y96000D02*
D03*
X272000Y126000D02*
D03*
X257000Y121000D02*
D03*
X266000Y62000D02*
D03*
X295000Y61000D02*
D03*
X338000Y143000D02*
D03*
X113000Y197000D02*
D03*
X90000Y276000D02*
D03*
D78*
X353000Y188000D02*
D03*
D79*
X313000Y53000D02*
D03*
X234000Y264000D02*
D03*
X33000Y194000D02*
D03*
M02*
