M48
;Layer_Color=9474304
;FILE_FORMAT=2:5
INCH,LZ
;TYPE=PLATED
T1F00S00C0.01500
T2F00S00C0.02756
T3F00S00C0.02800
T4F00S00C0.02984
T5F00S00C0.03000
T6F00S00C0.03087
T7F00S00C0.03150
T8F00S00C0.03189
T9F00S00C0.03543
T10F00S00C0.03701
T11F00S00C0.03740
T12F00S00C0.03937
T13F00S00C0.04331
T14F00S00C0.04528
T15F00S00C0.04724
T16F00S00C0.05000
T17F00S00C0.05039
T18F00S00C0.05512
T19F00S00C0.05866
T20F00S00C0.07087
T21F00S00C0.12913
T22F00S00C0.15748
%
T01
X0529Y0116
Y0127
X052Y0148
X0485Y0131
X048Y0127
X0475Y0128
X047Y0112
Y0096
X0475Y0094
X0506Y0097
X0516Y0086
X0523Y0076407
X0498025Y0082
X046Y0073
X0456984Y0076
X045Y0111
X0338Y0143
X0302Y0142
X0287Y0145525
X0282Y016
X0272Y0126
X0257Y0121
X027Y0096
X0266Y0062
X0295Y0061
X0308Y008
X0113Y0197
X009Y0276
X023Y0202
X0242Y0184
X0281Y0173
X0272Y021
X0274Y022
X0353Y0188
X0478Y0189
X0496Y0196
X0472Y0217
T02
X0244126Y0149
X0252
X0133Y0251
X0125126
X0101Y0252
Y023822
X0384Y0223
Y0215126
X045322Y0208
X0467
X046678Y0244
X0453
Y028
X046678
Y0318
X0453
X049Y0319
Y0326874
T03
X0033Y0194
X0234Y0264
T04
X0269Y0073626
X0279
X0289
X0299
Y0104374
X0289
X0279
X0269
T05
X0313Y0053
T06
X0174Y0234626
X0184
X0194
X0204
Y0295374
X0194
X0184
X0174
X0214
X0224
X0234
X0244
X0254
X0264
X0274
X0284
X0294
X0304
X0314
X0324
X0334
X0344
X0354
X0364
Y0234626
X0354
X0344
X0334
X0324
X0314
X0304
X0294
X0284
X0274
X0264
X0254
X0244
X0234
X0224
X0214
T07
X0176126Y0224
X0184
X0191874
X0227252Y0306
X0235126
X0243
T08
X0372Y0139
X0368654Y0134
Y0144
T09
X0288378Y0222
X0296252
X0304126
X0312
X0319874
T10
X0319764Y0126
X033
X0340236
X0344236Y0155
X0354472
X0334
X0079236Y0117
X0069
X0058764
T11
X055Y0072
Y0082
Y0092
Y0102
Y0112
Y0122
Y0132
Y0142
X051
Y0132
Y0122
Y0112
Y0102
Y0092
Y0082
Y0072
T12
X0164Y012463
Y0164
T13
X0447Y0164
X0457
X0467
X0477
X0487
X0354Y0308
X0344
X0334
X0324
X0294
X0284
X0274
Y0318
X0284
X0294
X0447Y0174
X0457
X0467
X0477
X0487
X0214Y0322
Y0332
X0204
X0194
X0184
X0174
Y0322
X0184
X0194
X0204
T14
X0234Y0221
X0244
T15
X0499472Y0255157
Y0265
Y0274843
X0556559
Y0255157
T16
X033Y0066
Y0076
X036
Y0066
T17
X0333Y0106
X0343
X0353
T18
X0018236Y0169
X0047764
Y0229079
Y0248921
Y0268764
X0018236
Y0248921
Y0229079
T19
X0074Y0173
Y0193
Y0213
Y0233
X0069Y0269
Y0289
Y0309
Y0329
T20
X0384Y0326
X0399591
X0368409
T21
X0529Y0242953
Y0287047
T22
X0551Y0014
X0433
X0397Y0022
X0021Y0017
X0103Y0171
X0144Y0226
X0397Y0267
X0551Y0335
X0433
X0324Y0333
M30
